<?xml version="1.0" encoding="UTF-8"?>
<svg xmlns="http://www.w3.org/2000/svg" width="980" height="700">
  <rect width="980" height="700" fill="white"/>
  <text x="471" y="36" text-anchor="middle" font-family="sans-serif" font-size="15" font-weight="bold">BigData WithTTL — ProcessCount × Latency/Op × Alloc/Op</text>
  <polygon points="391.9,450.0 731.9,450.0 731.9,140.0 391.9,140.0" fill="#eef5ee" stroke="#aaa" stroke-width="0.8"/>
  <polygon points="210.0,555.0 391.9,450.0 391.9,140.0 210.0,245.0" fill="#eeeff8" stroke="#aaa" stroke-width="0.8"/>
  <polygon points="210.0,555.0 550.0,555.0 731.9,450.0 391.9,450.0" fill="#f5f5ee" stroke="#aaa" stroke-width="0.8"/>
  <line x1="210.0" y1="555.0" x2="550.0" y2="555.0" stroke="#ccc" stroke-width="0.7" stroke-dasharray="4,3"/>
  <line x1="210.0" y1="555.0" x2="391.9" y2="450.0" stroke="#ccc" stroke-width="0.7" stroke-dasharray="4,3"/>
  <line x1="255.5" y1="528.8" x2="595.5" y2="528.8" stroke="#ccc" stroke-width="0.7" stroke-dasharray="4,3"/>
  <line x1="295.0" y1="555.0" x2="476.9" y2="450.0" stroke="#ccc" stroke-width="0.7" stroke-dasharray="4,3"/>
  <line x1="300.9" y1="502.5" x2="640.9" y2="502.5" stroke="#ccc" stroke-width="0.7" stroke-dasharray="4,3"/>
  <line x1="380.0" y1="555.0" x2="561.9" y2="450.0" stroke="#ccc" stroke-width="0.7" stroke-dasharray="4,3"/>
  <line x1="346.4" y1="476.2" x2="686.4" y2="476.2" stroke="#ccc" stroke-width="0.7" stroke-dasharray="4,3"/>
  <line x1="465.0" y1="555.0" x2="646.9" y2="450.0" stroke="#ccc" stroke-width="0.7" stroke-dasharray="4,3"/>
  <line x1="391.9" y1="450.0" x2="731.9" y2="450.0" stroke="#ccc" stroke-width="0.7" stroke-dasharray="4,3"/>
  <line x1="550.0" y1="555.0" x2="731.9" y2="450.0" stroke="#ccc" stroke-width="0.7" stroke-dasharray="4,3"/>
  <line x1="210.0" y1="477.5" x2="391.9" y2="372.5" stroke="#ccc" stroke-width="0.7" stroke-dasharray="4,3"/>
  <line x1="255.5" y1="528.8" x2="255.5" y2="218.8" stroke="#ccc" stroke-width="0.7" stroke-dasharray="4,3"/>
  <line x1="210.0" y1="400.0" x2="391.9" y2="295.0" stroke="#ccc" stroke-width="0.7" stroke-dasharray="4,3"/>
  <line x1="300.9" y1="502.5" x2="300.9" y2="192.5" stroke="#ccc" stroke-width="0.7" stroke-dasharray="4,3"/>
  <line x1="210.0" y1="322.5" x2="391.9" y2="217.5" stroke="#ccc" stroke-width="0.7" stroke-dasharray="4,3"/>
  <line x1="346.4" y1="476.2" x2="346.4" y2="166.2" stroke="#ccc" stroke-width="0.7" stroke-dasharray="4,3"/>
  <line x1="210.0" y1="245.0" x2="391.9" y2="140.0" stroke="#ccc" stroke-width="0.7" stroke-dasharray="4,3"/>
  <line x1="391.9" y1="450.0" x2="391.9" y2="140.0" stroke="#ccc" stroke-width="0.7" stroke-dasharray="4,3"/>
  <line x1="270.6" y1="520.0" x2="610.6" y2="520.0" stroke="#b0b8d0" stroke-width="1.1" stroke-dasharray="5,3"/>
  <line x1="270.6" y1="520.0" x2="270.6" y2="210.0" stroke="#b0b8d0" stroke-width="1.1" stroke-dasharray="5,3"/>
  <line x1="331.2" y1="485.0" x2="671.2" y2="485.0" stroke="#b0b8d0" stroke-width="1.1" stroke-dasharray="5,3"/>
  <line x1="331.2" y1="485.0" x2="331.2" y2="175.0" stroke="#b0b8d0" stroke-width="1.1" stroke-dasharray="5,3"/>
  <line x1="210.0" y1="555.0" x2="567.0" y2="555.0" stroke="#333" stroke-width="2"/>
  <line x1="210.0" y1="555.0" x2="210.0" y2="229.5" stroke="#333" stroke-width="2"/>
  <line x1="210.0" y1="555.0" x2="401.0" y2="444.8" stroke="#333" stroke-width="2" stroke-dasharray="6,3"/>
  <line x1="210.0" y1="555.0" x2="210.0" y2="560.0" stroke="#555"/>
  <text x="210.0" y="575.0" text-anchor="middle" font-family="sans-serif" font-size="12">P100</text>
  <line x1="380.0" y1="555.0" x2="380.0" y2="560.0" stroke="#555"/>
  <text x="380.0" y="575.0" text-anchor="middle" font-family="sans-serif" font-size="12">P1000</text>
  <line x1="550.0" y1="555.0" x2="550.0" y2="560.0" stroke="#555"/>
  <text x="550.0" y="575.0" text-anchor="middle" font-family="sans-serif" font-size="12">P10000</text>
  <text x="380.0" y="593.0" text-anchor="middle" font-family="sans-serif" font-size="13">Process Count</text>
  <line x1="205.0" y1="555.0" x2="210.0" y2="555.0" stroke="#555"/>
  <text x="202.0" y="555.0" text-anchor="end" font-family="sans-serif" font-size="11" dominant-baseline="middle">5.7M</text>
  <line x1="205.0" y1="477.5" x2="210.0" y2="477.5" stroke="#555"/>
  <text x="202.0" y="477.5" text-anchor="end" font-family="sans-serif" font-size="11" dominant-baseline="middle">325.7M</text>
  <line x1="205.0" y1="400.0" x2="210.0" y2="400.0" stroke="#555"/>
  <text x="202.0" y="400.0" text-anchor="end" font-family="sans-serif" font-size="11" dominant-baseline="middle">645.6M</text>
  <line x1="205.0" y1="322.5" x2="210.0" y2="322.5" stroke="#555"/>
  <text x="202.0" y="322.5" text-anchor="end" font-family="sans-serif" font-size="11" dominant-baseline="middle">965.5M</text>
  <line x1="205.0" y1="245.0" x2="210.0" y2="245.0" stroke="#555"/>
  <text x="202.0" y="245.0" text-anchor="end" font-family="sans-serif" font-size="11" dominant-baseline="middle">1285.5M</text>
  <text transform="rotate(-90,150,400)" x="150" y="400" text-anchor="middle" font-family="sans-serif" font-size="13">Latency/Op (ns/op)</text>
  <line x1="206.0" y1="557.0" x2="210.0" y2="555.0" stroke="#555"/>
  <text x="203.0" y="558.0" text-anchor="end" font-family="sans-serif" font-size="11" dominant-baseline="middle">135</text>
  <line x1="266.6" y1="522.0" x2="270.6" y2="520.0" stroke="#555"/>
  <text x="263.6" y="523.0" text-anchor="end" font-family="sans-serif" font-size="11" dominant-baseline="middle">240.8K</text>
  <line x1="327.2" y1="487.0" x2="331.2" y2="485.0" stroke="#555"/>
  <text x="324.2" y="488.0" text-anchor="end" font-family="sans-serif" font-size="11" dominant-baseline="middle">481.5K</text>
  <line x1="387.9" y1="452.0" x2="391.9" y2="450.0" stroke="#555"/>
  <text x="384.9" y="453.0" text-anchor="end" font-family="sans-serif" font-size="11" dominant-baseline="middle">722.2K</text>
  <text x="300.9" y="524.5" text-anchor="middle" font-family="sans-serif" font-size="13">Alloc/Op</text>
  <line x1="391.9" y1="306.2" x2="561.9" y2="368.4" stroke="#ff7f0e" stroke-width="1.8" stroke-dasharray="10,5" opacity="0.65"/>
  <line x1="561.9" y1="368.4" x2="731.9" y2="364.5" stroke="#ff7f0e" stroke-width="1.8" stroke-dasharray="10,5" opacity="0.65"/>
  <line x1="391.9" y1="393.6" x2="561.9" y2="395.7" stroke="#d62728" stroke-width="1.8" stroke-dasharray="10,5" opacity="0.65"/>
  <line x1="561.9" y1="395.7" x2="731.9" y2="398.0" stroke="#d62728" stroke-width="1.8" stroke-dasharray="10,5" opacity="0.65"/>
  <line x1="391.9" y1="396.8" x2="561.9" y2="393.1" stroke="#2ca02c" stroke-width="1.8" stroke-dasharray="10,5" opacity="0.65"/>
  <line x1="561.9" y1="393.1" x2="731.9" y2="398.1" stroke="#2ca02c" stroke-width="1.8" stroke-dasharray="10,5" opacity="0.65"/>
  <line x1="391.9" y1="447.7" x2="561.9" y2="448.8" stroke="#9467bd" stroke-width="1.8" stroke-dasharray="10,5" opacity="0.65"/>
  <line x1="561.9" y1="448.8" x2="731.9" y2="449.2" stroke="#9467bd" stroke-width="1.8" stroke-dasharray="10,5" opacity="0.65"/>
  <line x1="391.9" y1="173.6" x2="561.9" y2="140.0" stroke="#1f77b4" stroke-width="1.8" stroke-dasharray="10,5" opacity="0.65"/>
  <line x1="561.9" y1="140.0" x2="731.9" y2="173.9" stroke="#1f77b4" stroke-width="1.8" stroke-dasharray="10,5" opacity="0.65"/>
  <line x1="391.9" y1="402.1" x2="561.9" y2="399.2" stroke="#e377c2" stroke-width="1.8" stroke-dasharray="10,5" opacity="0.65"/>
  <line x1="561.9" y1="399.2" x2="731.9" y2="398.2" stroke="#e377c2" stroke-width="1.8" stroke-dasharray="10,5" opacity="0.65"/>
  <line x1="391.9" y1="381.4" x2="561.9" y2="380.8" stroke="#7f7f7f" stroke-width="1.8" stroke-dasharray="10,5" opacity="0.65"/>
  <line x1="561.9" y1="380.8" x2="731.9" y2="385.5" stroke="#7f7f7f" stroke-width="1.8" stroke-dasharray="10,5" opacity="0.65"/>
  <line x1="391.9" y1="450.0" x2="561.9" y2="449.5" stroke="#8c564b" stroke-width="1.8" stroke-dasharray="10,5" opacity="0.65"/>
  <line x1="561.9" y1="449.5" x2="731.9" y2="448.6" stroke="#8c564b" stroke-width="1.8" stroke-dasharray="10,5" opacity="0.65"/>
  <line x1="391.9" y1="450.0" x2="545.2" y2="459.6" stroke="#ff7f0e" stroke-width="1.8" stroke-dasharray="5,4" opacity="0.65"/>
  <line x1="545.2" y1="459.6" x2="716.7" y2="458.7" stroke="#ff7f0e" stroke-width="1.8" stroke-dasharray="5,4" opacity="0.65"/>
  <line x1="355.2" y1="471.1" x2="525.3" y2="471.1" stroke="#d62728" stroke-width="1.8" stroke-dasharray="5,4" opacity="0.65"/>
  <line x1="525.3" y1="471.1" x2="696.2" y2="470.6" stroke="#d62728" stroke-width="1.8" stroke-dasharray="5,4" opacity="0.65"/>
  <line x1="348.6" y1="475.0" x2="518.7" y2="474.9" stroke="#2ca02c" stroke-width="1.8" stroke-dasharray="5,4" opacity="0.65"/>
  <line x1="518.7" y1="474.9" x2="689.6" y2="474.4" stroke="#2ca02c" stroke-width="1.8" stroke-dasharray="5,4" opacity="0.65"/>
  <line x1="276.6" y1="516.5" x2="446.4" y2="516.7" stroke="#9467bd" stroke-width="1.8" stroke-dasharray="5,4" opacity="0.65"/>
  <line x1="446.4" y1="516.7" x2="616.4" y2="516.7" stroke="#9467bd" stroke-width="1.8" stroke-dasharray="5,4" opacity="0.65"/>
  <line x1="267.3" y1="521.9" x2="441.9" y2="519.3" stroke="#1f77b4" stroke-width="1.8" stroke-dasharray="5,4" opacity="0.65"/>
  <line x1="441.9" y1="519.3" x2="621.1" y2="514.0" stroke="#1f77b4" stroke-width="1.8" stroke-dasharray="5,4" opacity="0.65"/>
  <line x1="243.0" y1="535.9" x2="413.1" y2="535.9" stroke="#e377c2" stroke-width="1.8" stroke-dasharray="5,4" opacity="0.65"/>
  <line x1="413.1" y1="535.9" x2="583.8" y2="535.5" stroke="#e377c2" stroke-width="1.8" stroke-dasharray="5,4" opacity="0.65"/>
  <line x1="210.0" y1="555.0" x2="380.1" y2="554.9" stroke="#7f7f7f" stroke-width="1.8" stroke-dasharray="5,4" opacity="0.65"/>
  <line x1="380.1" y1="554.9" x2="551.0" y2="554.4" stroke="#7f7f7f" stroke-width="1.8" stroke-dasharray="5,4" opacity="0.65"/>
  <line x1="210.2" y1="554.9" x2="380.2" y2="554.9" stroke="#8c564b" stroke-width="1.8" stroke-dasharray="5,4" opacity="0.65"/>
  <line x1="380.2" y1="554.9" x2="550.1" y2="554.9" stroke="#8c564b" stroke-width="1.8" stroke-dasharray="5,4" opacity="0.65"/>
  <line x1="391.9" y1="306.2" x2="391.9" y2="450.0" stroke="#ff7f0e" stroke-width="0.9" stroke-dasharray="3,2" opacity="0.5"/>
  <line x1="545.2" y1="378.0" x2="545.2" y2="459.6" stroke="#ff7f0e" stroke-width="0.9" stroke-dasharray="3,2" opacity="0.5"/>
  <line x1="716.7" y1="373.3" x2="716.7" y2="458.7" stroke="#ff7f0e" stroke-width="0.9" stroke-dasharray="3,2" opacity="0.5"/>
  <line x1="355.2" y1="414.7" x2="355.2" y2="471.1" stroke="#d62728" stroke-width="0.9" stroke-dasharray="3,2" opacity="0.5"/>
  <line x1="525.3" y1="416.8" x2="525.3" y2="471.1" stroke="#d62728" stroke-width="0.9" stroke-dasharray="3,2" opacity="0.5"/>
  <line x1="696.2" y1="418.6" x2="696.2" y2="470.6" stroke="#d62728" stroke-width="0.9" stroke-dasharray="3,2" opacity="0.5"/>
  <line x1="348.6" y1="421.8" x2="348.6" y2="475.0" stroke="#2ca02c" stroke-width="0.9" stroke-dasharray="3,2" opacity="0.5"/>
  <line x1="518.7" y1="418.0" x2="518.7" y2="474.9" stroke="#2ca02c" stroke-width="0.9" stroke-dasharray="3,2" opacity="0.5"/>
  <line x1="689.6" y1="422.5" x2="689.6" y2="474.4" stroke="#2ca02c" stroke-width="0.9" stroke-dasharray="3,2" opacity="0.5"/>
  <line x1="276.6" y1="514.2" x2="276.6" y2="516.5" stroke="#9467bd" stroke-width="0.9" stroke-dasharray="3,2" opacity="0.5"/>
  <line x1="446.4" y1="515.4" x2="446.4" y2="516.7" stroke="#9467bd" stroke-width="0.9" stroke-dasharray="3,2" opacity="0.5"/>
  <line x1="616.4" y1="515.8" x2="616.4" y2="516.7" stroke="#9467bd" stroke-width="0.9" stroke-dasharray="3,2" opacity="0.5"/>
  <line x1="267.3" y1="245.5" x2="267.3" y2="521.9" stroke="#1f77b4" stroke-width="0.9" stroke-dasharray="3,2" opacity="0.5"/>
  <line x1="441.9" y1="209.3" x2="441.9" y2="519.3" stroke="#1f77b4" stroke-width="0.9" stroke-dasharray="3,2" opacity="0.5"/>
  <line x1="621.1" y1="237.8" x2="621.1" y2="514.0" stroke="#1f77b4" stroke-width="0.9" stroke-dasharray="3,2" opacity="0.5"/>
  <line x1="243.0" y1="488.1" x2="243.0" y2="535.9" stroke="#e377c2" stroke-width="0.9" stroke-dasharray="3,2" opacity="0.5"/>
  <line x1="413.1" y1="485.1" x2="413.1" y2="535.9" stroke="#e377c2" stroke-width="0.9" stroke-dasharray="3,2" opacity="0.5"/>
  <line x1="583.8" y1="483.7" x2="583.8" y2="535.5" stroke="#e377c2" stroke-width="0.9" stroke-dasharray="3,2" opacity="0.5"/>
  <line x1="210.0" y1="486.4" x2="210.0" y2="555.0" stroke="#7f7f7f" stroke-width="0.9" stroke-dasharray="3,2" opacity="0.5"/>
  <line x1="380.1" y1="485.7" x2="380.1" y2="554.9" stroke="#7f7f7f" stroke-width="0.9" stroke-dasharray="3,2" opacity="0.5"/>
  <line x1="551.0" y1="489.9" x2="551.0" y2="554.4" stroke="#7f7f7f" stroke-width="0.9" stroke-dasharray="3,2" opacity="0.5"/>
  <line x1="210.2" y1="554.9" x2="210.2" y2="554.9" stroke="#8c564b" stroke-width="0.9" stroke-dasharray="3,2" opacity="0.5"/>
  <line x1="380.2" y1="554.4" x2="380.2" y2="554.9" stroke="#8c564b" stroke-width="0.9" stroke-dasharray="3,2" opacity="0.5"/>
  <line x1="550.1" y1="553.5" x2="550.1" y2="554.9" stroke="#8c564b" stroke-width="0.9" stroke-dasharray="3,2" opacity="0.5"/>
  <line x1="391.9" y1="306.2" x2="545.2" y2="378.0" stroke="#ff7f0e" stroke-width="2.5" stroke-dasharray="8,4"/>
  <line x1="545.2" y1="378.0" x2="716.7" y2="373.3" stroke="#ff7f0e" stroke-width="2.5" stroke-dasharray="8,4"/>
  <line x1="355.2" y1="414.7" x2="525.3" y2="416.8" stroke="#d62728" stroke-width="2.5" stroke-dasharray="8,4"/>
  <line x1="525.3" y1="416.8" x2="696.2" y2="418.6" stroke="#d62728" stroke-width="2.5" stroke-dasharray="8,4"/>
  <line x1="348.6" y1="421.8" x2="518.7" y2="418.0" stroke="#2ca02c" stroke-width="2.5" stroke-dasharray="8,4"/>
  <line x1="518.7" y1="418.0" x2="689.6" y2="422.5" stroke="#2ca02c" stroke-width="2.5" stroke-dasharray="8,4"/>
  <line x1="276.6" y1="514.2" x2="446.4" y2="515.4" stroke="#9467bd" stroke-width="2.5" stroke-dasharray="8,4"/>
  <line x1="446.4" y1="515.4" x2="616.4" y2="515.8" stroke="#9467bd" stroke-width="2.5" stroke-dasharray="8,4"/>
  <line x1="267.3" y1="245.5" x2="441.9" y2="209.3" stroke="#1f77b4" stroke-width="2.5" stroke-dasharray="8,4"/>
  <line x1="441.9" y1="209.3" x2="621.1" y2="237.8" stroke="#1f77b4" stroke-width="2.5" stroke-dasharray="8,4"/>
  <line x1="243.0" y1="488.1" x2="413.1" y2="485.1" stroke="#e377c2" stroke-width="2.5" stroke-dasharray="8,4"/>
  <line x1="413.1" y1="485.1" x2="583.8" y2="483.7" stroke="#e377c2" stroke-width="2.5" stroke-dasharray="8,4"/>
  <line x1="210.0" y1="486.4" x2="380.1" y2="485.7" stroke="#7f7f7f" stroke-width="2.5" stroke-dasharray="8,4"/>
  <line x1="380.1" y1="485.7" x2="551.0" y2="489.9" stroke="#7f7f7f" stroke-width="2.5" stroke-dasharray="8,4"/>
  <line x1="210.2" y1="554.9" x2="380.2" y2="554.4" stroke="#8c564b" stroke-width="2.5" stroke-dasharray="8,4"/>
  <line x1="380.2" y1="554.4" x2="550.1" y2="553.5" stroke="#8c564b" stroke-width="2.5" stroke-dasharray="8,4"/>
  <circle cx="391.9" cy="306.2" r="5" fill="#ff7f0e" stroke="white" stroke-width="1.5"><title>GCacheARC P100 — 599.4M ns/op, 722.2K allocs/op</title></circle>
  <text x="391.9" y="292.2" text-anchor="middle" font-family="sans-serif" font-size="9" fill="#ff7f0e" stroke="white" stroke-width="3" paint-order="stroke">599.4M ns/op</text>
  <text x="391.9" y="326.2" text-anchor="middle" font-family="sans-serif" font-size="9" fill="#ff7f0e" stroke="white" stroke-width="3" paint-order="stroke">722.2K a/op</text>
  <circle cx="545.2" cy="378.0" r="5" fill="#ff7f0e" stroke="white" stroke-width="1.5"><title>GCacheARC P1000 — 342.6M ns/op, 656.0K allocs/op</title></circle>
  <text x="545.2" y="364.0" text-anchor="middle" font-family="sans-serif" font-size="9" fill="#ff7f0e" stroke="white" stroke-width="3" paint-order="stroke">342.6M ns/op</text>
  <text x="545.2" y="398.0" text-anchor="middle" font-family="sans-serif" font-size="9" fill="#ff7f0e" stroke="white" stroke-width="3" paint-order="stroke">656.0K a/op</text>
  <circle cx="716.7" cy="373.3" r="5" fill="#ff7f0e" stroke="white" stroke-width="1.5"><title>GCacheARC P10000 — 358.5M ns/op, 662.1K allocs/op</title></circle>
  <text x="716.7" y="359.3" text-anchor="middle" font-family="sans-serif" font-size="9" fill="#ff7f0e" stroke="white" stroke-width="3" paint-order="stroke">358.5M ns/op</text>
  <text x="716.7" y="393.3" text-anchor="middle" font-family="sans-serif" font-size="9" fill="#ff7f0e" stroke="white" stroke-width="3" paint-order="stroke">662.1K a/op</text>
  <circle cx="355.2" cy="414.7" r="5" fill="#d62728" stroke="white" stroke-width="1.5"><title>GCacheLRU P100 — 238.5M ns/op, 576.8K allocs/op</title></circle>
  <text x="355.2" y="400.7" text-anchor="middle" font-family="sans-serif" font-size="9" fill="#d62728" stroke="white" stroke-width="3" paint-order="stroke">238.5M ns/op</text>
  <text x="355.2" y="434.7" text-anchor="middle" font-family="sans-serif" font-size="9" fill="#d62728" stroke="white" stroke-width="3" paint-order="stroke">576.8K a/op</text>
  <circle cx="525.3" cy="416.8" r="5" fill="#d62728" stroke="white" stroke-width="1.5"><title>GCacheLRU P1000 — 229.8M ns/op, 577.1K allocs/op</title></circle>
  <text x="525.3" y="402.8" text-anchor="middle" font-family="sans-serif" font-size="9" fill="#d62728" stroke="white" stroke-width="3" paint-order="stroke">229.8M ns/op</text>
  <text x="525.3" y="436.8" text-anchor="middle" font-family="sans-serif" font-size="9" fill="#d62728" stroke="white" stroke-width="3" paint-order="stroke">577.1K a/op</text>
  <circle cx="696.2" cy="418.6" r="5" fill="#d62728" stroke="white" stroke-width="1.5"><title>GCacheLRU P10000 — 220.4M ns/op, 580.8K allocs/op</title></circle>
  <text x="696.2" y="404.6" text-anchor="middle" font-family="sans-serif" font-size="9" fill="#d62728" stroke="white" stroke-width="3" paint-order="stroke">220.4M ns/op</text>
  <text x="696.2" y="438.6" text-anchor="middle" font-family="sans-serif" font-size="9" fill="#d62728" stroke="white" stroke-width="3" paint-order="stroke">580.8K a/op</text>
  <circle cx="348.6" cy="421.8" r="5" fill="#2ca02c" stroke="white" stroke-width="1.5"><title>GCacheLFU P100 — 225.3M ns/op, 550.6K allocs/op</title></circle>
  <text x="348.6" y="407.8" text-anchor="middle" font-family="sans-serif" font-size="9" fill="#2ca02c" stroke="white" stroke-width="3" paint-order="stroke">225.3M ns/op</text>
  <text x="348.6" y="441.8" text-anchor="middle" font-family="sans-serif" font-size="9" fill="#2ca02c" stroke="white" stroke-width="3" paint-order="stroke">550.6K a/op</text>
  <circle cx="518.7" cy="418.0" r="5" fill="#2ca02c" stroke="white" stroke-width="1.5"><title>GCacheLFU P1000 — 240.7M ns/op, 550.9K allocs/op</title></circle>
  <text x="518.7" y="404.0" text-anchor="middle" font-family="sans-serif" font-size="9" fill="#2ca02c" stroke="white" stroke-width="3" paint-order="stroke">240.7M ns/op</text>
  <text x="518.7" y="438.0" text-anchor="middle" font-family="sans-serif" font-size="9" fill="#2ca02c" stroke="white" stroke-width="3" paint-order="stroke">550.9K a/op</text>
  <circle cx="689.6" cy="422.5" r="5" fill="#2ca02c" stroke="white" stroke-width="1.5"><title>GCacheLFU P10000 — 220.0M ns/op, 554.5K allocs/op</title></circle>
  <text x="689.6" y="408.5" text-anchor="middle" font-family="sans-serif" font-size="9" fill="#2ca02c" stroke="white" stroke-width="3" paint-order="stroke">220.0M ns/op</text>
  <text x="689.6" y="442.5" text-anchor="middle" font-family="sans-serif" font-size="9" fill="#2ca02c" stroke="white" stroke-width="3" paint-order="stroke">554.5K a/op</text>
  <circle cx="276.6" cy="514.2" r="5" fill="#9467bd" stroke="white" stroke-width="1.5"><title>Gache P100 — 15.4M ns/op, 264.7K allocs/op</title></circle>
  <text x="276.6" y="500.2" text-anchor="middle" font-family="sans-serif" font-size="9" fill="#9467bd" stroke="white" stroke-width="3" paint-order="stroke">15.4M ns/op</text>
  <text x="276.6" y="534.2" text-anchor="middle" font-family="sans-serif" font-size="9" fill="#9467bd" stroke="white" stroke-width="3" paint-order="stroke">264.7K a/op</text>
  <circle cx="446.4" cy="515.4" r="5" fill="#9467bd" stroke="white" stroke-width="1.5"><title>Gache P1000 — 10.9M ns/op, 263.7K allocs/op</title></circle>
  <text x="446.4" y="501.4" text-anchor="middle" font-family="sans-serif" font-size="9" fill="#9467bd" stroke="white" stroke-width="3" paint-order="stroke">10.9M ns/op</text>
  <text x="446.4" y="535.4" text-anchor="middle" font-family="sans-serif" font-size="9" fill="#9467bd" stroke="white" stroke-width="3" paint-order="stroke">263.7K a/op</text>
  <circle cx="616.4" cy="515.8" r="5" fill="#9467bd" stroke="white" stroke-width="1.5"><title>Gache P10000 — 9.2M ns/op, 263.8K allocs/op</title></circle>
  <text x="616.4" y="501.8" text-anchor="middle" font-family="sans-serif" font-size="9" fill="#9467bd" stroke="white" stroke-width="3" paint-order="stroke">9.2M ns/op</text>
  <text x="616.4" y="535.8" text-anchor="middle" font-family="sans-serif" font-size="9" fill="#9467bd" stroke="white" stroke-width="3" paint-order="stroke">263.8K a/op</text>
  <circle cx="267.3" cy="245.5" r="5" fill="#1f77b4" stroke="white" stroke-width="1.5"><title>BigCache P100 — 1146.7M ns/op, 227.4K allocs/op</title></circle>
  <text x="267.3" y="231.5" text-anchor="middle" font-family="sans-serif" font-size="9" fill="#1f77b4" stroke="white" stroke-width="3" paint-order="stroke">1146.7M ns/op</text>
  <text x="267.3" y="265.5" text-anchor="middle" font-family="sans-serif" font-size="9" fill="#1f77b4" stroke="white" stroke-width="3" paint-order="stroke">227.4K a/op</text>
  <circle cx="441.9" cy="209.3" r="5" fill="#1f77b4" stroke="white" stroke-width="1.5"><title>BigCache P1000 — 1285.5M ns/op, 245.8K allocs/op</title></circle>
  <text x="441.9" y="195.3" text-anchor="middle" font-family="sans-serif" font-size="9" fill="#1f77b4" stroke="white" stroke-width="3" paint-order="stroke">1285.5M ns/op</text>
  <text x="441.9" y="229.3" text-anchor="middle" font-family="sans-serif" font-size="9" fill="#1f77b4" stroke="white" stroke-width="3" paint-order="stroke">245.8K a/op</text>
  <circle cx="621.1" cy="237.8" r="5" fill="#1f77b4" stroke="white" stroke-width="1.5"><title>BigCache P10000 — 1145.6M ns/op, 282.3K allocs/op</title></circle>
  <text x="621.1" y="223.8" text-anchor="middle" font-family="sans-serif" font-size="9" fill="#1f77b4" stroke="white" stroke-width="3" paint-order="stroke">1145.6M ns/op</text>
  <text x="621.1" y="257.8" text-anchor="middle" font-family="sans-serif" font-size="9" fill="#1f77b4" stroke="white" stroke-width="3" paint-order="stroke">282.3K a/op</text>
  <circle cx="243.0" cy="488.1" r="5" fill="#e377c2" stroke="white" stroke-width="1.5"><title>GoCache P100 — 203.3M ns/op, 131.2K allocs/op</title></circle>
  <text x="243.0" y="474.1" text-anchor="middle" font-family="sans-serif" font-size="9" fill="#e377c2" stroke="white" stroke-width="3" paint-order="stroke">203.3M ns/op</text>
  <text x="243.0" y="508.1" text-anchor="middle" font-family="sans-serif" font-size="9" fill="#e377c2" stroke="white" stroke-width="3" paint-order="stroke">131.2K a/op</text>
  <circle cx="413.1" cy="485.1" r="5" fill="#e377c2" stroke="white" stroke-width="1.5"><title>GoCache P1000 — 215.3M ns/op, 131.5K allocs/op</title></circle>
  <text x="413.1" y="471.1" text-anchor="middle" font-family="sans-serif" font-size="9" fill="#e377c2" stroke="white" stroke-width="3" paint-order="stroke">215.3M ns/op</text>
  <text x="413.1" y="505.1" text-anchor="middle" font-family="sans-serif" font-size="9" fill="#e377c2" stroke="white" stroke-width="3" paint-order="stroke">131.5K a/op</text>
  <circle cx="583.8" cy="483.7" r="5" fill="#e377c2" stroke="white" stroke-width="1.5"><title>GoCache P10000 — 219.4M ns/op, 134.4K allocs/op</title></circle>
  <text x="583.8" y="469.7" text-anchor="middle" font-family="sans-serif" font-size="9" fill="#e377c2" stroke="white" stroke-width="3" paint-order="stroke">219.4M ns/op</text>
  <text x="583.8" y="503.7" text-anchor="middle" font-family="sans-serif" font-size="9" fill="#e377c2" stroke="white" stroke-width="3" paint-order="stroke">134.4K a/op</text>
  <circle cx="210.0" cy="486.4" r="5" fill="#7f7f7f" stroke="white" stroke-width="1.5"><title>TTLCache P100 — 288.7M ns/op, 135 allocs/op</title></circle>
  <text x="210.0" y="472.4" text-anchor="middle" font-family="sans-serif" font-size="9" fill="#7f7f7f" stroke="white" stroke-width="3" paint-order="stroke">288.7M ns/op</text>
  <text x="210.0" y="506.4" text-anchor="middle" font-family="sans-serif" font-size="9" fill="#7f7f7f" stroke="white" stroke-width="3" paint-order="stroke">135 a/op</text>
  <circle cx="380.1" cy="485.7" r="5" fill="#7f7f7f" stroke="white" stroke-width="1.5"><title>TTLCache P1000 — 291.4M ns/op, 526 allocs/op</title></circle>
  <text x="380.1" y="471.7" text-anchor="middle" font-family="sans-serif" font-size="9" fill="#7f7f7f" stroke="white" stroke-width="3" paint-order="stroke">291.4M ns/op</text>
  <text x="380.1" y="505.7" text-anchor="middle" font-family="sans-serif" font-size="9" fill="#7f7f7f" stroke="white" stroke-width="3" paint-order="stroke">526 a/op</text>
  <circle cx="551.0" cy="489.9" r="5" fill="#7f7f7f" stroke="white" stroke-width="1.5"><title>TTLCache P10000 — 271.9M ns/op, 4.1K allocs/op</title></circle>
  <text x="551.0" y="475.9" text-anchor="middle" font-family="sans-serif" font-size="9" fill="#7f7f7f" stroke="white" stroke-width="3" paint-order="stroke">271.9M ns/op</text>
  <text x="551.0" y="509.9" text-anchor="middle" font-family="sans-serif" font-size="9" fill="#7f7f7f" stroke="white" stroke-width="3" paint-order="stroke">4.1K a/op</text>
  <circle cx="210.2" cy="554.9" r="5" fill="#8c564b" stroke="white" stroke-width="1.5"><title>GacheV2 P100 — 5.7M ns/op, 861 allocs/op</title></circle>
  <text x="210.2" y="540.9" text-anchor="middle" font-family="sans-serif" font-size="9" fill="#8c564b" stroke="white" stroke-width="3" paint-order="stroke">5.7M ns/op</text>
  <text x="210.2" y="574.9" text-anchor="middle" font-family="sans-serif" font-size="9" fill="#8c564b" stroke="white" stroke-width="3" paint-order="stroke">861 a/op</text>
  <circle cx="380.2" cy="554.4" r="5" fill="#8c564b" stroke="white" stroke-width="1.5"><title>GacheV2 P1000 — 8.0M ns/op, 849 allocs/op</title></circle>
  <text x="380.2" y="540.4" text-anchor="middle" font-family="sans-serif" font-size="9" fill="#8c564b" stroke="white" stroke-width="3" paint-order="stroke">8.0M ns/op</text>
  <text x="380.2" y="574.4" text-anchor="middle" font-family="sans-serif" font-size="9" fill="#8c564b" stroke="white" stroke-width="3" paint-order="stroke">849 a/op</text>
  <circle cx="550.1" cy="553.5" r="5" fill="#8c564b" stroke="white" stroke-width="1.5"><title>GacheV2 P10000 — 11.6M ns/op, 482 allocs/op</title></circle>
  <text x="550.1" y="539.5" text-anchor="middle" font-family="sans-serif" font-size="9" fill="#8c564b" stroke="white" stroke-width="3" paint-order="stroke">11.6M ns/op</text>
  <text x="550.1" y="573.5" text-anchor="middle" font-family="sans-serif" font-size="9" fill="#8c564b" stroke="white" stroke-width="3" paint-order="stroke">482 a/op</text>
  <text x="751" y="60" font-family="sans-serif" font-size="12" font-weight="bold">Dash style</text>
  <line x1="751" y1="76" x2="773" y2="76" stroke="#555" stroke-width="2" stroke-dasharray="8,4"/>
  <text x="779" y="76" font-family="sans-serif" font-size="11" dominant-baseline="middle">3D path</text>
  <line x1="751" y1="94" x2="773" y2="94" stroke="#555" stroke-width="1.8" stroke-dasharray="10,5"/>
  <text x="779" y="94" font-family="sans-serif" font-size="11" dominant-baseline="middle">Latency/Op (back wall)</text>
  <line x1="751" y1="112" x2="773" y2="112" stroke="#555" stroke-width="1.8" stroke-dasharray="5,4"/>
  <text x="779" y="112" font-family="sans-serif" font-size="11" dominant-baseline="middle">Alloc/Op (floor)</text>
  <text x="751" y="136" font-family="sans-serif" font-size="13" font-weight="bold">Library</text>
  <line x1="751" y1="156" x2="769" y2="156" stroke="#1f77b4" stroke-width="2.5" stroke-dasharray="8,4"/>
  <circle cx="760" cy="156" r="4" fill="#1f77b4"/>
  <text x="775" y="156" font-family="sans-serif" font-size="12" dominant-baseline="middle">BigCache</text>
  <line x1="751" y1="178" x2="769" y2="178" stroke="#ff7f0e" stroke-width="2.5" stroke-dasharray="8,4"/>
  <circle cx="760" cy="178" r="4" fill="#ff7f0e"/>
  <text x="775" y="178" font-family="sans-serif" font-size="12" dominant-baseline="middle">GCacheARC</text>
  <line x1="751" y1="200" x2="769" y2="200" stroke="#2ca02c" stroke-width="2.5" stroke-dasharray="8,4"/>
  <circle cx="760" cy="200" r="4" fill="#2ca02c"/>
  <text x="775" y="200" font-family="sans-serif" font-size="12" dominant-baseline="middle">GCacheLFU</text>
  <line x1="751" y1="222" x2="769" y2="222" stroke="#d62728" stroke-width="2.5" stroke-dasharray="8,4"/>
  <circle cx="760" cy="222" r="4" fill="#d62728"/>
  <text x="775" y="222" font-family="sans-serif" font-size="12" dominant-baseline="middle">GCacheLRU</text>
  <line x1="751" y1="244" x2="769" y2="244" stroke="#9467bd" stroke-width="2.5" stroke-dasharray="8,4"/>
  <circle cx="760" cy="244" r="4" fill="#9467bd"/>
  <text x="775" y="244" font-family="sans-serif" font-size="12" dominant-baseline="middle">Gache</text>
  <line x1="751" y1="266" x2="769" y2="266" stroke="#8c564b" stroke-width="2.5" stroke-dasharray="8,4"/>
  <circle cx="760" cy="266" r="4" fill="#8c564b"/>
  <text x="775" y="266" font-family="sans-serif" font-size="12" dominant-baseline="middle">GacheV2</text>
  <line x1="751" y1="288" x2="769" y2="288" stroke="#e377c2" stroke-width="2.5" stroke-dasharray="8,4"/>
  <circle cx="760" cy="288" r="4" fill="#e377c2"/>
  <text x="775" y="288" font-family="sans-serif" font-size="12" dominant-baseline="middle">GoCache</text>
  <line x1="751" y1="310" x2="769" y2="310" stroke="#7f7f7f" stroke-width="2.5" stroke-dasharray="8,4"/>
  <circle cx="760" cy="310" r="4" fill="#7f7f7f"/>
  <text x="775" y="310" font-family="sans-serif" font-size="12" dominant-baseline="middle">TTLCache</text>
</svg>
