<svg xmlns="http://www.w3.org/2000/svg" xmlns:xlink="http://www.w3.org/1999/xlink" width="840" height="600">\n<path  d="M 0 0
L 840 0
L 840 600
L 0 600
L 0 0" style="stroke-width:0;stroke:rgba(255,255,255,1.0);fill:rgba(255,255,255,1.0)"/><path  d="M 20 46
L 719 46
L 719 565
L 20 565
L 20 46" style="stroke-width:0;stroke:rgba(255,255,255,1.0);fill:rgba(255,255,255,1.0)"/><path  d="M 39 565
L 89 565
L 89 565
L 39 565
L 39 565" style="stroke-width:3;stroke:rgba(106,195,203,1.0);fill:rgba(106,195,203,1.0)"/><path  d="M 127 559
L 177 559
L 177 565
L 127 565
L 127 559" style="stroke-width:3;stroke:rgba(42,190,137,1.0);fill:rgba(42,190,137,1.0)"/><path  d="M 215 486
L 265 486
L 265 565
L 215 565
L 215 486" style="stroke-width:3;stroke:rgba(110,128,139,1.0);fill:rgba(110,128,139,1.0)"/><path  d="M 303 476
L 353 476
L 353 565
L 303 565
L 303 476" style="stroke-width:3;stroke:rgba(240,174,90,1.0);fill:rgba(240,174,90,1.0)"/><path  d="M 391 469
L 441 469
L 441 565
L 391 565
L 391 469" style="stroke-width:3;stroke:rgba(0,116,217,1.0);fill:rgba(0,116,217,1.0)"/><path  d="M 479 454
L 529 454
L 529 565
L 479 565
L 479 454" style="stroke-width:3;stroke:rgba(0,217,101,1.0);fill:rgba(0,217,101,1.0)"/><path  d="M 567 331
L 617 331
L 617 565
L 567 565
L 567 331" style="stroke-width:3;stroke:rgba(217,0,116,1.0);fill:rgba(217,0,116,1.0)"/><path  d="M 655 46
L 705 46
L 705 565
L 655 565
L 655 46" style="stroke-width:3;stroke:rgba(0,217,210,1.0);fill:rgba(0,217,210,1.0)"/><path  d="M 20 565
L 719 565" style="stroke-width:0;stroke:rgba(51,51,51,1.0);fill:none"/><path  d="M 20 565
L 20 570" style="stroke-width:0;stroke:rgba(51,51,51,1.0);fill:none"/><text x="38" y="587" style="stroke-width:0;stroke:none;fill:rgba(51,51,51,1.0);font-size:12.8px;font-family:'Roboto Medium',sans-serif">GacheV2</text><path  d="M 108 565
L 108 570" style="stroke-width:0;stroke:rgba(51,51,51,1.0);fill:none"/><text x="133" y="587" style="stroke-width:0;stroke:none;fill:rgba(51,51,51,1.0);font-size:12.8px;font-family:'Roboto Medium',sans-serif">Gache</text><path  d="M 196 565
L 196 570" style="stroke-width:0;stroke:rgba(51,51,51,1.0);fill:none"/><text x="214" y="587" style="stroke-width:0;stroke:none;fill:rgba(51,51,51,1.0);font-size:12.8px;font-family:'Roboto Medium',sans-serif">GoCache</text><path  d="M 284 565
L 284 570" style="stroke-width:0;stroke:rgba(51,51,51,1.0);fill:none"/><text x="294" y="587" style="stroke-width:0;stroke:none;fill:rgba(51,51,51,1.0);font-size:12.8px;font-family:'Roboto Medium',sans-serif">GCacheLRU</text><path  d="M 372 565
L 372 570" style="stroke-width:0;stroke:rgba(51,51,51,1.0);fill:none"/><text x="382" y="587" style="stroke-width:0;stroke:none;fill:rgba(51,51,51,1.0);font-size:12.8px;font-family:'Roboto Medium',sans-serif">GCacheLFU</text><path  d="M 460 565
L 460 570" style="stroke-width:0;stroke:rgba(51,51,51,1.0);fill:none"/><text x="474" y="587" style="stroke-width:0;stroke:none;fill:rgba(51,51,51,1.0);font-size:12.8px;font-family:'Roboto Medium',sans-serif">TTLCache</text><path  d="M 548 565
L 548 570" style="stroke-width:0;stroke:rgba(51,51,51,1.0);fill:none"/><text x="557" y="587" style="stroke-width:0;stroke:none;fill:rgba(51,51,51,1.0);font-size:12.8px;font-family:'Roboto Medium',sans-serif">GCacheARC</text><path  d="M 636 565
L 636 570" style="stroke-width:0;stroke:rgba(51,51,51,1.0);fill:none"/><text x="652" y="587" style="stroke-width:0;stroke:none;fill:rgba(51,51,51,1.0);font-size:12.8px;font-family:'Roboto Medium',sans-serif">BigCache</text><path  d="M 719 565
L 719 46" style="stroke-width:0;stroke:rgba(51,51,51,1.0);fill:none"/><path  d="M 719 565
L 724 565" style="stroke-width:0;stroke:rgba(51,51,51,1.0);fill:none"/><text x="729" y="571" style="stroke-width:0;stroke:none;fill:rgba(51,51,51,1.0);font-size:12.8px;font-family:'Roboto Medium',sans-serif">10517910.00</text><path  d="M 719 525
L 724 525" style="stroke-width:0;stroke:rgba(51,51,51,1.0);fill:none"/><text x="729" y="531" style="stroke-width:0;stroke:none;fill:rgba(51,51,51,1.0);font-size:12.8px;font-family:'Roboto Medium',sans-serif">110517910.00</text><path  d="M 719 489
L 724 489" style="stroke-width:0;stroke:rgba(51,51,51,1.0);fill:none"/><text x="729" y="495" style="stroke-width:0;stroke:none;fill:rgba(51,51,51,1.0);font-size:12.8px;font-family:'Roboto Medium',sans-serif">200517910.00</text><path  d="M 719 453
L 724 453" style="stroke-width:0;stroke:rgba(51,51,51,1.0);fill:none"/><text x="729" y="459" style="stroke-width:0;stroke:none;fill:rgba(51,51,51,1.0);font-size:12.8px;font-family:'Roboto Medium',sans-serif">290517910.00</text><path  d="M 719 413
L 724 413" style="stroke-width:0;stroke:rgba(51,51,51,1.0);fill:none"/><text x="729" y="419" style="stroke-width:0;stroke:none;fill:rgba(51,51,51,1.0);font-size:12.8px;font-family:'Roboto Medium',sans-serif">390517910.00</text><path  d="M 719 378
L 724 378" style="stroke-width:0;stroke:rgba(51,51,51,1.0);fill:none"/><text x="729" y="384" style="stroke-width:0;stroke:none;fill:rgba(51,51,51,1.0);font-size:12.8px;font-family:'Roboto Medium',sans-serif">480517910.00</text><path  d="M 719 342
L 724 342" style="stroke-width:0;stroke:rgba(51,51,51,1.0);fill:none"/><text x="729" y="348" style="stroke-width:0;stroke:none;fill:rgba(51,51,51,1.0);font-size:12.8px;font-family:'Roboto Medium',sans-serif">570517910.00</text><path  d="M 719 302
L 724 302" style="stroke-width:0;stroke:rgba(51,51,51,1.0);fill:none"/><text x="729" y="308" style="stroke-width:0;stroke:none;fill:rgba(51,51,51,1.0);font-size:12.8px;font-family:'Roboto Medium',sans-serif">670517910.00</text><path  d="M 719 266
L 724 266" style="stroke-width:0;stroke:rgba(51,51,51,1.0);fill:none"/><text x="729" y="272" style="stroke-width:0;stroke:none;fill:rgba(51,51,51,1.0);font-size:12.8px;font-family:'Roboto Medium',sans-serif">760517910.00</text><path  d="M 719 230
L 724 230" style="stroke-width:0;stroke:rgba(51,51,51,1.0);fill:none"/><text x="729" y="236" style="stroke-width:0;stroke:none;fill:rgba(51,51,51,1.0);font-size:12.8px;font-family:'Roboto Medium',sans-serif">850517910.00</text><path  d="M 719 191
L 724 191" style="stroke-width:0;stroke:rgba(51,51,51,1.0);fill:none"/><text x="729" y="197" style="stroke-width:0;stroke:none;fill:rgba(51,51,51,1.0);font-size:12.8px;font-family:'Roboto Medium',sans-serif">950517910.00</text><path  d="M 719 155
L 724 155" style="stroke-width:0;stroke:rgba(51,51,51,1.0);fill:none"/><text x="729" y="161" style="stroke-width:0;stroke:none;fill:rgba(51,51,51,1.0);font-size:12.8px;font-family:'Roboto Medium',sans-serif">1040517910.00</text><path  d="M 719 119
L 724 119" style="stroke-width:0;stroke:rgba(51,51,51,1.0);fill:none"/><text x="729" y="125" style="stroke-width:0;stroke:none;fill:rgba(51,51,51,1.0);font-size:12.8px;font-family:'Roboto Medium',sans-serif">1130517910.00</text><path  d="M 719 79
L 724 79" style="stroke-width:0;stroke:rgba(51,51,51,1.0);fill:none"/><text x="729" y="85" style="stroke-width:0;stroke:none;fill:rgba(51,51,51,1.0);font-size:12.8px;font-family:'Roboto Medium',sans-serif">1230517910.00</text><path  d="M 719 46
L 724 46" style="stroke-width:0;stroke:rgba(51,51,51,1.0);fill:none"/><text x="729" y="52" style="stroke-width:0;stroke:none;fill:rgba(51,51,51,1.0);font-size:12.8px;font-family:'Roboto Medium',sans-serif">1315226054.00</text><path  d="M 20 569
L 719 569" style="stroke-width:0;stroke:none;fill:none"/><path  d="M 20 525
L 719 525" style="stroke-width:0;stroke:none;fill:none"/><path  d="M 20 489
L 719 489" style="stroke-width:0;stroke:none;fill:none"/><path  d="M 20 453
L 719 453" style="stroke-width:0;stroke:none;fill:none"/><path  d="M 20 413
L 719 413" style="stroke-width:0;stroke:none;fill:none"/><path  d="M 20 378
L 719 378" style="stroke-width:0;stroke:none;fill:none"/><path  d="M 20 342
L 719 342" style="stroke-width:0;stroke:none;fill:none"/><path  d="M 20 302
L 719 302" style="stroke-width:0;stroke:none;fill:none"/><path  d="M 20 266
L 719 266" style="stroke-width:0;stroke:none;fill:none"/><path  d="M 20 230
L 719 230" style="stroke-width:0;stroke:none;fill:none"/><path  d="M 20 191
L 719 191" style="stroke-width:0;stroke:none;fill:none"/><path  d="M 20 155
L 719 155" style="stroke-width:0;stroke:none;fill:none"/><path  d="M 20 119
L 719 119" style="stroke-width:0;stroke:none;fill:none"/><path  d="M 20 79
L 719 79" style="stroke-width:0;stroke:none;fill:none"/><text x="248" y="33" style="stroke-width:0;stroke:none;fill:rgba(51,51,51,1.0);font-size:23.0px;font-family:'Roboto Medium',sans-serif">BigData WithTTL P100 - NsPerOp</text></svg>