<svg xmlns="http://www.w3.org/2000/svg" xmlns:xlink="http://www.w3.org/1999/xlink" width="1000" height="600">\n<path  d="M 0 0
L 1000 0
L 1000 600
L 0 600
L 0 0" style="stroke-width:0;stroke:rgba(255,255,255,1.0);fill:rgba(255,255,255,1.0)"/><path  d="M 20 46
L 879 46
L 879 565
L 20 565
L 20 46" style="stroke-width:0;stroke:rgba(255,255,255,1.0);fill:rgba(255,255,255,1.0)"/><path  d="M 38 565
L 88 565
L 88 565
L 38 565
L 38 565" style="stroke-width:3;stroke:rgba(106,195,203,1.0);fill:rgba(106,195,203,1.0)"/><path  d="M 124 563
L 174 563
L 174 565
L 124 565
L 124 563" style="stroke-width:3;stroke:rgba(42,190,137,1.0);fill:rgba(42,190,137,1.0)"/><path  d="M 210 562
L 260 562
L 260 565
L 210 565
L 210 562" style="stroke-width:3;stroke:rgba(110,128,139,1.0);fill:rgba(110,128,139,1.0)"/><path  d="M 296 562
L 346 562
L 346 565
L 296 565
L 296 562" style="stroke-width:3;stroke:rgba(240,174,90,1.0);fill:rgba(240,174,90,1.0)"/><path  d="M 382 561
L 432 561
L 432 565
L 382 565
L 382 561" style="stroke-width:3;stroke:rgba(0,116,217,1.0);fill:rgba(0,116,217,1.0)"/><path  d="M 468 560
L 518 560
L 518 565
L 468 565
L 468 560" style="stroke-width:3;stroke:rgba(0,217,101,1.0);fill:rgba(0,217,101,1.0)"/><path  d="M 554 559
L 604 559
L 604 565
L 554 565
L 554 559" style="stroke-width:3;stroke:rgba(217,0,116,1.0);fill:rgba(217,0,116,1.0)"/><path  d="M 640 559
L 690 559
L 690 565
L 640 565
L 640 559" style="stroke-width:3;stroke:rgba(0,217,210,1.0);fill:rgba(0,217,210,1.0)"/><path  d="M 726 555
L 776 555
L 776 565
L 726 565
L 726 555" style="stroke-width:3;stroke:rgba(217,101,0,1.0);fill:rgba(217,101,0,1.0)"/><path  d="M 812 46
L 862 46
L 862 565
L 812 565
L 812 46" style="stroke-width:3;stroke:rgba(106,195,203,1.0);fill:rgba(106,195,203,1.0)"/><path  d="M 20 565
L 879 565" style="stroke-width:0;stroke:rgba(51,51,51,1.0);fill:none"/><path  d="M 20 565
L 20 570" style="stroke-width:0;stroke:rgba(51,51,51,1.0);fill:none"/><text x="37" y="587" style="stroke-width:0;stroke:none;fill:rgba(51,51,51,1.0);font-size:12.8px;font-family:'Roboto Medium',sans-serif">GacheV2</text><path  d="M 106 565
L 106 570" style="stroke-width:0;stroke:rgba(51,51,51,1.0);fill:none"/><text x="130" y="587" style="stroke-width:0;stroke:none;fill:rgba(51,51,51,1.0);font-size:12.8px;font-family:'Roboto Medium',sans-serif">Gache</text><path  d="M 192 565
L 192 570" style="stroke-width:0;stroke:rgba(51,51,51,1.0);fill:none"/><text x="208" y="587" style="stroke-width:0;stroke:none;fill:rgba(51,51,51,1.0);font-size:12.8px;font-family:'Roboto Medium',sans-serif">SyncMap</text><path  d="M 278 565
L 278 570" style="stroke-width:0;stroke:rgba(51,51,51,1.0);fill:none"/><text x="295" y="587" style="stroke-width:0;stroke:none;fill:rgba(51,51,51,1.0);font-size:12.8px;font-family:'Roboto Medium',sans-serif">GoCache</text><path  d="M 364 565
L 364 570" style="stroke-width:0;stroke:rgba(51,51,51,1.0);fill:none"/><text x="377" y="587" style="stroke-width:0;stroke:none;fill:rgba(51,51,51,1.0);font-size:12.8px;font-family:'Roboto Medium',sans-serif">TTLCache</text><path  d="M 450 565
L 450 570" style="stroke-width:0;stroke:rgba(51,51,51,1.0);fill:none"/><text x="459" y="587" style="stroke-width:0;stroke:none;fill:rgba(51,51,51,1.0);font-size:12.8px;font-family:'Roboto Medium',sans-serif">DefaultMap</text><path  d="M 536 565
L 536 570" style="stroke-width:0;stroke:rgba(51,51,51,1.0);fill:none"/><text x="545" y="587" style="stroke-width:0;stroke:none;fill:rgba(51,51,51,1.0);font-size:12.8px;font-family:'Roboto Medium',sans-serif">GCacheLFU</text><path  d="M 622 565
L 622 570" style="stroke-width:0;stroke:rgba(51,51,51,1.0);fill:none"/><text x="631" y="587" style="stroke-width:0;stroke:none;fill:rgba(51,51,51,1.0);font-size:12.8px;font-family:'Roboto Medium',sans-serif">GCacheLRU</text><path  d="M 708 565
L 708 570" style="stroke-width:0;stroke:rgba(51,51,51,1.0);fill:none"/><text x="716" y="587" style="stroke-width:0;stroke:none;fill:rgba(51,51,51,1.0);font-size:12.8px;font-family:'Roboto Medium',sans-serif">GCacheARC</text><path  d="M 794 565
L 794 570" style="stroke-width:0;stroke:rgba(51,51,51,1.0);fill:none"/><text x="809" y="587" style="stroke-width:0;stroke:none;fill:rgba(51,51,51,1.0);font-size:12.8px;font-family:'Roboto Medium',sans-serif">BigCache</text><path  d="M 879 565
L 879 46" style="stroke-width:0;stroke:rgba(51,51,51,1.0);fill:none"/><path  d="M 879 565
L 884 565" style="stroke-width:0;stroke:rgba(51,51,51,1.0);fill:none"/><text x="889" y="571" style="stroke-width:0;stroke:none;fill:rgba(51,51,51,1.0);font-size:12.8px;font-family:'Roboto Medium',sans-serif">922887.00</text><path  d="M 879 527
L 884 527" style="stroke-width:0;stroke:rgba(51,51,51,1.0);fill:none"/><text x="889" y="533" style="stroke-width:0;stroke:none;fill:rgba(51,51,51,1.0);font-size:12.8px;font-family:'Roboto Medium',sans-serif">200922887.00</text><path  d="M 879 490
L 884 490" style="stroke-width:0;stroke:rgba(51,51,51,1.0);fill:none"/><text x="889" y="496" style="stroke-width:0;stroke:none;fill:rgba(51,51,51,1.0);font-size:12.8px;font-family:'Roboto Medium',sans-serif">400922887.00</text><path  d="M 879 453
L 884 453" style="stroke-width:0;stroke:rgba(51,51,51,1.0);fill:none"/><text x="889" y="459" style="stroke-width:0;stroke:none;fill:rgba(51,51,51,1.0);font-size:12.8px;font-family:'Roboto Medium',sans-serif">600922887.00</text><path  d="M 879 416
L 884 416" style="stroke-width:0;stroke:rgba(51,51,51,1.0);fill:none"/><text x="889" y="422" style="stroke-width:0;stroke:none;fill:rgba(51,51,51,1.0);font-size:12.8px;font-family:'Roboto Medium',sans-serif">800922887.00</text><path  d="M 879 378
L 884 378" style="stroke-width:0;stroke:rgba(51,51,51,1.0);fill:none"/><text x="889" y="384" style="stroke-width:0;stroke:none;fill:rgba(51,51,51,1.0);font-size:12.8px;font-family:'Roboto Medium',sans-serif">1000922887.00</text><path  d="M 879 341
L 884 341" style="stroke-width:0;stroke:rgba(51,51,51,1.0);fill:none"/><text x="889" y="347" style="stroke-width:0;stroke:none;fill:rgba(51,51,51,1.0);font-size:12.8px;font-family:'Roboto Medium',sans-serif">1200922887.00</text><path  d="M 879 304
L 884 304" style="stroke-width:0;stroke:rgba(51,51,51,1.0);fill:none"/><text x="889" y="310" style="stroke-width:0;stroke:none;fill:rgba(51,51,51,1.0);font-size:12.8px;font-family:'Roboto Medium',sans-serif">1400922887.00</text><path  d="M 879 267
L 884 267" style="stroke-width:0;stroke:rgba(51,51,51,1.0);fill:none"/><text x="889" y="273" style="stroke-width:0;stroke:none;fill:rgba(51,51,51,1.0);font-size:12.8px;font-family:'Roboto Medium',sans-serif">1600922887.00</text><path  d="M 879 230
L 884 230" style="stroke-width:0;stroke:rgba(51,51,51,1.0);fill:none"/><text x="889" y="236" style="stroke-width:0;stroke:none;fill:rgba(51,51,51,1.0);font-size:12.8px;font-family:'Roboto Medium',sans-serif">1800922887.00</text><path  d="M 879 192
L 884 192" style="stroke-width:0;stroke:rgba(51,51,51,1.0);fill:none"/><text x="889" y="198" style="stroke-width:0;stroke:none;fill:rgba(51,51,51,1.0);font-size:12.8px;font-family:'Roboto Medium',sans-serif">2000922887.00</text><path  d="M 879 155
L 884 155" style="stroke-width:0;stroke:rgba(51,51,51,1.0);fill:none"/><text x="889" y="161" style="stroke-width:0;stroke:none;fill:rgba(51,51,51,1.0);font-size:12.8px;font-family:'Roboto Medium',sans-serif">2200922887.00</text><path  d="M 879 118
L 884 118" style="stroke-width:0;stroke:rgba(51,51,51,1.0);fill:none"/><text x="889" y="124" style="stroke-width:0;stroke:none;fill:rgba(51,51,51,1.0);font-size:12.8px;font-family:'Roboto Medium',sans-serif">2400922887.00</text><path  d="M 879 83
L 884 83" style="stroke-width:0;stroke:rgba(51,51,51,1.0);fill:none"/><text x="889" y="89" style="stroke-width:0;stroke:none;fill:rgba(51,51,51,1.0);font-size:12.8px;font-family:'Roboto Medium',sans-serif">2590922887.00</text><path  d="M 879 46
L 884 46" style="stroke-width:0;stroke:rgba(51,51,51,1.0);fill:none"/><text x="889" y="52" style="stroke-width:0;stroke:none;fill:rgba(51,51,51,1.0);font-size:12.8px;font-family:'Roboto Medium',sans-serif">2790072184.00</text><path  d="M 20 565
L 879 565" style="stroke-width:0;stroke:none;fill:none"/><path  d="M 20 527
L 879 527" style="stroke-width:0;stroke:none;fill:none"/><path  d="M 20 490
L 879 490" style="stroke-width:0;stroke:none;fill:none"/><path  d="M 20 453
L 879 453" style="stroke-width:0;stroke:none;fill:none"/><path  d="M 20 416
L 879 416" style="stroke-width:0;stroke:none;fill:none"/><path  d="M 20 378
L 879 378" style="stroke-width:0;stroke:none;fill:none"/><path  d="M 20 341
L 879 341" style="stroke-width:0;stroke:none;fill:none"/><path  d="M 20 304
L 879 304" style="stroke-width:0;stroke:none;fill:none"/><path  d="M 20 267
L 879 267" style="stroke-width:0;stroke:none;fill:none"/><path  d="M 20 230
L 879 230" style="stroke-width:0;stroke:none;fill:none"/><path  d="M 20 192
L 879 192" style="stroke-width:0;stroke:none;fill:none"/><path  d="M 20 155
L 879 155" style="stroke-width:0;stroke:none;fill:none"/><path  d="M 20 118
L 879 118" style="stroke-width:0;stroke:none;fill:none"/><path  d="M 20 83
L 879 83" style="stroke-width:0;stroke:none;fill:none"/><text x="308" y="33" style="stroke-width:0;stroke:none;fill:rgba(51,51,51,1.0);font-size:23.0px;font-family:'Roboto Medium',sans-serif">BigData NoTTL P10000 - BytesPerOp</text></svg>