<svg xmlns="http://www.w3.org/2000/svg" xmlns:xlink="http://www.w3.org/1999/xlink" width="840" height="600">\n<path  d="M 0 0
L 840 0
L 840 600
L 0 600
L 0 0" style="stroke-width:0;stroke:rgba(255,255,255,1.0);fill:rgba(255,255,255,1.0)"/><path  d="M 20 46
L 719 46
L 719 565
L 20 565
L 20 46" style="stroke-width:0;stroke:rgba(255,255,255,1.0);fill:rgba(255,255,255,1.0)"/><path  d="M 39 565
L 89 565
L 89 565
L 39 565
L 39 565" style="stroke-width:3;stroke:rgba(106,195,203,1.0);fill:rgba(106,195,203,1.0)"/><path  d="M 127 564
L 177 564
L 177 565
L 127 565
L 127 564" style="stroke-width:3;stroke:rgba(42,190,137,1.0);fill:rgba(42,190,137,1.0)"/><path  d="M 215 564
L 265 564
L 265 565
L 215 565
L 215 564" style="stroke-width:3;stroke:rgba(110,128,139,1.0);fill:rgba(110,128,139,1.0)"/><path  d="M 303 562
L 353 562
L 353 565
L 303 565
L 303 562" style="stroke-width:3;stroke:rgba(240,174,90,1.0);fill:rgba(240,174,90,1.0)"/><path  d="M 391 560
L 441 560
L 441 565
L 391 565
L 391 560" style="stroke-width:3;stroke:rgba(0,116,217,1.0);fill:rgba(0,116,217,1.0)"/><path  d="M 479 559
L 529 559
L 529 565
L 479 565
L 479 559" style="stroke-width:3;stroke:rgba(0,217,101,1.0);fill:rgba(0,217,101,1.0)"/><path  d="M 567 550
L 617 550
L 617 565
L 567 565
L 567 550" style="stroke-width:3;stroke:rgba(217,0,116,1.0);fill:rgba(217,0,116,1.0)"/><path  d="M 655 46
L 705 46
L 705 565
L 655 565
L 655 46" style="stroke-width:3;stroke:rgba(0,217,210,1.0);fill:rgba(0,217,210,1.0)"/><path  d="M 20 565
L 719 565" style="stroke-width:0;stroke:rgba(51,51,51,1.0);fill:none"/><path  d="M 20 565
L 20 570" style="stroke-width:0;stroke:rgba(51,51,51,1.0);fill:none"/><text x="38" y="587" style="stroke-width:0;stroke:none;fill:rgba(51,51,51,1.0);font-size:12.8px;font-family:'Roboto Medium',sans-serif">GacheV2</text><path  d="M 108 565
L 108 570" style="stroke-width:0;stroke:rgba(51,51,51,1.0);fill:none"/><text x="122" y="587" style="stroke-width:0;stroke:none;fill:rgba(51,51,51,1.0);font-size:12.8px;font-family:'Roboto Medium',sans-serif">TTLCache</text><path  d="M 196 565
L 196 570" style="stroke-width:0;stroke:rgba(51,51,51,1.0);fill:none"/><text x="214" y="587" style="stroke-width:0;stroke:none;fill:rgba(51,51,51,1.0);font-size:12.8px;font-family:'Roboto Medium',sans-serif">GoCache</text><path  d="M 284 565
L 284 570" style="stroke-width:0;stroke:rgba(51,51,51,1.0);fill:none"/><text x="309" y="587" style="stroke-width:0;stroke:none;fill:rgba(51,51,51,1.0);font-size:12.8px;font-family:'Roboto Medium',sans-serif">Gache</text><path  d="M 372 565
L 372 570" style="stroke-width:0;stroke:rgba(51,51,51,1.0);fill:none"/><text x="382" y="587" style="stroke-width:0;stroke:none;fill:rgba(51,51,51,1.0);font-size:12.8px;font-family:'Roboto Medium',sans-serif">GCacheLFU</text><path  d="M 460 565
L 460 570" style="stroke-width:0;stroke:rgba(51,51,51,1.0);fill:none"/><text x="470" y="587" style="stroke-width:0;stroke:none;fill:rgba(51,51,51,1.0);font-size:12.8px;font-family:'Roboto Medium',sans-serif">GCacheLRU</text><path  d="M 548 565
L 548 570" style="stroke-width:0;stroke:rgba(51,51,51,1.0);fill:none"/><text x="557" y="587" style="stroke-width:0;stroke:none;fill:rgba(51,51,51,1.0);font-size:12.8px;font-family:'Roboto Medium',sans-serif">GCacheARC</text><path  d="M 636 565
L 636 570" style="stroke-width:0;stroke:rgba(51,51,51,1.0);fill:none"/><text x="652" y="587" style="stroke-width:0;stroke:none;fill:rgba(51,51,51,1.0);font-size:12.8px;font-family:'Roboto Medium',sans-serif">BigCache</text><path  d="M 719 565
L 719 46" style="stroke-width:0;stroke:rgba(51,51,51,1.0);fill:none"/><path  d="M 719 565
L 724 565" style="stroke-width:0;stroke:rgba(51,51,51,1.0);fill:none"/><text x="729" y="571" style="stroke-width:0;stroke:none;fill:rgba(51,51,51,1.0);font-size:12.8px;font-family:'Roboto Medium',sans-serif">71942.00</text><path  d="M 719 524
L 724 524" style="stroke-width:0;stroke:rgba(51,51,51,1.0);fill:none"/><text x="729" y="530" style="stroke-width:0;stroke:none;fill:rgba(51,51,51,1.0);font-size:12.8px;font-family:'Roboto Medium',sans-serif">100071942.00</text><path  d="M 719 487
L 724 487" style="stroke-width:0;stroke:rgba(51,51,51,1.0);fill:none"/><text x="729" y="493" style="stroke-width:0;stroke:none;fill:rgba(51,51,51,1.0);font-size:12.8px;font-family:'Roboto Medium',sans-serif">190071942.00</text><path  d="M 719 450
L 724 450" style="stroke-width:0;stroke:rgba(51,51,51,1.0);fill:none"/><text x="729" y="456" style="stroke-width:0;stroke:none;fill:rgba(51,51,51,1.0);font-size:12.8px;font-family:'Roboto Medium',sans-serif">280071942.00</text><path  d="M 719 413
L 724 413" style="stroke-width:0;stroke:rgba(51,51,51,1.0);fill:none"/><text x="729" y="419" style="stroke-width:0;stroke:none;fill:rgba(51,51,51,1.0);font-size:12.8px;font-family:'Roboto Medium',sans-serif">370071942.00</text><path  d="M 719 377
L 724 377" style="stroke-width:0;stroke:rgba(51,51,51,1.0);fill:none"/><text x="729" y="383" style="stroke-width:0;stroke:none;fill:rgba(51,51,51,1.0);font-size:12.8px;font-family:'Roboto Medium',sans-serif">460071942.00</text><path  d="M 719 340
L 724 340" style="stroke-width:0;stroke:rgba(51,51,51,1.0);fill:none"/><text x="729" y="346" style="stroke-width:0;stroke:none;fill:rgba(51,51,51,1.0);font-size:12.8px;font-family:'Roboto Medium',sans-serif">550071942.00</text><path  d="M 719 303
L 724 303" style="stroke-width:0;stroke:rgba(51,51,51,1.0);fill:none"/><text x="729" y="309" style="stroke-width:0;stroke:none;fill:rgba(51,51,51,1.0);font-size:12.8px;font-family:'Roboto Medium',sans-serif">640071942.00</text><path  d="M 719 266
L 724 266" style="stroke-width:0;stroke:rgba(51,51,51,1.0);fill:none"/><text x="729" y="272" style="stroke-width:0;stroke:none;fill:rgba(51,51,51,1.0);font-size:12.8px;font-family:'Roboto Medium',sans-serif">730071942.00</text><path  d="M 719 230
L 724 230" style="stroke-width:0;stroke:rgba(51,51,51,1.0);fill:none"/><text x="729" y="236" style="stroke-width:0;stroke:none;fill:rgba(51,51,51,1.0);font-size:12.8px;font-family:'Roboto Medium',sans-serif">820071942.00</text><path  d="M 719 193
L 724 193" style="stroke-width:0;stroke:rgba(51,51,51,1.0);fill:none"/><text x="729" y="199" style="stroke-width:0;stroke:none;fill:rgba(51,51,51,1.0);font-size:12.8px;font-family:'Roboto Medium',sans-serif">910071942.00</text><path  d="M 719 156
L 724 156" style="stroke-width:0;stroke:rgba(51,51,51,1.0);fill:none"/><text x="729" y="162" style="stroke-width:0;stroke:none;fill:rgba(51,51,51,1.0);font-size:12.8px;font-family:'Roboto Medium',sans-serif">1000071942.00</text><path  d="M 719 119
L 724 119" style="stroke-width:0;stroke:rgba(51,51,51,1.0);fill:none"/><text x="729" y="125" style="stroke-width:0;stroke:none;fill:rgba(51,51,51,1.0);font-size:12.8px;font-family:'Roboto Medium',sans-serif">1090071942.00</text><path  d="M 719 79
L 724 79" style="stroke-width:0;stroke:rgba(51,51,51,1.0);fill:none"/><text x="729" y="85" style="stroke-width:0;stroke:none;fill:rgba(51,51,51,1.0);font-size:12.8px;font-family:'Roboto Medium',sans-serif">1190071942.00</text><path  d="M 719 46
L 724 46" style="stroke-width:0;stroke:rgba(51,51,51,1.0);fill:none"/><text x="729" y="52" style="stroke-width:0;stroke:none;fill:rgba(51,51,51,1.0);font-size:12.8px;font-family:'Roboto Medium',sans-serif">1271036280.00</text><path  d="M 20 565
L 719 565" style="stroke-width:0;stroke:none;fill:none"/><path  d="M 20 524
L 719 524" style="stroke-width:0;stroke:none;fill:none"/><path  d="M 20 487
L 719 487" style="stroke-width:0;stroke:none;fill:none"/><path  d="M 20 450
L 719 450" style="stroke-width:0;stroke:none;fill:none"/><path  d="M 20 413
L 719 413" style="stroke-width:0;stroke:none;fill:none"/><path  d="M 20 377
L 719 377" style="stroke-width:0;stroke:none;fill:none"/><path  d="M 20 340
L 719 340" style="stroke-width:0;stroke:none;fill:none"/><path  d="M 20 303
L 719 303" style="stroke-width:0;stroke:none;fill:none"/><path  d="M 20 266
L 719 266" style="stroke-width:0;stroke:none;fill:none"/><path  d="M 20 230
L 719 230" style="stroke-width:0;stroke:none;fill:none"/><path  d="M 20 193
L 719 193" style="stroke-width:0;stroke:none;fill:none"/><path  d="M 20 156
L 719 156" style="stroke-width:0;stroke:none;fill:none"/><path  d="M 20 119
L 719 119" style="stroke-width:0;stroke:none;fill:none"/><path  d="M 20 79
L 719 79" style="stroke-width:0;stroke:none;fill:none"/><text x="233" y="33" style="stroke-width:0;stroke:none;fill:rgba(51,51,51,1.0);font-size:23.0px;font-family:'Roboto Medium',sans-serif">BigData WithTTL P100 - BytesPerOp</text></svg>