<svg xmlns="http://www.w3.org/2000/svg" xmlns:xlink="http://www.w3.org/1999/xlink" width="1000" height="600">\n<path  d="M 0 0
L 1000 0
L 1000 600
L 0 600
L 0 0" style="stroke-width:0;stroke:rgba(255,255,255,1.0);fill:rgba(255,255,255,1.0)"/><path  d="M 20 46
L 879 46
L 879 565
L 20 565
L 20 46" style="stroke-width:0;stroke:rgba(255,255,255,1.0);fill:rgba(255,255,255,1.0)"/><path  d="M 38 565
L 88 565
L 88 565
L 38 565
L 38 565" style="stroke-width:3;stroke:rgba(106,195,203,1.0);fill:rgba(106,195,203,1.0)"/><path  d="M 124 564
L 174 564
L 174 565
L 124 565
L 124 564" style="stroke-width:3;stroke:rgba(42,190,137,1.0);fill:rgba(42,190,137,1.0)"/><path  d="M 210 564
L 260 564
L 260 565
L 210 565
L 210 564" style="stroke-width:3;stroke:rgba(110,128,139,1.0);fill:rgba(110,128,139,1.0)"/><path  d="M 296 513
L 346 513
L 346 565
L 296 565
L 296 513" style="stroke-width:3;stroke:rgba(240,174,90,1.0);fill:rgba(240,174,90,1.0)"/><path  d="M 382 500
L 432 500
L 432 565
L 382 565
L 382 500" style="stroke-width:3;stroke:rgba(0,116,217,1.0);fill:rgba(0,116,217,1.0)"/><path  d="M 468 498
L 518 498
L 518 565
L 468 565
L 468 498" style="stroke-width:3;stroke:rgba(0,217,101,1.0);fill:rgba(0,217,101,1.0)"/><path  d="M 554 496
L 604 496
L 604 565
L 554 565
L 554 496" style="stroke-width:3;stroke:rgba(217,0,116,1.0);fill:rgba(217,0,116,1.0)"/><path  d="M 640 492
L 690 492
L 690 565
L 640 565
L 640 492" style="stroke-width:3;stroke:rgba(0,217,210,1.0);fill:rgba(0,217,210,1.0)"/><path  d="M 726 452
L 776 452
L 776 565
L 726 565
L 726 452" style="stroke-width:3;stroke:rgba(217,101,0,1.0);fill:rgba(217,101,0,1.0)"/><path  d="M 812 46
L 862 46
L 862 565
L 812 565
L 812 46" style="stroke-width:3;stroke:rgba(106,195,203,1.0);fill:rgba(106,195,203,1.0)"/><path  d="M 20 565
L 879 565" style="stroke-width:0;stroke:rgba(51,51,51,1.0);fill:none"/><path  d="M 20 565
L 20 570" style="stroke-width:0;stroke:rgba(51,51,51,1.0);fill:none"/><text x="44" y="587" style="stroke-width:0;stroke:none;fill:rgba(51,51,51,1.0);font-size:12.8px;font-family:'Roboto Medium',sans-serif">Gache</text><path  d="M 106 565
L 106 570" style="stroke-width:0;stroke:rgba(51,51,51,1.0);fill:none"/><text x="122" y="587" style="stroke-width:0;stroke:none;fill:rgba(51,51,51,1.0);font-size:12.8px;font-family:'Roboto Medium',sans-serif">SyncMap</text><path  d="M 192 565
L 192 570" style="stroke-width:0;stroke:rgba(51,51,51,1.0);fill:none"/><text x="209" y="587" style="stroke-width:0;stroke:none;fill:rgba(51,51,51,1.0);font-size:12.8px;font-family:'Roboto Medium',sans-serif">GacheV2</text><path  d="M 278 565
L 278 570" style="stroke-width:0;stroke:rgba(51,51,51,1.0);fill:none"/><text x="287" y="587" style="stroke-width:0;stroke:none;fill:rgba(51,51,51,1.0);font-size:12.8px;font-family:'Roboto Medium',sans-serif">DefaultMap</text><path  d="M 364 565
L 364 570" style="stroke-width:0;stroke:rgba(51,51,51,1.0);fill:none"/><text x="377" y="587" style="stroke-width:0;stroke:none;fill:rgba(51,51,51,1.0);font-size:12.8px;font-family:'Roboto Medium',sans-serif">TTLCache</text><path  d="M 450 565
L 450 570" style="stroke-width:0;stroke:rgba(51,51,51,1.0);fill:none"/><text x="467" y="587" style="stroke-width:0;stroke:none;fill:rgba(51,51,51,1.0);font-size:12.8px;font-family:'Roboto Medium',sans-serif">GoCache</text><path  d="M 536 565
L 536 570" style="stroke-width:0;stroke:rgba(51,51,51,1.0);fill:none"/><text x="545" y="587" style="stroke-width:0;stroke:none;fill:rgba(51,51,51,1.0);font-size:12.8px;font-family:'Roboto Medium',sans-serif">GCacheLFU</text><path  d="M 622 565
L 622 570" style="stroke-width:0;stroke:rgba(51,51,51,1.0);fill:none"/><text x="631" y="587" style="stroke-width:0;stroke:none;fill:rgba(51,51,51,1.0);font-size:12.8px;font-family:'Roboto Medium',sans-serif">GCacheLRU</text><path  d="M 708 565
L 708 570" style="stroke-width:0;stroke:rgba(51,51,51,1.0);fill:none"/><text x="716" y="587" style="stroke-width:0;stroke:none;fill:rgba(51,51,51,1.0);font-size:12.8px;font-family:'Roboto Medium',sans-serif">GCacheARC</text><path  d="M 794 565
L 794 570" style="stroke-width:0;stroke:rgba(51,51,51,1.0);fill:none"/><text x="809" y="587" style="stroke-width:0;stroke:none;fill:rgba(51,51,51,1.0);font-size:12.8px;font-family:'Roboto Medium',sans-serif">BigCache</text><path  d="M 879 565
L 879 46" style="stroke-width:0;stroke:rgba(51,51,51,1.0);fill:none"/><path  d="M 879 565
L 884 565" style="stroke-width:0;stroke:rgba(51,51,51,1.0);fill:none"/><text x="889" y="571" style="stroke-width:0;stroke:none;fill:rgba(51,51,51,1.0);font-size:12.8px;font-family:'Roboto Medium',sans-serif">12960028.00</text><path  d="M 879 525
L 884 525" style="stroke-width:0;stroke:rgba(51,51,51,1.0);fill:none"/><text x="889" y="531" style="stroke-width:0;stroke:none;fill:rgba(51,51,51,1.0);font-size:12.8px;font-family:'Roboto Medium',sans-serif">142960028.00</text><path  d="M 879 488
L 884 488" style="stroke-width:0;stroke:rgba(51,51,51,1.0);fill:none"/><text x="889" y="494" style="stroke-width:0;stroke:none;fill:rgba(51,51,51,1.0);font-size:12.8px;font-family:'Roboto Medium',sans-serif">262960028.00</text><path  d="M 879 451
L 884 451" style="stroke-width:0;stroke:rgba(51,51,51,1.0);fill:none"/><text x="889" y="457" style="stroke-width:0;stroke:none;fill:rgba(51,51,51,1.0);font-size:12.8px;font-family:'Roboto Medium',sans-serif">382960028.00</text><path  d="M 879 415
L 884 415" style="stroke-width:0;stroke:rgba(51,51,51,1.0);fill:none"/><text x="889" y="421" style="stroke-width:0;stroke:none;fill:rgba(51,51,51,1.0);font-size:12.8px;font-family:'Roboto Medium',sans-serif">502960028.00</text><path  d="M 879 378
L 884 378" style="stroke-width:0;stroke:rgba(51,51,51,1.0);fill:none"/><text x="889" y="384" style="stroke-width:0;stroke:none;fill:rgba(51,51,51,1.0);font-size:12.8px;font-family:'Roboto Medium',sans-serif">622960028.00</text><path  d="M 879 341
L 884 341" style="stroke-width:0;stroke:rgba(51,51,51,1.0);fill:none"/><text x="889" y="347" style="stroke-width:0;stroke:none;fill:rgba(51,51,51,1.0);font-size:12.8px;font-family:'Roboto Medium',sans-serif">742960028.00</text><path  d="M 879 304
L 884 304" style="stroke-width:0;stroke:rgba(51,51,51,1.0);fill:none"/><text x="889" y="310" style="stroke-width:0;stroke:none;fill:rgba(51,51,51,1.0);font-size:12.8px;font-family:'Roboto Medium',sans-serif">862960028.00</text><path  d="M 879 268
L 884 268" style="stroke-width:0;stroke:rgba(51,51,51,1.0);fill:none"/><text x="889" y="274" style="stroke-width:0;stroke:none;fill:rgba(51,51,51,1.0);font-size:12.8px;font-family:'Roboto Medium',sans-serif">982960028.00</text><path  d="M 879 228
L 884 228" style="stroke-width:0;stroke:rgba(51,51,51,1.0);fill:none"/><text x="889" y="234" style="stroke-width:0;stroke:none;fill:rgba(51,51,51,1.0);font-size:12.8px;font-family:'Roboto Medium',sans-serif">1112960028.00</text><path  d="M 879 191
L 884 191" style="stroke-width:0;stroke:rgba(51,51,51,1.0);fill:none"/><text x="889" y="197" style="stroke-width:0;stroke:none;fill:rgba(51,51,51,1.0);font-size:12.8px;font-family:'Roboto Medium',sans-serif">1232960028.00</text><path  d="M 879 155
L 884 155" style="stroke-width:0;stroke:rgba(51,51,51,1.0);fill:none"/><text x="889" y="161" style="stroke-width:0;stroke:none;fill:rgba(51,51,51,1.0);font-size:12.8px;font-family:'Roboto Medium',sans-serif">1352960028.00</text><path  d="M 879 118
L 884 118" style="stroke-width:0;stroke:rgba(51,51,51,1.0);fill:none"/><text x="889" y="124" style="stroke-width:0;stroke:none;fill:rgba(51,51,51,1.0);font-size:12.8px;font-family:'Roboto Medium',sans-serif">1472960028.00</text><path  d="M 879 81
L 884 81" style="stroke-width:0;stroke:rgba(51,51,51,1.0);fill:none"/><text x="889" y="87" style="stroke-width:0;stroke:none;fill:rgba(51,51,51,1.0);font-size:12.8px;font-family:'Roboto Medium',sans-serif">1592960028.00</text><path  d="M 879 46
L 884 46" style="stroke-width:0;stroke:rgba(51,51,51,1.0);fill:none"/><text x="889" y="52" style="stroke-width:0;stroke:none;fill:rgba(51,51,51,1.0);font-size:12.8px;font-family:'Roboto Medium',sans-serif">1709417994.00</text><path  d="M 20 568
L 879 568" style="stroke-width:0;stroke:none;fill:none"/><path  d="M 20 525
L 879 525" style="stroke-width:0;stroke:none;fill:none"/><path  d="M 20 488
L 879 488" style="stroke-width:0;stroke:none;fill:none"/><path  d="M 20 451
L 879 451" style="stroke-width:0;stroke:none;fill:none"/><path  d="M 20 415
L 879 415" style="stroke-width:0;stroke:none;fill:none"/><path  d="M 20 378
L 879 378" style="stroke-width:0;stroke:none;fill:none"/><path  d="M 20 341
L 879 341" style="stroke-width:0;stroke:none;fill:none"/><path  d="M 20 304
L 879 304" style="stroke-width:0;stroke:none;fill:none"/><path  d="M 20 268
L 879 268" style="stroke-width:0;stroke:none;fill:none"/><path  d="M 20 228
L 879 228" style="stroke-width:0;stroke:none;fill:none"/><path  d="M 20 191
L 879 191" style="stroke-width:0;stroke:none;fill:none"/><path  d="M 20 155
L 879 155" style="stroke-width:0;stroke:none;fill:none"/><path  d="M 20 118
L 879 118" style="stroke-width:0;stroke:none;fill:none"/><path  d="M 20 81
L 879 81" style="stroke-width:0;stroke:none;fill:none"/><text x="330" y="33" style="stroke-width:0;stroke:none;fill:rgba(51,51,51,1.0);font-size:23.0px;font-family:'Roboto Medium',sans-serif">BigData NoTTL P1000 - NsPerOp</text></svg>