<svg xmlns="http://www.w3.org/2000/svg" xmlns:xlink="http://www.w3.org/1999/xlink" width="1000" height="600">\n<path  d="M 0 0
L 1000 0
L 1000 600
L 0 600
L 0 0" style="stroke-width:0;stroke:rgba(255,255,255,1.0);fill:rgba(255,255,255,1.0)"/><path  d="M 20 46
L 879 46
L 879 565
L 20 565
L 20 46" style="stroke-width:0;stroke:rgba(255,255,255,1.0);fill:rgba(255,255,255,1.0)"/><path  d="M 38 565
L 88 565
L 88 565
L 38 565
L 38 565" style="stroke-width:3;stroke:rgba(106,195,203,1.0);fill:rgba(106,195,203,1.0)"/><path  d="M 124 563
L 174 563
L 174 565
L 124 565
L 124 563" style="stroke-width:3;stroke:rgba(42,190,137,1.0);fill:rgba(42,190,137,1.0)"/><path  d="M 210 562
L 260 562
L 260 565
L 210 565
L 210 562" style="stroke-width:3;stroke:rgba(110,128,139,1.0);fill:rgba(110,128,139,1.0)"/><path  d="M 296 487
L 346 487
L 346 565
L 296 565
L 296 487" style="stroke-width:3;stroke:rgba(240,174,90,1.0);fill:rgba(240,174,90,1.0)"/><path  d="M 382 479
L 432 479
L 432 565
L 382 565
L 382 479" style="stroke-width:3;stroke:rgba(0,116,217,1.0);fill:rgba(0,116,217,1.0)"/><path  d="M 468 474
L 518 474
L 518 565
L 468 565
L 468 474" style="stroke-width:3;stroke:rgba(0,217,101,1.0);fill:rgba(0,217,101,1.0)"/><path  d="M 554 469
L 604 469
L 604 565
L 554 565
L 554 469" style="stroke-width:3;stroke:rgba(217,0,116,1.0);fill:rgba(217,0,116,1.0)"/><path  d="M 640 465
L 690 465
L 690 565
L 640 565
L 640 465" style="stroke-width:3;stroke:rgba(0,217,210,1.0);fill:rgba(0,217,210,1.0)"/><path  d="M 726 314
L 776 314
L 776 565
L 726 565
L 726 314" style="stroke-width:3;stroke:rgba(217,101,0,1.0);fill:rgba(217,101,0,1.0)"/><path  d="M 812 46
L 862 46
L 862 565
L 812 565
L 812 46" style="stroke-width:3;stroke:rgba(106,195,203,1.0);fill:rgba(106,195,203,1.0)"/><path  d="M 20 565
L 879 565" style="stroke-width:0;stroke:rgba(51,51,51,1.0);fill:none"/><path  d="M 20 565
L 20 570" style="stroke-width:0;stroke:rgba(51,51,51,1.0);fill:none"/><text x="44" y="587" style="stroke-width:0;stroke:none;fill:rgba(51,51,51,1.0);font-size:12.8px;font-family:'Roboto Medium',sans-serif">Gache</text><path  d="M 106 565
L 106 570" style="stroke-width:0;stroke:rgba(51,51,51,1.0);fill:none"/><text x="123" y="587" style="stroke-width:0;stroke:none;fill:rgba(51,51,51,1.0);font-size:12.8px;font-family:'Roboto Medium',sans-serif">GacheV2</text><path  d="M 192 565
L 192 570" style="stroke-width:0;stroke:rgba(51,51,51,1.0);fill:none"/><text x="208" y="587" style="stroke-width:0;stroke:none;fill:rgba(51,51,51,1.0);font-size:12.8px;font-family:'Roboto Medium',sans-serif">SyncMap</text><path  d="M 278 565
L 278 570" style="stroke-width:0;stroke:rgba(51,51,51,1.0);fill:none"/><text x="287" y="587" style="stroke-width:0;stroke:none;fill:rgba(51,51,51,1.0);font-size:12.8px;font-family:'Roboto Medium',sans-serif">DefaultMap</text><path  d="M 364 565
L 364 570" style="stroke-width:0;stroke:rgba(51,51,51,1.0);fill:none"/><text x="377" y="587" style="stroke-width:0;stroke:none;fill:rgba(51,51,51,1.0);font-size:12.8px;font-family:'Roboto Medium',sans-serif">TTLCache</text><path  d="M 450 565
L 450 570" style="stroke-width:0;stroke:rgba(51,51,51,1.0);fill:none"/><text x="467" y="587" style="stroke-width:0;stroke:none;fill:rgba(51,51,51,1.0);font-size:12.8px;font-family:'Roboto Medium',sans-serif">GoCache</text><path  d="M 536 565
L 536 570" style="stroke-width:0;stroke:rgba(51,51,51,1.0);fill:none"/><text x="545" y="587" style="stroke-width:0;stroke:none;fill:rgba(51,51,51,1.0);font-size:12.8px;font-family:'Roboto Medium',sans-serif">GCacheLRU</text><path  d="M 622 565
L 622 570" style="stroke-width:0;stroke:rgba(51,51,51,1.0);fill:none"/><text x="631" y="587" style="stroke-width:0;stroke:none;fill:rgba(51,51,51,1.0);font-size:12.8px;font-family:'Roboto Medium',sans-serif">GCacheLFU</text><path  d="M 708 565
L 708 570" style="stroke-width:0;stroke:rgba(51,51,51,1.0);fill:none"/><text x="716" y="587" style="stroke-width:0;stroke:none;fill:rgba(51,51,51,1.0);font-size:12.8px;font-family:'Roboto Medium',sans-serif">GCacheARC</text><path  d="M 794 565
L 794 570" style="stroke-width:0;stroke:rgba(51,51,51,1.0);fill:none"/><text x="809" y="587" style="stroke-width:0;stroke:none;fill:rgba(51,51,51,1.0);font-size:12.8px;font-family:'Roboto Medium',sans-serif">BigCache</text><path  d="M 879 565
L 879 46" style="stroke-width:0;stroke:rgba(51,51,51,1.0);fill:none"/><path  d="M 879 565
L 884 565" style="stroke-width:0;stroke:rgba(51,51,51,1.0);fill:none"/><text x="889" y="571" style="stroke-width:0;stroke:none;fill:rgba(51,51,51,1.0);font-size:12.8px;font-family:'Roboto Medium',sans-serif">10852804.00</text><path  d="M 879 525
L 884 525" style="stroke-width:0;stroke:rgba(51,51,51,1.0);fill:none"/><text x="889" y="531" style="stroke-width:0;stroke:none;fill:rgba(51,51,51,1.0);font-size:12.8px;font-family:'Roboto Medium',sans-serif">100852804.00</text><path  d="M 879 489
L 884 489" style="stroke-width:0;stroke:rgba(51,51,51,1.0);fill:none"/><text x="889" y="495" style="stroke-width:0;stroke:none;fill:rgba(51,51,51,1.0);font-size:12.8px;font-family:'Roboto Medium',sans-serif">180852804.00</text><path  d="M 879 450
L 884 450" style="stroke-width:0;stroke:rgba(51,51,51,1.0);fill:none"/><text x="889" y="456" style="stroke-width:0;stroke:none;fill:rgba(51,51,51,1.0);font-size:12.8px;font-family:'Roboto Medium',sans-serif">270852804.00</text><path  d="M 879 414
L 884 414" style="stroke-width:0;stroke:rgba(51,51,51,1.0);fill:none"/><text x="889" y="420" style="stroke-width:0;stroke:none;fill:rgba(51,51,51,1.0);font-size:12.8px;font-family:'Roboto Medium',sans-serif">350852804.00</text><path  d="M 879 379
L 884 379" style="stroke-width:0;stroke:rgba(51,51,51,1.0);fill:none"/><text x="889" y="385" style="stroke-width:0;stroke:none;fill:rgba(51,51,51,1.0);font-size:12.8px;font-family:'Roboto Medium',sans-serif">430852804.00</text><path  d="M 879 339
L 884 339" style="stroke-width:0;stroke:rgba(51,51,51,1.0);fill:none"/><text x="889" y="345" style="stroke-width:0;stroke:none;fill:rgba(51,51,51,1.0);font-size:12.8px;font-family:'Roboto Medium',sans-serif">520852804.00</text><path  d="M 879 304
L 884 304" style="stroke-width:0;stroke:rgba(51,51,51,1.0);fill:none"/><text x="889" y="310" style="stroke-width:0;stroke:none;fill:rgba(51,51,51,1.0);font-size:12.8px;font-family:'Roboto Medium',sans-serif">600852804.00</text><path  d="M 879 264
L 884 264" style="stroke-width:0;stroke:rgba(51,51,51,1.0);fill:none"/><text x="889" y="270" style="stroke-width:0;stroke:none;fill:rgba(51,51,51,1.0);font-size:12.8px;font-family:'Roboto Medium',sans-serif">690852804.00</text><path  d="M 879 229
L 884 229" style="stroke-width:0;stroke:rgba(51,51,51,1.0);fill:none"/><text x="889" y="235" style="stroke-width:0;stroke:none;fill:rgba(51,51,51,1.0);font-size:12.8px;font-family:'Roboto Medium',sans-serif">770852804.00</text><path  d="M 879 193
L 884 193" style="stroke-width:0;stroke:rgba(51,51,51,1.0);fill:none"/><text x="889" y="199" style="stroke-width:0;stroke:none;fill:rgba(51,51,51,1.0);font-size:12.8px;font-family:'Roboto Medium',sans-serif">850852804.00</text><path  d="M 879 154
L 884 154" style="stroke-width:0;stroke:rgba(51,51,51,1.0);fill:none"/><text x="889" y="160" style="stroke-width:0;stroke:none;fill:rgba(51,51,51,1.0);font-size:12.8px;font-family:'Roboto Medium',sans-serif">940852804.00</text><path  d="M 879 118
L 884 118" style="stroke-width:0;stroke:rgba(51,51,51,1.0);fill:none"/><text x="889" y="124" style="stroke-width:0;stroke:none;fill:rgba(51,51,51,1.0);font-size:12.8px;font-family:'Roboto Medium',sans-serif">1020852804.00</text><path  d="M 879 79
L 884 79" style="stroke-width:0;stroke:rgba(51,51,51,1.0);fill:none"/><text x="889" y="85" style="stroke-width:0;stroke:none;fill:rgba(51,51,51,1.0);font-size:12.8px;font-family:'Roboto Medium',sans-serif">1110852804.00</text><path  d="M 879 46
L 884 46" style="stroke-width:0;stroke:rgba(51,51,51,1.0);fill:none"/><text x="889" y="52" style="stroke-width:0;stroke:none;fill:rgba(51,51,51,1.0);font-size:12.8px;font-family:'Roboto Medium',sans-serif">1185592807.00</text><path  d="M 20 569
L 879 569" style="stroke-width:0;stroke:none;fill:none"/><path  d="M 20 525
L 879 525" style="stroke-width:0;stroke:none;fill:none"/><path  d="M 20 489
L 879 489" style="stroke-width:0;stroke:none;fill:none"/><path  d="M 20 450
L 879 450" style="stroke-width:0;stroke:none;fill:none"/><path  d="M 20 414
L 879 414" style="stroke-width:0;stroke:none;fill:none"/><path  d="M 20 379
L 879 379" style="stroke-width:0;stroke:none;fill:none"/><path  d="M 20 339
L 879 339" style="stroke-width:0;stroke:none;fill:none"/><path  d="M 20 304
L 879 304" style="stroke-width:0;stroke:none;fill:none"/><path  d="M 20 264
L 879 264" style="stroke-width:0;stroke:none;fill:none"/><path  d="M 20 229
L 879 229" style="stroke-width:0;stroke:none;fill:none"/><path  d="M 20 193
L 879 193" style="stroke-width:0;stroke:none;fill:none"/><path  d="M 20 154
L 879 154" style="stroke-width:0;stroke:none;fill:none"/><path  d="M 20 118
L 879 118" style="stroke-width:0;stroke:none;fill:none"/><path  d="M 20 79
L 879 79" style="stroke-width:0;stroke:none;fill:none"/><text x="336" y="33" style="stroke-width:0;stroke:none;fill:rgba(51,51,51,1.0);font-size:23.0px;font-family:'Roboto Medium',sans-serif">BigData NoTTL P100 - NsPerOp</text></svg>