<svg xmlns="http://www.w3.org/2000/svg" xmlns:xlink="http://www.w3.org/1999/xlink" width="1000" height="600">\n<path  d="M 0 0
L 1000 0
L 1000 600
L 0 600
L 0 0" style="stroke-width:0;stroke:rgba(255,255,255,1.0);fill:rgba(255,255,255,1.0)"/><path  d="M 20 46
L 930 46
L 930 565
L 20 565
L 20 46" style="stroke-width:0;stroke:rgba(255,255,255,1.0);fill:rgba(255,255,255,1.0)"/><path  d="M 40 565
L 90 565
L 90 565
L 40 565
L 40 565" style="stroke-width:3;stroke:rgba(106,195,203,1.0);fill:rgba(106,195,203,1.0)"/><path  d="M 131 559
L 181 559
L 181 565
L 131 565
L 131 559" style="stroke-width:3;stroke:rgba(42,190,137,1.0);fill:rgba(42,190,137,1.0)"/><path  d="M 222 529
L 272 529
L 272 565
L 222 565
L 222 529" style="stroke-width:3;stroke:rgba(110,128,139,1.0);fill:rgba(110,128,139,1.0)"/><path  d="M 313 492
L 363 492
L 363 565
L 313 565
L 313 492" style="stroke-width:3;stroke:rgba(240,174,90,1.0);fill:rgba(240,174,90,1.0)"/><path  d="M 404 477
L 454 477
L 454 565
L 404 565
L 404 477" style="stroke-width:3;stroke:rgba(0,116,217,1.0);fill:rgba(0,116,217,1.0)"/><path  d="M 495 379
L 545 379
L 545 565
L 495 565
L 495 379" style="stroke-width:3;stroke:rgba(0,217,101,1.0);fill:rgba(0,217,101,1.0)"/><path  d="M 586 371
L 636 371
L 636 565
L 586 565
L 586 371" style="stroke-width:3;stroke:rgba(217,0,116,1.0);fill:rgba(217,0,116,1.0)"/><path  d="M 677 258
L 727 258
L 727 565
L 677 565
L 677 258" style="stroke-width:3;stroke:rgba(0,217,210,1.0);fill:rgba(0,217,210,1.0)"/><path  d="M 768 159
L 818 159
L 818 565
L 768 565
L 768 159" style="stroke-width:3;stroke:rgba(217,101,0,1.0);fill:rgba(217,101,0,1.0)"/><path  d="M 859 46
L 909 46
L 909 565
L 859 565
L 859 46" style="stroke-width:3;stroke:rgba(106,195,203,1.0);fill:rgba(106,195,203,1.0)"/><path  d="M 20 565
L 930 565" style="stroke-width:0;stroke:rgba(51,51,51,1.0);fill:none"/><path  d="M 20 565
L 20 570" style="stroke-width:0;stroke:rgba(51,51,51,1.0);fill:none"/><text x="39" y="587" style="stroke-width:0;stroke:none;fill:rgba(51,51,51,1.0);font-size:12.8px;font-family:'Roboto Medium',sans-serif">GacheV2</text><path  d="M 111 565
L 111 570" style="stroke-width:0;stroke:rgba(51,51,51,1.0);fill:none"/><text x="127" y="587" style="stroke-width:0;stroke:none;fill:rgba(51,51,51,1.0);font-size:12.8px;font-family:'Roboto Medium',sans-serif">TTLCache</text><path  d="M 202 565
L 202 570" style="stroke-width:0;stroke:rgba(51,51,51,1.0);fill:none"/><text x="221" y="587" style="stroke-width:0;stroke:none;fill:rgba(51,51,51,1.0);font-size:12.8px;font-family:'Roboto Medium',sans-serif">GoCache</text><path  d="M 293 565
L 293 570" style="stroke-width:0;stroke:rgba(51,51,51,1.0);fill:none"/><text x="305" y="587" style="stroke-width:0;stroke:none;fill:rgba(51,51,51,1.0);font-size:12.8px;font-family:'Roboto Medium',sans-serif">DefaultMap</text><path  d="M 384 565
L 384 570" style="stroke-width:0;stroke:rgba(51,51,51,1.0);fill:none"/><text x="411" y="587" style="stroke-width:0;stroke:none;fill:rgba(51,51,51,1.0);font-size:12.8px;font-family:'Roboto Medium',sans-serif">Gache</text><path  d="M 475 565
L 475 570" style="stroke-width:0;stroke:rgba(51,51,51,1.0);fill:none"/><text x="493" y="587" style="stroke-width:0;stroke:none;fill:rgba(51,51,51,1.0);font-size:12.8px;font-family:'Roboto Medium',sans-serif">SyncMap</text><path  d="M 566 565
L 566 570" style="stroke-width:0;stroke:rgba(51,51,51,1.0);fill:none"/><text x="584" y="587" style="stroke-width:0;stroke:none;fill:rgba(51,51,51,1.0);font-size:12.8px;font-family:'Roboto Medium',sans-serif">BigCache</text><path  d="M 657 565
L 657 570" style="stroke-width:0;stroke:rgba(51,51,51,1.0);fill:none"/><text x="669" y="587" style="stroke-width:0;stroke:none;fill:rgba(51,51,51,1.0);font-size:12.8px;font-family:'Roboto Medium',sans-serif">GCacheLFU</text><path  d="M 748 565
L 748 570" style="stroke-width:0;stroke:rgba(51,51,51,1.0);fill:none"/><text x="759" y="587" style="stroke-width:0;stroke:none;fill:rgba(51,51,51,1.0);font-size:12.8px;font-family:'Roboto Medium',sans-serif">GCacheLRU</text><path  d="M 839 565
L 839 570" style="stroke-width:0;stroke:rgba(51,51,51,1.0);fill:none"/><text x="849" y="587" style="stroke-width:0;stroke:none;fill:rgba(51,51,51,1.0);font-size:12.8px;font-family:'Roboto Medium',sans-serif">GCacheARC</text><path  d="M 930 565
L 930 46" style="stroke-width:0;stroke:rgba(51,51,51,1.0);fill:none"/><path  d="M 930 565
L 935 565" style="stroke-width:0;stroke:rgba(51,51,51,1.0);fill:none"/><text x="940" y="571" style="stroke-width:0;stroke:none;fill:rgba(51,51,51,1.0);font-size:12.8px;font-family:'Roboto Medium',sans-serif">4.00</text><path  d="M 930 527
L 935 527" style="stroke-width:0;stroke:rgba(51,51,51,1.0);fill:none"/><text x="940" y="533" style="stroke-width:0;stroke:none;fill:rgba(51,51,51,1.0);font-size:12.8px;font-family:'Roboto Medium',sans-serif">71.00</text><path  d="M 930 490
L 935 490" style="stroke-width:0;stroke:rgba(51,51,51,1.0);fill:none"/><text x="940" y="496" style="stroke-width:0;stroke:none;fill:rgba(51,51,51,1.0);font-size:12.8px;font-family:'Roboto Medium',sans-serif">138.00</text><path  d="M 930 453
L 935 453" style="stroke-width:0;stroke:rgba(51,51,51,1.0);fill:none"/><text x="940" y="459" style="stroke-width:0;stroke:none;fill:rgba(51,51,51,1.0);font-size:12.8px;font-family:'Roboto Medium',sans-serif">204.00</text><path  d="M 930 416
L 935 416" style="stroke-width:0;stroke:rgba(51,51,51,1.0);fill:none"/><text x="940" y="422" style="stroke-width:0;stroke:none;fill:rgba(51,51,51,1.0);font-size:12.8px;font-family:'Roboto Medium',sans-serif">271.00</text><path  d="M 930 379
L 935 379" style="stroke-width:0;stroke:rgba(51,51,51,1.0);fill:none"/><text x="940" y="385" style="stroke-width:0;stroke:none;fill:rgba(51,51,51,1.0);font-size:12.8px;font-family:'Roboto Medium',sans-serif">337.00</text><path  d="M 930 342
L 935 342" style="stroke-width:0;stroke:rgba(51,51,51,1.0);fill:none"/><text x="940" y="348" style="stroke-width:0;stroke:none;fill:rgba(51,51,51,1.0);font-size:12.8px;font-family:'Roboto Medium',sans-serif">404.00</text><path  d="M 930 305
L 935 305" style="stroke-width:0;stroke:rgba(51,51,51,1.0);fill:none"/><text x="940" y="311" style="stroke-width:0;stroke:none;fill:rgba(51,51,51,1.0);font-size:12.8px;font-family:'Roboto Medium',sans-serif">470.00</text><path  d="M 930 268
L 935 268" style="stroke-width:0;stroke:rgba(51,51,51,1.0);fill:none"/><text x="940" y="274" style="stroke-width:0;stroke:none;fill:rgba(51,51,51,1.0);font-size:12.8px;font-family:'Roboto Medium',sans-serif">537.00</text><path  d="M 930 230
L 935 230" style="stroke-width:0;stroke:rgba(51,51,51,1.0);fill:none"/><text x="940" y="236" style="stroke-width:0;stroke:none;fill:rgba(51,51,51,1.0);font-size:12.8px;font-family:'Roboto Medium',sans-serif">604.00</text><path  d="M 930 194
L 935 194" style="stroke-width:0;stroke:rgba(51,51,51,1.0);fill:none"/><text x="940" y="200" style="stroke-width:0;stroke:none;fill:rgba(51,51,51,1.0);font-size:12.8px;font-family:'Roboto Medium',sans-serif">670.00</text><path  d="M 930 156
L 935 156" style="stroke-width:0;stroke:rgba(51,51,51,1.0);fill:none"/><text x="940" y="162" style="stroke-width:0;stroke:none;fill:rgba(51,51,51,1.0);font-size:12.8px;font-family:'Roboto Medium',sans-serif">737.00</text><path  d="M 930 120
L 935 120" style="stroke-width:0;stroke:rgba(51,51,51,1.0);fill:none"/><text x="940" y="126" style="stroke-width:0;stroke:none;fill:rgba(51,51,51,1.0);font-size:12.8px;font-family:'Roboto Medium',sans-serif">803.00</text><path  d="M 930 82
L 935 82" style="stroke-width:0;stroke:rgba(51,51,51,1.0);fill:none"/><text x="940" y="88" style="stroke-width:0;stroke:none;fill:rgba(51,51,51,1.0);font-size:12.8px;font-family:'Roboto Medium',sans-serif">870.00</text><path  d="M 930 46
L 935 46" style="stroke-width:0;stroke:rgba(51,51,51,1.0);fill:none"/><text x="940" y="52" style="stroke-width:0;stroke:none;fill:rgba(51,51,51,1.0);font-size:12.8px;font-family:'Roboto Medium',sans-serif">936.00</text><path  d="M 20 567
L 930 567" style="stroke-width:0;stroke:none;fill:none"/><path  d="M 20 527
L 930 527" style="stroke-width:0;stroke:none;fill:none"/><path  d="M 20 490
L 930 490" style="stroke-width:0;stroke:none;fill:none"/><path  d="M 20 453
L 930 453" style="stroke-width:0;stroke:none;fill:none"/><path  d="M 20 416
L 930 416" style="stroke-width:0;stroke:none;fill:none"/><path  d="M 20 379
L 930 379" style="stroke-width:0;stroke:none;fill:none"/><path  d="M 20 342
L 930 342" style="stroke-width:0;stroke:none;fill:none"/><path  d="M 20 305
L 930 305" style="stroke-width:0;stroke:none;fill:none"/><path  d="M 20 268
L 930 268" style="stroke-width:0;stroke:none;fill:none"/><path  d="M 20 230
L 930 230" style="stroke-width:0;stroke:none;fill:none"/><path  d="M 20 194
L 930 194" style="stroke-width:0;stroke:none;fill:none"/><path  d="M 20 156
L 930 156" style="stroke-width:0;stroke:none;fill:none"/><path  d="M 20 120
L 930 120" style="stroke-width:0;stroke:none;fill:none"/><path  d="M 20 82
L 930 82" style="stroke-width:0;stroke:none;fill:none"/><text x="303" y="33" style="stroke-width:0;stroke:none;fill:rgba(51,51,51,1.0);font-size:23.0px;font-family:'Roboto Medium',sans-serif">SmallData NoTTL P1000 - BytesPerOp</text></svg>