<?xml version="1.0" encoding="UTF-8"?>
<svg xmlns="http://www.w3.org/2000/svg" width="980" height="700">
  <rect width="980" height="700" fill="white"/>
  <text x="471" y="36" text-anchor="middle" font-family="sans-serif" font-size="15" font-weight="bold">SmallData NoTTL — ProcessCount × Latency/Op × Alloc/Op</text>
  <polygon points="391.9,450.0 731.9,450.0 731.9,140.0 391.9,140.0" fill="#eef5ee" stroke="#aaa" stroke-width="0.8"/>
  <polygon points="210.0,555.0 391.9,450.0 391.9,140.0 210.0,245.0" fill="#eeeff8" stroke="#aaa" stroke-width="0.8"/>
  <polygon points="210.0,555.0 550.0,555.0 731.9,450.0 391.9,450.0" fill="#f5f5ee" stroke="#aaa" stroke-width="0.8"/>
  <line x1="210.0" y1="555.0" x2="550.0" y2="555.0" stroke="#ccc" stroke-width="0.7" stroke-dasharray="4,3"/>
  <line x1="210.0" y1="555.0" x2="391.9" y2="450.0" stroke="#ccc" stroke-width="0.7" stroke-dasharray="4,3"/>
  <line x1="255.5" y1="528.8" x2="595.5" y2="528.8" stroke="#ccc" stroke-width="0.7" stroke-dasharray="4,3"/>
  <line x1="295.0" y1="555.0" x2="476.9" y2="450.0" stroke="#ccc" stroke-width="0.7" stroke-dasharray="4,3"/>
  <line x1="300.9" y1="502.5" x2="640.9" y2="502.5" stroke="#ccc" stroke-width="0.7" stroke-dasharray="4,3"/>
  <line x1="380.0" y1="555.0" x2="561.9" y2="450.0" stroke="#ccc" stroke-width="0.7" stroke-dasharray="4,3"/>
  <line x1="346.4" y1="476.2" x2="686.4" y2="476.2" stroke="#ccc" stroke-width="0.7" stroke-dasharray="4,3"/>
  <line x1="465.0" y1="555.0" x2="646.9" y2="450.0" stroke="#ccc" stroke-width="0.7" stroke-dasharray="4,3"/>
  <line x1="391.9" y1="450.0" x2="731.9" y2="450.0" stroke="#ccc" stroke-width="0.7" stroke-dasharray="4,3"/>
  <line x1="550.0" y1="555.0" x2="731.9" y2="450.0" stroke="#ccc" stroke-width="0.7" stroke-dasharray="4,3"/>
  <line x1="210.0" y1="477.5" x2="391.9" y2="372.5" stroke="#ccc" stroke-width="0.7" stroke-dasharray="4,3"/>
  <line x1="255.5" y1="528.8" x2="255.5" y2="218.8" stroke="#ccc" stroke-width="0.7" stroke-dasharray="4,3"/>
  <line x1="210.0" y1="400.0" x2="391.9" y2="295.0" stroke="#ccc" stroke-width="0.7" stroke-dasharray="4,3"/>
  <line x1="300.9" y1="502.5" x2="300.9" y2="192.5" stroke="#ccc" stroke-width="0.7" stroke-dasharray="4,3"/>
  <line x1="210.0" y1="322.5" x2="391.9" y2="217.5" stroke="#ccc" stroke-width="0.7" stroke-dasharray="4,3"/>
  <line x1="346.4" y1="476.2" x2="346.4" y2="166.2" stroke="#ccc" stroke-width="0.7" stroke-dasharray="4,3"/>
  <line x1="210.0" y1="245.0" x2="391.9" y2="140.0" stroke="#ccc" stroke-width="0.7" stroke-dasharray="4,3"/>
  <line x1="391.9" y1="450.0" x2="391.9" y2="140.0" stroke="#ccc" stroke-width="0.7" stroke-dasharray="4,3"/>
  <line x1="270.6" y1="520.0" x2="610.6" y2="520.0" stroke="#b0b8d0" stroke-width="1.1" stroke-dasharray="5,3"/>
  <line x1="270.6" y1="520.0" x2="270.6" y2="210.0" stroke="#b0b8d0" stroke-width="1.1" stroke-dasharray="5,3"/>
  <line x1="331.2" y1="485.0" x2="671.2" y2="485.0" stroke="#b0b8d0" stroke-width="1.1" stroke-dasharray="5,3"/>
  <line x1="331.2" y1="485.0" x2="331.2" y2="175.0" stroke="#b0b8d0" stroke-width="1.1" stroke-dasharray="5,3"/>
  <line x1="210.0" y1="555.0" x2="567.0" y2="555.0" stroke="#333" stroke-width="2"/>
  <line x1="210.0" y1="555.0" x2="210.0" y2="229.5" stroke="#333" stroke-width="2"/>
  <line x1="210.0" y1="555.0" x2="401.0" y2="444.8" stroke="#333" stroke-width="2" stroke-dasharray="6,3"/>
  <line x1="210.0" y1="555.0" x2="210.0" y2="560.0" stroke="#555"/>
  <text x="210.0" y="575.0" text-anchor="middle" font-family="sans-serif" font-size="12">P100</text>
  <line x1="380.0" y1="555.0" x2="380.0" y2="560.0" stroke="#555"/>
  <text x="380.0" y="575.0" text-anchor="middle" font-family="sans-serif" font-size="12">P1000</text>
  <line x1="550.0" y1="555.0" x2="550.0" y2="560.0" stroke="#555"/>
  <text x="550.0" y="575.0" text-anchor="middle" font-family="sans-serif" font-size="12">P10000</text>
  <text x="380.0" y="593.0" text-anchor="middle" font-family="sans-serif" font-size="13">Process Count</text>
  <line x1="205.0" y1="555.0" x2="210.0" y2="555.0" stroke="#555"/>
  <text x="202.0" y="555.0" text-anchor="end" font-family="sans-serif" font-size="11" dominant-baseline="middle">356</text>
  <line x1="205.0" y1="477.5" x2="210.0" y2="477.5" stroke="#555"/>
  <text x="202.0" y="477.5" text-anchor="end" font-family="sans-serif" font-size="11" dominant-baseline="middle">6.5K</text>
  <line x1="205.0" y1="400.0" x2="210.0" y2="400.0" stroke="#555"/>
  <text x="202.0" y="400.0" text-anchor="end" font-family="sans-serif" font-size="11" dominant-baseline="middle">12.6K</text>
  <line x1="205.0" y1="322.5" x2="210.0" y2="322.5" stroke="#555"/>
  <text x="202.0" y="322.5" text-anchor="end" font-family="sans-serif" font-size="11" dominant-baseline="middle">18.8K</text>
  <line x1="205.0" y1="245.0" x2="210.0" y2="245.0" stroke="#555"/>
  <text x="202.0" y="245.0" text-anchor="end" font-family="sans-serif" font-size="11" dominant-baseline="middle">24.9K</text>
  <text transform="rotate(-90,150,400)" x="150" y="400" text-anchor="middle" font-family="sans-serif" font-size="13">Latency/Op (ns/op)</text>
  <line x1="206.0" y1="557.0" x2="210.0" y2="555.0" stroke="#555"/>
  <text x="203.0" y="558.0" text-anchor="end" font-family="sans-serif" font-size="11" dominant-baseline="middle">0.0</text>
  <line x1="266.6" y1="522.0" x2="270.6" y2="520.0" stroke="#555"/>
  <text x="263.6" y="523.0" text-anchor="end" font-family="sans-serif" font-size="11" dominant-baseline="middle">36</text>
  <line x1="327.2" y1="487.0" x2="331.2" y2="485.0" stroke="#555"/>
  <text x="324.2" y="488.0" text-anchor="end" font-family="sans-serif" font-size="11" dominant-baseline="middle">71</text>
  <line x1="387.9" y1="452.0" x2="391.9" y2="450.0" stroke="#555"/>
  <text x="384.9" y="453.0" text-anchor="end" font-family="sans-serif" font-size="11" dominant-baseline="middle">107</text>
  <text x="300.9" y="524.5" text-anchor="middle" font-family="sans-serif" font-size="13">Alloc/Op</text>
  <line x1="391.9" y1="140.0" x2="561.9" y2="143.4" stroke="#9467bd" stroke-width="1.8" stroke-dasharray="10,5" opacity="0.65"/>
  <line x1="561.9" y1="143.4" x2="731.9" y2="163.2" stroke="#9467bd" stroke-width="1.8" stroke-dasharray="10,5" opacity="0.65"/>
  <line x1="391.9" y1="271.5" x2="561.9" y2="253.6" stroke="#e377c2" stroke-width="1.8" stroke-dasharray="10,5" opacity="0.65"/>
  <line x1="561.9" y1="253.6" x2="731.9" y2="274.5" stroke="#e377c2" stroke-width="1.8" stroke-dasharray="10,5" opacity="0.65"/>
  <line x1="391.9" y1="271.0" x2="561.9" y2="256.5" stroke="#8c564b" stroke-width="1.8" stroke-dasharray="10,5" opacity="0.65"/>
  <line x1="561.9" y1="256.5" x2="731.9" y2="276.1" stroke="#8c564b" stroke-width="1.8" stroke-dasharray="10,5" opacity="0.65"/>
  <line x1="391.9" y1="358.0" x2="561.9" y2="352.7" stroke="#bcbd22" stroke-width="1.8" stroke-dasharray="10,5" opacity="0.65"/>
  <line x1="561.9" y1="352.7" x2="731.9" y2="367.2" stroke="#bcbd22" stroke-width="1.8" stroke-dasharray="10,5" opacity="0.65"/>
  <line x1="391.9" y1="339.9" x2="561.9" y2="378.0" stroke="#1f77b4" stroke-width="1.8" stroke-dasharray="10,5" opacity="0.65"/>
  <line x1="561.9" y1="378.0" x2="731.9" y2="369.8" stroke="#1f77b4" stroke-width="1.8" stroke-dasharray="10,5" opacity="0.65"/>
  <line x1="391.9" y1="380.8" x2="561.9" y2="338.6" stroke="#ff7f0e" stroke-width="1.8" stroke-dasharray="10,5" opacity="0.65"/>
  <line x1="561.9" y1="338.6" x2="731.9" y2="362.7" stroke="#ff7f0e" stroke-width="1.8" stroke-dasharray="10,5" opacity="0.65"/>
  <line x1="391.9" y1="444.1" x2="561.9" y2="444.0" stroke="#2ca02c" stroke-width="1.8" stroke-dasharray="10,5" opacity="0.65"/>
  <line x1="561.9" y1="444.0" x2="731.9" y2="443.8" stroke="#2ca02c" stroke-width="1.8" stroke-dasharray="10,5" opacity="0.65"/>
  <line x1="391.9" y1="413.7" x2="561.9" y2="382.4" stroke="#7f7f7f" stroke-width="1.8" stroke-dasharray="10,5" opacity="0.65"/>
  <line x1="561.9" y1="382.4" x2="731.9" y2="413.5" stroke="#7f7f7f" stroke-width="1.8" stroke-dasharray="10,5" opacity="0.65"/>
  <line x1="391.9" y1="449.7" x2="561.9" y2="450.0" stroke="#d62728" stroke-width="1.8" stroke-dasharray="10,5" opacity="0.65"/>
  <line x1="561.9" y1="450.0" x2="731.9" y2="450.0" stroke="#d62728" stroke-width="1.8" stroke-dasharray="10,5" opacity="0.65"/>
  <line x1="391.9" y1="343.0" x2="561.9" y2="307.8" stroke="#17becf" stroke-width="1.8" stroke-dasharray="10,5" opacity="0.65"/>
  <line x1="561.9" y1="307.8" x2="731.9" y2="357.0" stroke="#17becf" stroke-width="1.8" stroke-dasharray="10,5" opacity="0.65"/>
  <line x1="391.9" y1="450.0" x2="561.9" y2="450.0" stroke="#9467bd" stroke-width="1.8" stroke-dasharray="5,4" opacity="0.65"/>
  <line x1="561.9" y1="450.0" x2="730.2" y2="451.0" stroke="#9467bd" stroke-width="1.8" stroke-dasharray="5,4" opacity="0.65"/>
  <line x1="366.4" y1="464.7" x2="536.4" y2="464.7" stroke="#e377c2" stroke-width="1.8" stroke-dasharray="5,4" opacity="0.65"/>
  <line x1="536.4" y1="464.7" x2="708.1" y2="463.7" stroke="#e377c2" stroke-width="1.8" stroke-dasharray="5,4" opacity="0.65"/>
  <line x1="342.6" y1="478.5" x2="512.6" y2="478.5" stroke="#8c564b" stroke-width="1.8" stroke-dasharray="5,4" opacity="0.65"/>
  <line x1="512.6" y1="478.5" x2="682.6" y2="478.5" stroke="#8c564b" stroke-width="1.8" stroke-dasharray="5,4" opacity="0.65"/>
  <line x1="291.6" y1="507.9" x2="461.6" y2="507.9" stroke="#bcbd22" stroke-width="1.8" stroke-dasharray="5,4" opacity="0.65"/>
  <line x1="461.6" y1="507.9" x2="631.6" y2="507.9" stroke="#bcbd22" stroke-width="1.8" stroke-dasharray="5,4" opacity="0.65"/>
  <line x1="264.4" y1="523.6" x2="434.4" y2="523.6" stroke="#1f77b4" stroke-width="1.8" stroke-dasharray="5,4" opacity="0.65"/>
  <line x1="434.4" y1="523.6" x2="604.4" y2="523.6" stroke="#1f77b4" stroke-width="1.8" stroke-dasharray="5,4" opacity="0.65"/>
  <line x1="264.4" y1="523.6" x2="434.4" y2="523.6" stroke="#ff7f0e" stroke-width="1.8" stroke-dasharray="5,4" opacity="0.65"/>
  <line x1="434.4" y1="523.6" x2="604.4" y2="523.6" stroke="#ff7f0e" stroke-width="1.8" stroke-dasharray="5,4" opacity="0.65"/>
  <line x1="264.4" y1="523.6" x2="434.4" y2="523.6" stroke="#2ca02c" stroke-width="1.8" stroke-dasharray="5,4" opacity="0.65"/>
  <line x1="434.4" y1="523.6" x2="604.4" y2="523.6" stroke="#2ca02c" stroke-width="1.8" stroke-dasharray="5,4" opacity="0.65"/>
  <line x1="237.2" y1="539.3" x2="407.2" y2="539.3" stroke="#7f7f7f" stroke-width="1.8" stroke-dasharray="5,4" opacity="0.65"/>
  <line x1="407.2" y1="539.3" x2="577.2" y2="539.3" stroke="#7f7f7f" stroke-width="1.8" stroke-dasharray="5,4" opacity="0.65"/>
  <line x1="210.0" y1="555.0" x2="380.0" y2="555.0" stroke="#d62728" stroke-width="1.8" stroke-dasharray="5,4" opacity="0.65"/>
  <line x1="380.0" y1="555.0" x2="550.0" y2="555.0" stroke="#d62728" stroke-width="1.8" stroke-dasharray="5,4" opacity="0.65"/>
  <line x1="210.0" y1="555.0" x2="380.0" y2="555.0" stroke="#17becf" stroke-width="1.8" stroke-dasharray="5,4" opacity="0.65"/>
  <line x1="380.0" y1="555.0" x2="550.0" y2="555.0" stroke="#17becf" stroke-width="1.8" stroke-dasharray="5,4" opacity="0.65"/>
  <line x1="391.9" y1="140.0" x2="391.9" y2="450.0" stroke="#9467bd" stroke-width="0.9" stroke-dasharray="3,2" opacity="0.5"/>
  <line x1="561.9" y1="143.4" x2="561.9" y2="450.0" stroke="#9467bd" stroke-width="0.9" stroke-dasharray="3,2" opacity="0.5"/>
  <line x1="730.2" y1="164.2" x2="730.2" y2="451.0" stroke="#9467bd" stroke-width="0.9" stroke-dasharray="3,2" opacity="0.5"/>
  <line x1="366.4" y1="286.2" x2="366.4" y2="464.7" stroke="#e377c2" stroke-width="0.9" stroke-dasharray="3,2" opacity="0.5"/>
  <line x1="536.4" y1="268.4" x2="536.4" y2="464.7" stroke="#e377c2" stroke-width="0.9" stroke-dasharray="3,2" opacity="0.5"/>
  <line x1="708.1" y1="288.2" x2="708.1" y2="463.7" stroke="#e377c2" stroke-width="0.9" stroke-dasharray="3,2" opacity="0.5"/>
  <line x1="342.6" y1="299.5" x2="342.6" y2="478.5" stroke="#8c564b" stroke-width="0.9" stroke-dasharray="3,2" opacity="0.5"/>
  <line x1="512.6" y1="284.9" x2="512.6" y2="478.5" stroke="#8c564b" stroke-width="0.9" stroke-dasharray="3,2" opacity="0.5"/>
  <line x1="682.6" y1="304.5" x2="682.6" y2="478.5" stroke="#8c564b" stroke-width="0.9" stroke-dasharray="3,2" opacity="0.5"/>
  <line x1="291.6" y1="415.9" x2="291.6" y2="507.9" stroke="#bcbd22" stroke-width="0.9" stroke-dasharray="3,2" opacity="0.5"/>
  <line x1="461.6" y1="410.6" x2="461.6" y2="507.9" stroke="#bcbd22" stroke-width="0.9" stroke-dasharray="3,2" opacity="0.5"/>
  <line x1="631.6" y1="425.1" x2="631.6" y2="507.9" stroke="#bcbd22" stroke-width="0.9" stroke-dasharray="3,2" opacity="0.5"/>
  <line x1="264.4" y1="413.5" x2="264.4" y2="523.6" stroke="#1f77b4" stroke-width="0.9" stroke-dasharray="3,2" opacity="0.5"/>
  <line x1="434.4" y1="451.6" x2="434.4" y2="523.6" stroke="#1f77b4" stroke-width="0.9" stroke-dasharray="3,2" opacity="0.5"/>
  <line x1="604.4" y1="443.4" x2="604.4" y2="523.6" stroke="#1f77b4" stroke-width="0.9" stroke-dasharray="3,2" opacity="0.5"/>
  <line x1="264.4" y1="454.4" x2="264.4" y2="523.6" stroke="#ff7f0e" stroke-width="0.9" stroke-dasharray="3,2" opacity="0.5"/>
  <line x1="434.4" y1="412.2" x2="434.4" y2="523.6" stroke="#ff7f0e" stroke-width="0.9" stroke-dasharray="3,2" opacity="0.5"/>
  <line x1="604.4" y1="436.3" x2="604.4" y2="523.6" stroke="#ff7f0e" stroke-width="0.9" stroke-dasharray="3,2" opacity="0.5"/>
  <line x1="264.4" y1="517.6" x2="264.4" y2="523.6" stroke="#2ca02c" stroke-width="0.9" stroke-dasharray="3,2" opacity="0.5"/>
  <line x1="434.4" y1="517.6" x2="434.4" y2="523.6" stroke="#2ca02c" stroke-width="0.9" stroke-dasharray="3,2" opacity="0.5"/>
  <line x1="604.4" y1="517.4" x2="604.4" y2="523.6" stroke="#2ca02c" stroke-width="0.9" stroke-dasharray="3,2" opacity="0.5"/>
  <line x1="237.2" y1="503.0" x2="237.2" y2="539.3" stroke="#7f7f7f" stroke-width="0.9" stroke-dasharray="3,2" opacity="0.5"/>
  <line x1="407.2" y1="471.7" x2="407.2" y2="539.3" stroke="#7f7f7f" stroke-width="0.9" stroke-dasharray="3,2" opacity="0.5"/>
  <line x1="577.2" y1="502.8" x2="577.2" y2="539.3" stroke="#7f7f7f" stroke-width="0.9" stroke-dasharray="3,2" opacity="0.5"/>
  <line x1="210.0" y1="554.7" x2="210.0" y2="555.0" stroke="#d62728" stroke-width="0.9" stroke-dasharray="3,2" opacity="0.5"/>
  <line x1="380.0" y1="555.0" x2="380.0" y2="555.0" stroke="#d62728" stroke-width="0.9" stroke-dasharray="3,2" opacity="0.5"/>
  <line x1="550.0" y1="555.0" x2="550.0" y2="555.0" stroke="#d62728" stroke-width="0.9" stroke-dasharray="3,2" opacity="0.5"/>
  <line x1="210.0" y1="448.0" x2="210.0" y2="555.0" stroke="#17becf" stroke-width="0.9" stroke-dasharray="3,2" opacity="0.5"/>
  <line x1="380.0" y1="412.8" x2="380.0" y2="555.0" stroke="#17becf" stroke-width="0.9" stroke-dasharray="3,2" opacity="0.5"/>
  <line x1="550.0" y1="462.0" x2="550.0" y2="555.0" stroke="#17becf" stroke-width="0.9" stroke-dasharray="3,2" opacity="0.5"/>
  <line x1="391.9" y1="140.0" x2="561.9" y2="143.4" stroke="#9467bd" stroke-width="2.5" stroke-dasharray="8,4"/>
  <line x1="561.9" y1="143.4" x2="730.2" y2="164.2" stroke="#9467bd" stroke-width="2.5" stroke-dasharray="8,4"/>
  <line x1="366.4" y1="286.2" x2="536.4" y2="268.4" stroke="#e377c2" stroke-width="2.5" stroke-dasharray="8,4"/>
  <line x1="536.4" y1="268.4" x2="708.1" y2="288.2" stroke="#e377c2" stroke-width="2.5" stroke-dasharray="8,4"/>
  <line x1="342.6" y1="299.5" x2="512.6" y2="284.9" stroke="#8c564b" stroke-width="2.5" stroke-dasharray="8,4"/>
  <line x1="512.6" y1="284.9" x2="682.6" y2="304.5" stroke="#8c564b" stroke-width="2.5" stroke-dasharray="8,4"/>
  <line x1="291.6" y1="415.9" x2="461.6" y2="410.6" stroke="#bcbd22" stroke-width="2.5" stroke-dasharray="8,4"/>
  <line x1="461.6" y1="410.6" x2="631.6" y2="425.1" stroke="#bcbd22" stroke-width="2.5" stroke-dasharray="8,4"/>
  <line x1="264.4" y1="413.5" x2="434.4" y2="451.6" stroke="#1f77b4" stroke-width="2.5" stroke-dasharray="8,4"/>
  <line x1="434.4" y1="451.6" x2="604.4" y2="443.4" stroke="#1f77b4" stroke-width="2.5" stroke-dasharray="8,4"/>
  <line x1="264.4" y1="454.4" x2="434.4" y2="412.2" stroke="#ff7f0e" stroke-width="2.5" stroke-dasharray="8,4"/>
  <line x1="434.4" y1="412.2" x2="604.4" y2="436.3" stroke="#ff7f0e" stroke-width="2.5" stroke-dasharray="8,4"/>
  <line x1="264.4" y1="517.6" x2="434.4" y2="517.6" stroke="#2ca02c" stroke-width="2.5" stroke-dasharray="8,4"/>
  <line x1="434.4" y1="517.6" x2="604.4" y2="517.4" stroke="#2ca02c" stroke-width="2.5" stroke-dasharray="8,4"/>
  <line x1="237.2" y1="503.0" x2="407.2" y2="471.7" stroke="#7f7f7f" stroke-width="2.5" stroke-dasharray="8,4"/>
  <line x1="407.2" y1="471.7" x2="577.2" y2="502.8" stroke="#7f7f7f" stroke-width="2.5" stroke-dasharray="8,4"/>
  <line x1="210.0" y1="554.7" x2="380.0" y2="555.0" stroke="#d62728" stroke-width="2.5" stroke-dasharray="8,4"/>
  <line x1="380.0" y1="555.0" x2="550.0" y2="555.0" stroke="#d62728" stroke-width="2.5" stroke-dasharray="8,4"/>
  <line x1="210.0" y1="448.0" x2="380.0" y2="412.8" stroke="#17becf" stroke-width="2.5" stroke-dasharray="8,4"/>
  <line x1="380.0" y1="412.8" x2="550.0" y2="462.0" stroke="#17becf" stroke-width="2.5" stroke-dasharray="8,4"/>
  <circle cx="391.9" cy="140.0" r="5" fill="#9467bd" stroke="white" stroke-width="1.5"><title>GCacheARC P100 — 24.9K ns/op, 107 allocs/op</title></circle>
  <text x="391.9" y="126.0" text-anchor="middle" font-family="sans-serif" font-size="9" fill="#9467bd" stroke="white" stroke-width="3" paint-order="stroke">24.9K ns/op</text>
  <text x="391.9" y="160.0" text-anchor="middle" font-family="sans-serif" font-size="9" fill="#9467bd" stroke="white" stroke-width="3" paint-order="stroke">107 a/op</text>
  <circle cx="561.9" cy="143.4" r="5" fill="#9467bd" stroke="white" stroke-width="1.5"><title>GCacheARC P1000 — 24.6K ns/op, 107 allocs/op</title></circle>
  <text x="561.9" y="129.4" text-anchor="middle" font-family="sans-serif" font-size="9" fill="#9467bd" stroke="white" stroke-width="3" paint-order="stroke">24.6K ns/op</text>
  <text x="561.9" y="163.4" text-anchor="middle" font-family="sans-serif" font-size="9" fill="#9467bd" stroke="white" stroke-width="3" paint-order="stroke">107 a/op</text>
  <circle cx="730.2" cy="164.2" r="5" fill="#9467bd" stroke="white" stroke-width="1.5"><title>GCacheARC P10000 — 23.1K ns/op, 106 allocs/op</title></circle>
  <text x="730.2" y="150.2" text-anchor="middle" font-family="sans-serif" font-size="9" fill="#9467bd" stroke="white" stroke-width="3" paint-order="stroke">23.1K ns/op</text>
  <text x="730.2" y="184.2" text-anchor="middle" font-family="sans-serif" font-size="9" fill="#9467bd" stroke="white" stroke-width="3" paint-order="stroke">106 a/op</text>
  <circle cx="366.4" cy="286.2" r="5" fill="#e377c2" stroke="white" stroke-width="1.5"><title>GCacheLRU P100 — 14.5K ns/op, 92 allocs/op</title></circle>
  <text x="366.4" y="272.2" text-anchor="middle" font-family="sans-serif" font-size="9" fill="#e377c2" stroke="white" stroke-width="3" paint-order="stroke">14.5K ns/op</text>
  <text x="366.4" y="306.2" text-anchor="middle" font-family="sans-serif" font-size="9" fill="#e377c2" stroke="white" stroke-width="3" paint-order="stroke">92 a/op</text>
  <circle cx="536.4" cy="268.4" r="5" fill="#e377c2" stroke="white" stroke-width="1.5"><title>GCacheLRU P1000 — 15.9K ns/op, 92 allocs/op</title></circle>
  <text x="536.4" y="254.4" text-anchor="middle" font-family="sans-serif" font-size="9" fill="#e377c2" stroke="white" stroke-width="3" paint-order="stroke">15.9K ns/op</text>
  <text x="536.4" y="288.4" text-anchor="middle" font-family="sans-serif" font-size="9" fill="#e377c2" stroke="white" stroke-width="3" paint-order="stroke">92 a/op</text>
  <circle cx="708.1" cy="288.2" r="5" fill="#e377c2" stroke="white" stroke-width="1.5"><title>GCacheLRU P10000 — 14.3K ns/op, 93 allocs/op</title></circle>
  <text x="708.1" y="274.2" text-anchor="middle" font-family="sans-serif" font-size="9" fill="#e377c2" stroke="white" stroke-width="3" paint-order="stroke">14.3K ns/op</text>
  <text x="708.1" y="308.2" text-anchor="middle" font-family="sans-serif" font-size="9" fill="#e377c2" stroke="white" stroke-width="3" paint-order="stroke">93 a/op</text>
  <circle cx="342.6" cy="299.5" r="5" fill="#8c564b" stroke="white" stroke-width="1.5"><title>GCacheLFU P100 — 14.5K ns/op, 78 allocs/op</title></circle>
  <text x="342.6" y="285.5" text-anchor="middle" font-family="sans-serif" font-size="9" fill="#8c564b" stroke="white" stroke-width="3" paint-order="stroke">14.5K ns/op</text>
  <text x="342.6" y="319.5" text-anchor="middle" font-family="sans-serif" font-size="9" fill="#8c564b" stroke="white" stroke-width="3" paint-order="stroke">78 a/op</text>
  <circle cx="512.6" cy="284.9" r="5" fill="#8c564b" stroke="white" stroke-width="1.5"><title>GCacheLFU P1000 — 15.7K ns/op, 78 allocs/op</title></circle>
  <text x="512.6" y="270.9" text-anchor="middle" font-family="sans-serif" font-size="9" fill="#8c564b" stroke="white" stroke-width="3" paint-order="stroke">15.7K ns/op</text>
  <text x="512.6" y="304.9" text-anchor="middle" font-family="sans-serif" font-size="9" fill="#8c564b" stroke="white" stroke-width="3" paint-order="stroke">78 a/op</text>
  <circle cx="682.6" cy="304.5" r="5" fill="#8c564b" stroke="white" stroke-width="1.5"><title>GCacheLFU P10000 — 14.1K ns/op, 78 allocs/op</title></circle>
  <text x="682.6" y="290.5" text-anchor="middle" font-family="sans-serif" font-size="9" fill="#8c564b" stroke="white" stroke-width="3" paint-order="stroke">14.1K ns/op</text>
  <text x="682.6" y="324.5" text-anchor="middle" font-family="sans-serif" font-size="9" fill="#8c564b" stroke="white" stroke-width="3" paint-order="stroke">78 a/op</text>
  <circle cx="291.6" cy="415.9" r="5" fill="#bcbd22" stroke="white" stroke-width="1.5"><title>SyncMap P100 — 7.6K ns/op, 48 allocs/op</title></circle>
  <text x="291.6" y="401.9" text-anchor="middle" font-family="sans-serif" font-size="9" fill="#bcbd22" stroke="white" stroke-width="3" paint-order="stroke">7.6K ns/op</text>
  <text x="291.6" y="435.9" text-anchor="middle" font-family="sans-serif" font-size="9" fill="#bcbd22" stroke="white" stroke-width="3" paint-order="stroke">48 a/op</text>
  <circle cx="461.6" cy="410.6" r="5" fill="#bcbd22" stroke="white" stroke-width="1.5"><title>SyncMap P1000 — 8.1K ns/op, 48 allocs/op</title></circle>
  <text x="461.6" y="396.6" text-anchor="middle" font-family="sans-serif" font-size="9" fill="#bcbd22" stroke="white" stroke-width="3" paint-order="stroke">8.1K ns/op</text>
  <text x="461.6" y="430.6" text-anchor="middle" font-family="sans-serif" font-size="9" fill="#bcbd22" stroke="white" stroke-width="3" paint-order="stroke">48 a/op</text>
  <circle cx="631.6" cy="425.1" r="5" fill="#bcbd22" stroke="white" stroke-width="1.5"><title>SyncMap P10000 — 6.9K ns/op, 48 allocs/op</title></circle>
  <text x="631.6" y="411.1" text-anchor="middle" font-family="sans-serif" font-size="9" fill="#bcbd22" stroke="white" stroke-width="3" paint-order="stroke">6.9K ns/op</text>
  <text x="631.6" y="445.1" text-anchor="middle" font-family="sans-serif" font-size="9" fill="#bcbd22" stroke="white" stroke-width="3" paint-order="stroke">48 a/op</text>
  <circle cx="264.4" cy="413.5" r="5" fill="#1f77b4" stroke="white" stroke-width="1.5"><title>BigCache P100 — 9.1K ns/op, 32 allocs/op</title></circle>
  <text x="264.4" y="399.5" text-anchor="middle" font-family="sans-serif" font-size="9" fill="#1f77b4" stroke="white" stroke-width="3" paint-order="stroke">9.1K ns/op</text>
  <text x="264.4" y="433.5" text-anchor="middle" font-family="sans-serif" font-size="9" fill="#1f77b4" stroke="white" stroke-width="3" paint-order="stroke">32 a/op</text>
  <circle cx="434.4" cy="451.6" r="5" fill="#1f77b4" stroke="white" stroke-width="1.5"><title>BigCache P1000 — 6.1K ns/op, 32 allocs/op</title></circle>
  <text x="434.4" y="437.6" text-anchor="middle" font-family="sans-serif" font-size="9" fill="#1f77b4" stroke="white" stroke-width="3" paint-order="stroke">6.1K ns/op</text>
  <text x="434.4" y="471.6" text-anchor="middle" font-family="sans-serif" font-size="9" fill="#1f77b4" stroke="white" stroke-width="3" paint-order="stroke">32 a/op</text>
  <circle cx="604.4" cy="443.4" r="5" fill="#1f77b4" stroke="white" stroke-width="1.5"><title>BigCache P10000 — 6.7K ns/op, 32 allocs/op</title></circle>
  <text x="604.4" y="429.4" text-anchor="middle" font-family="sans-serif" font-size="9" fill="#1f77b4" stroke="white" stroke-width="3" paint-order="stroke">6.7K ns/op</text>
  <text x="604.4" y="463.4" text-anchor="middle" font-family="sans-serif" font-size="9" fill="#1f77b4" stroke="white" stroke-width="3" paint-order="stroke">32 a/op</text>
  <circle cx="264.4" cy="454.4" r="5" fill="#ff7f0e" stroke="white" stroke-width="1.5"><title>DefaultMap P100 — 5.8K ns/op, 32 allocs/op</title></circle>
  <text x="264.4" y="440.4" text-anchor="middle" font-family="sans-serif" font-size="9" fill="#ff7f0e" stroke="white" stroke-width="3" paint-order="stroke">5.8K ns/op</text>
  <text x="264.4" y="474.4" text-anchor="middle" font-family="sans-serif" font-size="9" fill="#ff7f0e" stroke="white" stroke-width="3" paint-order="stroke">32 a/op</text>
  <circle cx="434.4" cy="412.2" r="5" fill="#ff7f0e" stroke="white" stroke-width="1.5"><title>DefaultMap P1000 — 9.2K ns/op, 32 allocs/op</title></circle>
  <text x="434.4" y="398.2" text-anchor="middle" font-family="sans-serif" font-size="9" fill="#ff7f0e" stroke="white" stroke-width="3" paint-order="stroke">9.2K ns/op</text>
  <text x="434.4" y="432.2" text-anchor="middle" font-family="sans-serif" font-size="9" fill="#ff7f0e" stroke="white" stroke-width="3" paint-order="stroke">32 a/op</text>
  <circle cx="604.4" cy="436.3" r="5" fill="#ff7f0e" stroke="white" stroke-width="1.5"><title>DefaultMap P10000 — 7.3K ns/op, 32 allocs/op</title></circle>
  <text x="604.4" y="422.3" text-anchor="middle" font-family="sans-serif" font-size="9" fill="#ff7f0e" stroke="white" stroke-width="3" paint-order="stroke">7.3K ns/op</text>
  <text x="604.4" y="456.3" text-anchor="middle" font-family="sans-serif" font-size="9" fill="#ff7f0e" stroke="white" stroke-width="3" paint-order="stroke">32 a/op</text>
  <circle cx="264.4" cy="517.6" r="5" fill="#2ca02c" stroke="white" stroke-width="1.5"><title>Gache P100 — 827 ns/op, 32 allocs/op</title></circle>
  <text x="264.4" y="503.6" text-anchor="middle" font-family="sans-serif" font-size="9" fill="#2ca02c" stroke="white" stroke-width="3" paint-order="stroke">827 ns/op</text>
  <text x="264.4" y="537.6" text-anchor="middle" font-family="sans-serif" font-size="9" fill="#2ca02c" stroke="white" stroke-width="3" paint-order="stroke">32 a/op</text>
  <circle cx="434.4" cy="517.6" r="5" fill="#2ca02c" stroke="white" stroke-width="1.5"><title>Gache P1000 — 831 ns/op, 32 allocs/op</title></circle>
  <text x="434.4" y="503.6" text-anchor="middle" font-family="sans-serif" font-size="9" fill="#2ca02c" stroke="white" stroke-width="3" paint-order="stroke">831 ns/op</text>
  <text x="434.4" y="537.6" text-anchor="middle" font-family="sans-serif" font-size="9" fill="#2ca02c" stroke="white" stroke-width="3" paint-order="stroke">32 a/op</text>
  <circle cx="604.4" cy="517.4" r="5" fill="#2ca02c" stroke="white" stroke-width="1.5"><title>Gache P10000 — 850 ns/op, 32 allocs/op</title></circle>
  <text x="604.4" y="503.4" text-anchor="middle" font-family="sans-serif" font-size="9" fill="#2ca02c" stroke="white" stroke-width="3" paint-order="stroke">850 ns/op</text>
  <text x="604.4" y="537.4" text-anchor="middle" font-family="sans-serif" font-size="9" fill="#2ca02c" stroke="white" stroke-width="3" paint-order="stroke">32 a/op</text>
  <circle cx="237.2" cy="503.0" r="5" fill="#7f7f7f" stroke="white" stroke-width="1.5"><title>GoCache P100 — 3.2K ns/op, 16 allocs/op</title></circle>
  <text x="237.2" y="489.0" text-anchor="middle" font-family="sans-serif" font-size="9" fill="#7f7f7f" stroke="white" stroke-width="3" paint-order="stroke">3.2K ns/op</text>
  <text x="237.2" y="523.0" text-anchor="middle" font-family="sans-serif" font-size="9" fill="#7f7f7f" stroke="white" stroke-width="3" paint-order="stroke">16 a/op</text>
  <circle cx="407.2" cy="471.7" r="5" fill="#7f7f7f" stroke="white" stroke-width="1.5"><title>GoCache P1000 — 5.7K ns/op, 16 allocs/op</title></circle>
  <text x="407.2" y="457.7" text-anchor="middle" font-family="sans-serif" font-size="9" fill="#7f7f7f" stroke="white" stroke-width="3" paint-order="stroke">5.7K ns/op</text>
  <text x="407.2" y="491.7" text-anchor="middle" font-family="sans-serif" font-size="9" fill="#7f7f7f" stroke="white" stroke-width="3" paint-order="stroke">16 a/op</text>
  <circle cx="577.2" cy="502.8" r="5" fill="#7f7f7f" stroke="white" stroke-width="1.5"><title>GoCache P10000 — 3.2K ns/op, 16 allocs/op</title></circle>
  <text x="577.2" y="488.8" text-anchor="middle" font-family="sans-serif" font-size="9" fill="#7f7f7f" stroke="white" stroke-width="3" paint-order="stroke">3.2K ns/op</text>
  <text x="577.2" y="522.8" text-anchor="middle" font-family="sans-serif" font-size="9" fill="#7f7f7f" stroke="white" stroke-width="3" paint-order="stroke">16 a/op</text>
  <circle cx="210.0" cy="554.7" r="5" fill="#d62728" stroke="white" stroke-width="1.5"><title>GacheV2 P100 — 378 ns/op, 0.0 allocs/op</title></circle>
  <text x="210.0" y="540.7" text-anchor="middle" font-family="sans-serif" font-size="9" fill="#d62728" stroke="white" stroke-width="3" paint-order="stroke">378 ns/op</text>
  <text x="210.0" y="574.7" text-anchor="middle" font-family="sans-serif" font-size="9" fill="#d62728" stroke="white" stroke-width="3" paint-order="stroke">0.0 a/op</text>
  <circle cx="380.0" cy="555.0" r="5" fill="#d62728" stroke="white" stroke-width="1.5"><title>GacheV2 P1000 — 356 ns/op, 0.0 allocs/op</title></circle>
  <text x="380.0" y="541.0" text-anchor="middle" font-family="sans-serif" font-size="9" fill="#d62728" stroke="white" stroke-width="3" paint-order="stroke">356 ns/op</text>
  <text x="380.0" y="575.0" text-anchor="middle" font-family="sans-serif" font-size="9" fill="#d62728" stroke="white" stroke-width="3" paint-order="stroke">0.0 a/op</text>
  <circle cx="550.0" cy="555.0" r="5" fill="#d62728" stroke="white" stroke-width="1.5"><title>GacheV2 P10000 — 356 ns/op, 0.0 allocs/op</title></circle>
  <text x="550.0" y="541.0" text-anchor="middle" font-family="sans-serif" font-size="9" fill="#d62728" stroke="white" stroke-width="3" paint-order="stroke">356 ns/op</text>
  <text x="550.0" y="575.0" text-anchor="middle" font-family="sans-serif" font-size="9" fill="#d62728" stroke="white" stroke-width="3" paint-order="stroke">0.0 a/op</text>
  <circle cx="210.0" cy="448.0" r="5" fill="#17becf" stroke="white" stroke-width="1.5"><title>TTLCache P100 — 8.8K ns/op, 0.0 allocs/op</title></circle>
  <text x="210.0" y="434.0" text-anchor="middle" font-family="sans-serif" font-size="9" fill="#17becf" stroke="white" stroke-width="3" paint-order="stroke">8.8K ns/op</text>
  <text x="210.0" y="468.0" text-anchor="middle" font-family="sans-serif" font-size="9" fill="#17becf" stroke="white" stroke-width="3" paint-order="stroke">0.0 a/op</text>
  <circle cx="380.0" cy="412.8" r="5" fill="#17becf" stroke="white" stroke-width="1.5"><title>TTLCache P1000 — 11.6K ns/op, 0.0 allocs/op</title></circle>
  <text x="380.0" y="398.8" text-anchor="middle" font-family="sans-serif" font-size="9" fill="#17becf" stroke="white" stroke-width="3" paint-order="stroke">11.6K ns/op</text>
  <text x="380.0" y="432.8" text-anchor="middle" font-family="sans-serif" font-size="9" fill="#17becf" stroke="white" stroke-width="3" paint-order="stroke">0.0 a/op</text>
  <circle cx="550.0" cy="462.0" r="5" fill="#17becf" stroke="white" stroke-width="1.5"><title>TTLCache P10000 — 7.7K ns/op, 0.0 allocs/op</title></circle>
  <text x="550.0" y="448.0" text-anchor="middle" font-family="sans-serif" font-size="9" fill="#17becf" stroke="white" stroke-width="3" paint-order="stroke">7.7K ns/op</text>
  <text x="550.0" y="482.0" text-anchor="middle" font-family="sans-serif" font-size="9" fill="#17becf" stroke="white" stroke-width="3" paint-order="stroke">0.0 a/op</text>
  <text x="751" y="60" font-family="sans-serif" font-size="12" font-weight="bold">Dash style</text>
  <line x1="751" y1="76" x2="773" y2="76" stroke="#555" stroke-width="2" stroke-dasharray="8,4"/>
  <text x="779" y="76" font-family="sans-serif" font-size="11" dominant-baseline="middle">3D path</text>
  <line x1="751" y1="94" x2="773" y2="94" stroke="#555" stroke-width="1.8" stroke-dasharray="10,5"/>
  <text x="779" y="94" font-family="sans-serif" font-size="11" dominant-baseline="middle">Latency/Op (back wall)</text>
  <line x1="751" y1="112" x2="773" y2="112" stroke="#555" stroke-width="1.8" stroke-dasharray="5,4"/>
  <text x="779" y="112" font-family="sans-serif" font-size="11" dominant-baseline="middle">Alloc/Op (floor)</text>
  <text x="751" y="136" font-family="sans-serif" font-size="13" font-weight="bold">Library</text>
  <line x1="751" y1="156" x2="769" y2="156" stroke="#1f77b4" stroke-width="2.5" stroke-dasharray="8,4"/>
  <circle cx="760" cy="156" r="4" fill="#1f77b4"/>
  <text x="775" y="156" font-family="sans-serif" font-size="12" dominant-baseline="middle">BigCache</text>
  <line x1="751" y1="178" x2="769" y2="178" stroke="#ff7f0e" stroke-width="2.5" stroke-dasharray="8,4"/>
  <circle cx="760" cy="178" r="4" fill="#ff7f0e"/>
  <text x="775" y="178" font-family="sans-serif" font-size="12" dominant-baseline="middle">DefaultMap</text>
  <line x1="751" y1="200" x2="769" y2="200" stroke="#9467bd" stroke-width="2.5" stroke-dasharray="8,4"/>
  <circle cx="760" cy="200" r="4" fill="#9467bd"/>
  <text x="775" y="200" font-family="sans-serif" font-size="12" dominant-baseline="middle">GCacheARC</text>
  <line x1="751" y1="222" x2="769" y2="222" stroke="#8c564b" stroke-width="2.5" stroke-dasharray="8,4"/>
  <circle cx="760" cy="222" r="4" fill="#8c564b"/>
  <text x="775" y="222" font-family="sans-serif" font-size="12" dominant-baseline="middle">GCacheLFU</text>
  <line x1="751" y1="244" x2="769" y2="244" stroke="#e377c2" stroke-width="2.5" stroke-dasharray="8,4"/>
  <circle cx="760" cy="244" r="4" fill="#e377c2"/>
  <text x="775" y="244" font-family="sans-serif" font-size="12" dominant-baseline="middle">GCacheLRU</text>
  <line x1="751" y1="266" x2="769" y2="266" stroke="#2ca02c" stroke-width="2.5" stroke-dasharray="8,4"/>
  <circle cx="760" cy="266" r="4" fill="#2ca02c"/>
  <text x="775" y="266" font-family="sans-serif" font-size="12" dominant-baseline="middle">Gache</text>
  <line x1="751" y1="288" x2="769" y2="288" stroke="#d62728" stroke-width="2.5" stroke-dasharray="8,4"/>
  <circle cx="760" cy="288" r="4" fill="#d62728"/>
  <text x="775" y="288" font-family="sans-serif" font-size="12" dominant-baseline="middle">GacheV2</text>
  <line x1="751" y1="310" x2="769" y2="310" stroke="#7f7f7f" stroke-width="2.5" stroke-dasharray="8,4"/>
  <circle cx="760" cy="310" r="4" fill="#7f7f7f"/>
  <text x="775" y="310" font-family="sans-serif" font-size="12" dominant-baseline="middle">GoCache</text>
  <line x1="751" y1="332" x2="769" y2="332" stroke="#bcbd22" stroke-width="2.5" stroke-dasharray="8,4"/>
  <circle cx="760" cy="332" r="4" fill="#bcbd22"/>
  <text x="775" y="332" font-family="sans-serif" font-size="12" dominant-baseline="middle">SyncMap</text>
  <line x1="751" y1="354" x2="769" y2="354" stroke="#17becf" stroke-width="2.5" stroke-dasharray="8,4"/>
  <circle cx="760" cy="354" r="4" fill="#17becf"/>
  <text x="775" y="354" font-family="sans-serif" font-size="12" dominant-baseline="middle">TTLCache</text>
</svg>
