<?xml version="1.0" encoding="UTF-8"?>
<svg xmlns="http://www.w3.org/2000/svg" width="980" height="700">
  <rect width="980" height="700" fill="white"/>
  <text x="471" y="36" text-anchor="middle" font-family="sans-serif" font-size="15" font-weight="bold">SmallData WithTTL — ProcessCount × Latency/Op × Alloc/Op</text>
  <polygon points="391.9,450.0 731.9,450.0 731.9,140.0 391.9,140.0" fill="#eef5ee" stroke="#aaa" stroke-width="0.8"/>
  <polygon points="210.0,555.0 391.9,450.0 391.9,140.0 210.0,245.0" fill="#eeeff8" stroke="#aaa" stroke-width="0.8"/>
  <polygon points="210.0,555.0 550.0,555.0 731.9,450.0 391.9,450.0" fill="#f5f5ee" stroke="#aaa" stroke-width="0.8"/>
  <line x1="210.0" y1="555.0" x2="550.0" y2="555.0" stroke="#ccc" stroke-width="0.7" stroke-dasharray="4,3"/>
  <line x1="210.0" y1="555.0" x2="391.9" y2="450.0" stroke="#ccc" stroke-width="0.7" stroke-dasharray="4,3"/>
  <line x1="255.5" y1="528.8" x2="595.5" y2="528.8" stroke="#ccc" stroke-width="0.7" stroke-dasharray="4,3"/>
  <line x1="295.0" y1="555.0" x2="476.9" y2="450.0" stroke="#ccc" stroke-width="0.7" stroke-dasharray="4,3"/>
  <line x1="300.9" y1="502.5" x2="640.9" y2="502.5" stroke="#ccc" stroke-width="0.7" stroke-dasharray="4,3"/>
  <line x1="380.0" y1="555.0" x2="561.9" y2="450.0" stroke="#ccc" stroke-width="0.7" stroke-dasharray="4,3"/>
  <line x1="346.4" y1="476.2" x2="686.4" y2="476.2" stroke="#ccc" stroke-width="0.7" stroke-dasharray="4,3"/>
  <line x1="465.0" y1="555.0" x2="646.9" y2="450.0" stroke="#ccc" stroke-width="0.7" stroke-dasharray="4,3"/>
  <line x1="391.9" y1="450.0" x2="731.9" y2="450.0" stroke="#ccc" stroke-width="0.7" stroke-dasharray="4,3"/>
  <line x1="550.0" y1="555.0" x2="731.9" y2="450.0" stroke="#ccc" stroke-width="0.7" stroke-dasharray="4,3"/>
  <line x1="210.0" y1="477.5" x2="391.9" y2="372.5" stroke="#ccc" stroke-width="0.7" stroke-dasharray="4,3"/>
  <line x1="255.5" y1="528.8" x2="255.5" y2="218.8" stroke="#ccc" stroke-width="0.7" stroke-dasharray="4,3"/>
  <line x1="210.0" y1="400.0" x2="391.9" y2="295.0" stroke="#ccc" stroke-width="0.7" stroke-dasharray="4,3"/>
  <line x1="300.9" y1="502.5" x2="300.9" y2="192.5" stroke="#ccc" stroke-width="0.7" stroke-dasharray="4,3"/>
  <line x1="210.0" y1="322.5" x2="391.9" y2="217.5" stroke="#ccc" stroke-width="0.7" stroke-dasharray="4,3"/>
  <line x1="346.4" y1="476.2" x2="346.4" y2="166.2" stroke="#ccc" stroke-width="0.7" stroke-dasharray="4,3"/>
  <line x1="210.0" y1="245.0" x2="391.9" y2="140.0" stroke="#ccc" stroke-width="0.7" stroke-dasharray="4,3"/>
  <line x1="391.9" y1="450.0" x2="391.9" y2="140.0" stroke="#ccc" stroke-width="0.7" stroke-dasharray="4,3"/>
  <line x1="270.6" y1="520.0" x2="610.6" y2="520.0" stroke="#b0b8d0" stroke-width="1.1" stroke-dasharray="5,3"/>
  <line x1="270.6" y1="520.0" x2="270.6" y2="210.0" stroke="#b0b8d0" stroke-width="1.1" stroke-dasharray="5,3"/>
  <line x1="331.2" y1="485.0" x2="671.2" y2="485.0" stroke="#b0b8d0" stroke-width="1.1" stroke-dasharray="5,3"/>
  <line x1="331.2" y1="485.0" x2="331.2" y2="175.0" stroke="#b0b8d0" stroke-width="1.1" stroke-dasharray="5,3"/>
  <line x1="210.0" y1="555.0" x2="567.0" y2="555.0" stroke="#333" stroke-width="2"/>
  <line x1="210.0" y1="555.0" x2="210.0" y2="229.5" stroke="#333" stroke-width="2"/>
  <line x1="210.0" y1="555.0" x2="401.0" y2="444.8" stroke="#333" stroke-width="2" stroke-dasharray="6,3"/>
  <line x1="210.0" y1="555.0" x2="210.0" y2="560.0" stroke="#555"/>
  <text x="210.0" y="575.0" text-anchor="middle" font-family="sans-serif" font-size="12">P100</text>
  <line x1="380.0" y1="555.0" x2="380.0" y2="560.0" stroke="#555"/>
  <text x="380.0" y="575.0" text-anchor="middle" font-family="sans-serif" font-size="12">P1000</text>
  <line x1="550.0" y1="555.0" x2="550.0" y2="560.0" stroke="#555"/>
  <text x="550.0" y="575.0" text-anchor="middle" font-family="sans-serif" font-size="12">P10000</text>
  <text x="380.0" y="593.0" text-anchor="middle" font-family="sans-serif" font-size="13">Process Count</text>
  <line x1="205.0" y1="555.0" x2="210.0" y2="555.0" stroke="#555"/>
  <text x="202.0" y="555.0" text-anchor="end" font-family="sans-serif" font-size="11" dominant-baseline="middle">359</text>
  <line x1="205.0" y1="477.5" x2="210.0" y2="477.5" stroke="#555"/>
  <text x="202.0" y="477.5" text-anchor="end" font-family="sans-serif" font-size="11" dominant-baseline="middle">5.4K</text>
  <line x1="205.0" y1="400.0" x2="210.0" y2="400.0" stroke="#555"/>
  <text x="202.0" y="400.0" text-anchor="end" font-family="sans-serif" font-size="11" dominant-baseline="middle">10.4K</text>
  <line x1="205.0" y1="322.5" x2="210.0" y2="322.5" stroke="#555"/>
  <text x="202.0" y="322.5" text-anchor="end" font-family="sans-serif" font-size="11" dominant-baseline="middle">15.5K</text>
  <line x1="205.0" y1="245.0" x2="210.0" y2="245.0" stroke="#555"/>
  <text x="202.0" y="245.0" text-anchor="end" font-family="sans-serif" font-size="11" dominant-baseline="middle">20.5K</text>
  <text transform="rotate(-90,150,400)" x="150" y="400" text-anchor="middle" font-family="sans-serif" font-size="13">Latency/Op (ns/op)</text>
  <line x1="206.0" y1="557.0" x2="210.0" y2="555.0" stroke="#555"/>
  <text x="203.0" y="558.0" text-anchor="end" font-family="sans-serif" font-size="11" dominant-baseline="middle">0.0</text>
  <line x1="266.6" y1="522.0" x2="270.6" y2="520.0" stroke="#555"/>
  <text x="263.6" y="523.0" text-anchor="end" font-family="sans-serif" font-size="11" dominant-baseline="middle">22</text>
  <line x1="327.2" y1="487.0" x2="331.2" y2="485.0" stroke="#555"/>
  <text x="324.2" y="488.0" text-anchor="end" font-family="sans-serif" font-size="11" dominant-baseline="middle">43</text>
  <line x1="387.9" y1="452.0" x2="391.9" y2="450.0" stroke="#555"/>
  <text x="384.9" y="453.0" text-anchor="end" font-family="sans-serif" font-size="11" dominant-baseline="middle">65</text>
  <text x="300.9" y="524.5" text-anchor="middle" font-family="sans-serif" font-size="13">Alloc/Op</text>
  <line x1="391.9" y1="245.4" x2="561.9" y2="201.2" stroke="#8c564b" stroke-width="1.8" stroke-dasharray="10,5" opacity="0.65"/>
  <line x1="561.9" y1="201.2" x2="731.9" y2="241.9" stroke="#8c564b" stroke-width="1.8" stroke-dasharray="10,5" opacity="0.65"/>
  <line x1="391.9" y1="184.9" x2="561.9" y2="140.0" stroke="#9467bd" stroke-width="1.8" stroke-dasharray="10,5" opacity="0.65"/>
  <line x1="561.9" y1="140.0" x2="731.9" y2="197.5" stroke="#9467bd" stroke-width="1.8" stroke-dasharray="10,5" opacity="0.65"/>
  <line x1="391.9" y1="226.1" x2="561.9" y2="201.0" stroke="#e377c2" stroke-width="1.8" stroke-dasharray="10,5" opacity="0.65"/>
  <line x1="561.9" y1="201.0" x2="731.9" y2="260.8" stroke="#e377c2" stroke-width="1.8" stroke-dasharray="10,5" opacity="0.65"/>
  <line x1="391.9" y1="330.1" x2="561.9" y2="368.7" stroke="#1f77b4" stroke-width="1.8" stroke-dasharray="10,5" opacity="0.65"/>
  <line x1="561.9" y1="368.7" x2="731.9" y2="370.9" stroke="#1f77b4" stroke-width="1.8" stroke-dasharray="10,5" opacity="0.65"/>
  <line x1="391.9" y1="443.2" x2="561.9" y2="443.0" stroke="#2ca02c" stroke-width="1.8" stroke-dasharray="10,5" opacity="0.65"/>
  <line x1="561.9" y1="443.0" x2="731.9" y2="442.8" stroke="#2ca02c" stroke-width="1.8" stroke-dasharray="10,5" opacity="0.65"/>
  <line x1="391.9" y1="334.5" x2="561.9" y2="275.1" stroke="#7f7f7f" stroke-width="1.8" stroke-dasharray="10,5" opacity="0.65"/>
  <line x1="561.9" y1="275.1" x2="731.9" y2="340.0" stroke="#7f7f7f" stroke-width="1.8" stroke-dasharray="10,5" opacity="0.65"/>
  <line x1="391.9" y1="449.7" x2="561.9" y2="450.0" stroke="#d62728" stroke-width="1.8" stroke-dasharray="10,5" opacity="0.65"/>
  <line x1="561.9" y1="450.0" x2="731.9" y2="449.9" stroke="#d62728" stroke-width="1.8" stroke-dasharray="10,5" opacity="0.65"/>
  <line x1="391.9" y1="179.7" x2="561.9" y2="186.9" stroke="#17becf" stroke-width="1.8" stroke-dasharray="10,5" opacity="0.65"/>
  <line x1="561.9" y1="186.9" x2="731.9" y2="185.6" stroke="#17becf" stroke-width="1.8" stroke-dasharray="10,5" opacity="0.65"/>
  <line x1="391.9" y1="450.0" x2="559.1" y2="451.6" stroke="#8c564b" stroke-width="1.8" stroke-dasharray="5,4" opacity="0.65"/>
  <line x1="559.1" y1="451.6" x2="729.1" y2="451.6" stroke="#8c564b" stroke-width="1.8" stroke-dasharray="5,4" opacity="0.65"/>
  <line x1="389.1" y1="451.6" x2="559.1" y2="451.6" stroke="#9467bd" stroke-width="1.8" stroke-dasharray="5,4" opacity="0.65"/>
  <line x1="559.1" y1="451.6" x2="729.1" y2="451.6" stroke="#9467bd" stroke-width="1.8" stroke-dasharray="5,4" opacity="0.65"/>
  <line x1="389.1" y1="451.6" x2="559.1" y2="451.6" stroke="#e377c2" stroke-width="1.8" stroke-dasharray="5,4" opacity="0.65"/>
  <line x1="559.1" y1="451.6" x2="729.1" y2="451.6" stroke="#e377c2" stroke-width="1.8" stroke-dasharray="5,4" opacity="0.65"/>
  <line x1="299.5" y1="503.3" x2="469.5" y2="503.3" stroke="#1f77b4" stroke-width="1.8" stroke-dasharray="5,4" opacity="0.65"/>
  <line x1="469.5" y1="503.3" x2="639.5" y2="503.3" stroke="#1f77b4" stroke-width="1.8" stroke-dasharray="5,4" opacity="0.65"/>
  <line x1="299.5" y1="503.3" x2="469.5" y2="503.3" stroke="#2ca02c" stroke-width="1.8" stroke-dasharray="5,4" opacity="0.65"/>
  <line x1="469.5" y1="503.3" x2="639.5" y2="503.3" stroke="#2ca02c" stroke-width="1.8" stroke-dasharray="5,4" opacity="0.65"/>
  <line x1="254.8" y1="529.2" x2="424.8" y2="529.2" stroke="#7f7f7f" stroke-width="1.8" stroke-dasharray="5,4" opacity="0.65"/>
  <line x1="424.8" y1="529.2" x2="594.8" y2="529.2" stroke="#7f7f7f" stroke-width="1.8" stroke-dasharray="5,4" opacity="0.65"/>
  <line x1="210.0" y1="555.0" x2="380.0" y2="555.0" stroke="#d62728" stroke-width="1.8" stroke-dasharray="5,4" opacity="0.65"/>
  <line x1="380.0" y1="555.0" x2="550.0" y2="555.0" stroke="#d62728" stroke-width="1.8" stroke-dasharray="5,4" opacity="0.65"/>
  <line x1="210.0" y1="555.0" x2="380.0" y2="555.0" stroke="#17becf" stroke-width="1.8" stroke-dasharray="5,4" opacity="0.65"/>
  <line x1="380.0" y1="555.0" x2="550.0" y2="555.0" stroke="#17becf" stroke-width="1.8" stroke-dasharray="5,4" opacity="0.65"/>
  <line x1="391.9" y1="245.4" x2="391.9" y2="450.0" stroke="#8c564b" stroke-width="0.9" stroke-dasharray="3,2" opacity="0.5"/>
  <line x1="559.1" y1="202.8" x2="559.1" y2="451.6" stroke="#8c564b" stroke-width="0.9" stroke-dasharray="3,2" opacity="0.5"/>
  <line x1="729.1" y1="243.5" x2="729.1" y2="451.6" stroke="#8c564b" stroke-width="0.9" stroke-dasharray="3,2" opacity="0.5"/>
  <line x1="389.1" y1="186.5" x2="389.1" y2="451.6" stroke="#9467bd" stroke-width="0.9" stroke-dasharray="3,2" opacity="0.5"/>
  <line x1="559.1" y1="141.6" x2="559.1" y2="451.6" stroke="#9467bd" stroke-width="0.9" stroke-dasharray="3,2" opacity="0.5"/>
  <line x1="729.1" y1="199.1" x2="729.1" y2="451.6" stroke="#9467bd" stroke-width="0.9" stroke-dasharray="3,2" opacity="0.5"/>
  <line x1="389.1" y1="227.7" x2="389.1" y2="451.6" stroke="#e377c2" stroke-width="0.9" stroke-dasharray="3,2" opacity="0.5"/>
  <line x1="559.1" y1="202.6" x2="559.1" y2="451.6" stroke="#e377c2" stroke-width="0.9" stroke-dasharray="3,2" opacity="0.5"/>
  <line x1="729.1" y1="262.4" x2="729.1" y2="451.6" stroke="#e377c2" stroke-width="0.9" stroke-dasharray="3,2" opacity="0.5"/>
  <line x1="299.5" y1="383.4" x2="299.5" y2="503.3" stroke="#1f77b4" stroke-width="0.9" stroke-dasharray="3,2" opacity="0.5"/>
  <line x1="469.5" y1="422.0" x2="469.5" y2="503.3" stroke="#1f77b4" stroke-width="0.9" stroke-dasharray="3,2" opacity="0.5"/>
  <line x1="639.5" y1="424.2" x2="639.5" y2="503.3" stroke="#1f77b4" stroke-width="0.9" stroke-dasharray="3,2" opacity="0.5"/>
  <line x1="299.5" y1="496.5" x2="299.5" y2="503.3" stroke="#2ca02c" stroke-width="0.9" stroke-dasharray="3,2" opacity="0.5"/>
  <line x1="469.5" y1="496.3" x2="469.5" y2="503.3" stroke="#2ca02c" stroke-width="0.9" stroke-dasharray="3,2" opacity="0.5"/>
  <line x1="639.5" y1="496.1" x2="639.5" y2="503.3" stroke="#2ca02c" stroke-width="0.9" stroke-dasharray="3,2" opacity="0.5"/>
  <line x1="254.8" y1="413.6" x2="254.8" y2="529.2" stroke="#7f7f7f" stroke-width="0.9" stroke-dasharray="3,2" opacity="0.5"/>
  <line x1="424.8" y1="354.3" x2="424.8" y2="529.2" stroke="#7f7f7f" stroke-width="0.9" stroke-dasharray="3,2" opacity="0.5"/>
  <line x1="594.8" y1="419.1" x2="594.8" y2="529.2" stroke="#7f7f7f" stroke-width="0.9" stroke-dasharray="3,2" opacity="0.5"/>
  <line x1="210.0" y1="554.7" x2="210.0" y2="555.0" stroke="#d62728" stroke-width="0.9" stroke-dasharray="3,2" opacity="0.5"/>
  <line x1="380.0" y1="555.0" x2="380.0" y2="555.0" stroke="#d62728" stroke-width="0.9" stroke-dasharray="3,2" opacity="0.5"/>
  <line x1="550.0" y1="554.9" x2="550.0" y2="555.0" stroke="#d62728" stroke-width="0.9" stroke-dasharray="3,2" opacity="0.5"/>
  <line x1="210.0" y1="284.7" x2="210.0" y2="555.0" stroke="#17becf" stroke-width="0.9" stroke-dasharray="3,2" opacity="0.5"/>
  <line x1="380.0" y1="291.9" x2="380.0" y2="555.0" stroke="#17becf" stroke-width="0.9" stroke-dasharray="3,2" opacity="0.5"/>
  <line x1="550.0" y1="290.6" x2="550.0" y2="555.0" stroke="#17becf" stroke-width="0.9" stroke-dasharray="3,2" opacity="0.5"/>
  <line x1="391.9" y1="245.4" x2="559.1" y2="202.8" stroke="#8c564b" stroke-width="2.5" stroke-dasharray="8,4"/>
  <line x1="559.1" y1="202.8" x2="729.1" y2="243.5" stroke="#8c564b" stroke-width="2.5" stroke-dasharray="8,4"/>
  <line x1="389.1" y1="186.5" x2="559.1" y2="141.6" stroke="#9467bd" stroke-width="2.5" stroke-dasharray="8,4"/>
  <line x1="559.1" y1="141.6" x2="729.1" y2="199.1" stroke="#9467bd" stroke-width="2.5" stroke-dasharray="8,4"/>
  <line x1="389.1" y1="227.7" x2="559.1" y2="202.6" stroke="#e377c2" stroke-width="2.5" stroke-dasharray="8,4"/>
  <line x1="559.1" y1="202.6" x2="729.1" y2="262.4" stroke="#e377c2" stroke-width="2.5" stroke-dasharray="8,4"/>
  <line x1="299.5" y1="383.4" x2="469.5" y2="422.0" stroke="#1f77b4" stroke-width="2.5" stroke-dasharray="8,4"/>
  <line x1="469.5" y1="422.0" x2="639.5" y2="424.2" stroke="#1f77b4" stroke-width="2.5" stroke-dasharray="8,4"/>
  <line x1="299.5" y1="496.5" x2="469.5" y2="496.3" stroke="#2ca02c" stroke-width="2.5" stroke-dasharray="8,4"/>
  <line x1="469.5" y1="496.3" x2="639.5" y2="496.1" stroke="#2ca02c" stroke-width="2.5" stroke-dasharray="8,4"/>
  <line x1="254.8" y1="413.6" x2="424.8" y2="354.3" stroke="#7f7f7f" stroke-width="2.5" stroke-dasharray="8,4"/>
  <line x1="424.8" y1="354.3" x2="594.8" y2="419.1" stroke="#7f7f7f" stroke-width="2.5" stroke-dasharray="8,4"/>
  <line x1="210.0" y1="554.7" x2="380.0" y2="555.0" stroke="#d62728" stroke-width="2.5" stroke-dasharray="8,4"/>
  <line x1="380.0" y1="555.0" x2="550.0" y2="554.9" stroke="#d62728" stroke-width="2.5" stroke-dasharray="8,4"/>
  <line x1="210.0" y1="284.7" x2="380.0" y2="291.9" stroke="#17becf" stroke-width="2.5" stroke-dasharray="8,4"/>
  <line x1="380.0" y1="291.9" x2="550.0" y2="290.6" stroke="#17becf" stroke-width="2.5" stroke-dasharray="8,4"/>
  <circle cx="391.9" cy="245.4" r="5" fill="#8c564b" stroke="white" stroke-width="1.5"><title>GCacheLFU P100 — 13.7K ns/op, 65 allocs/op</title></circle>
  <text x="391.9" y="231.4" text-anchor="middle" font-family="sans-serif" font-size="9" fill="#8c564b" stroke="white" stroke-width="3" paint-order="stroke">13.7K ns/op</text>
  <text x="391.9" y="265.4" text-anchor="middle" font-family="sans-serif" font-size="9" fill="#8c564b" stroke="white" stroke-width="3" paint-order="stroke">65 a/op</text>
  <circle cx="559.1" cy="202.8" r="5" fill="#8c564b" stroke="white" stroke-width="1.5"><title>GCacheLFU P1000 — 16.6K ns/op, 64 allocs/op</title></circle>
  <text x="559.1" y="188.8" text-anchor="middle" font-family="sans-serif" font-size="9" fill="#8c564b" stroke="white" stroke-width="3" paint-order="stroke">16.6K ns/op</text>
  <text x="559.1" y="222.8" text-anchor="middle" font-family="sans-serif" font-size="9" fill="#8c564b" stroke="white" stroke-width="3" paint-order="stroke">64 a/op</text>
  <circle cx="729.1" cy="243.5" r="5" fill="#8c564b" stroke="white" stroke-width="1.5"><title>GCacheLFU P10000 — 13.9K ns/op, 64 allocs/op</title></circle>
  <text x="729.1" y="229.5" text-anchor="middle" font-family="sans-serif" font-size="9" fill="#8c564b" stroke="white" stroke-width="3" paint-order="stroke">13.9K ns/op</text>
  <text x="729.1" y="263.5" text-anchor="middle" font-family="sans-serif" font-size="9" fill="#8c564b" stroke="white" stroke-width="3" paint-order="stroke">64 a/op</text>
  <circle cx="389.1" cy="186.5" r="5" fill="#9467bd" stroke="white" stroke-width="1.5"><title>GCacheARC P100 — 17.6K ns/op, 64 allocs/op</title></circle>
  <text x="389.1" y="172.5" text-anchor="middle" font-family="sans-serif" font-size="9" fill="#9467bd" stroke="white" stroke-width="3" paint-order="stroke">17.6K ns/op</text>
  <text x="389.1" y="206.5" text-anchor="middle" font-family="sans-serif" font-size="9" fill="#9467bd" stroke="white" stroke-width="3" paint-order="stroke">64 a/op</text>
  <circle cx="559.1" cy="141.6" r="5" fill="#9467bd" stroke="white" stroke-width="1.5"><title>GCacheARC P1000 — 20.5K ns/op, 64 allocs/op</title></circle>
  <text x="559.1" y="127.6" text-anchor="middle" font-family="sans-serif" font-size="9" fill="#9467bd" stroke="white" stroke-width="3" paint-order="stroke">20.5K ns/op</text>
  <text x="559.1" y="161.6" text-anchor="middle" font-family="sans-serif" font-size="9" fill="#9467bd" stroke="white" stroke-width="3" paint-order="stroke">64 a/op</text>
  <circle cx="729.1" cy="199.1" r="5" fill="#9467bd" stroke="white" stroke-width="1.5"><title>GCacheARC P10000 — 16.8K ns/op, 64 allocs/op</title></circle>
  <text x="729.1" y="185.1" text-anchor="middle" font-family="sans-serif" font-size="9" fill="#9467bd" stroke="white" stroke-width="3" paint-order="stroke">16.8K ns/op</text>
  <text x="729.1" y="219.1" text-anchor="middle" font-family="sans-serif" font-size="9" fill="#9467bd" stroke="white" stroke-width="3" paint-order="stroke">64 a/op</text>
  <circle cx="389.1" cy="227.7" r="5" fill="#e377c2" stroke="white" stroke-width="1.5"><title>GCacheLRU P100 — 14.9K ns/op, 64 allocs/op</title></circle>
  <text x="389.1" y="213.7" text-anchor="middle" font-family="sans-serif" font-size="9" fill="#e377c2" stroke="white" stroke-width="3" paint-order="stroke">14.9K ns/op</text>
  <text x="389.1" y="247.7" text-anchor="middle" font-family="sans-serif" font-size="9" fill="#e377c2" stroke="white" stroke-width="3" paint-order="stroke">64 a/op</text>
  <circle cx="559.1" cy="202.6" r="5" fill="#e377c2" stroke="white" stroke-width="1.5"><title>GCacheLRU P1000 — 16.6K ns/op, 64 allocs/op</title></circle>
  <text x="559.1" y="188.6" text-anchor="middle" font-family="sans-serif" font-size="9" fill="#e377c2" stroke="white" stroke-width="3" paint-order="stroke">16.6K ns/op</text>
  <text x="559.1" y="222.6" text-anchor="middle" font-family="sans-serif" font-size="9" fill="#e377c2" stroke="white" stroke-width="3" paint-order="stroke">64 a/op</text>
  <circle cx="729.1" cy="262.4" r="5" fill="#e377c2" stroke="white" stroke-width="1.5"><title>GCacheLRU P10000 — 12.7K ns/op, 64 allocs/op</title></circle>
  <text x="729.1" y="248.4" text-anchor="middle" font-family="sans-serif" font-size="9" fill="#e377c2" stroke="white" stroke-width="3" paint-order="stroke">12.7K ns/op</text>
  <text x="729.1" y="282.4" text-anchor="middle" font-family="sans-serif" font-size="9" fill="#e377c2" stroke="white" stroke-width="3" paint-order="stroke">64 a/op</text>
  <circle cx="299.5" cy="383.4" r="5" fill="#1f77b4" stroke="white" stroke-width="1.5"><title>BigCache P100 — 8.2K ns/op, 32 allocs/op</title></circle>
  <text x="299.5" y="369.4" text-anchor="middle" font-family="sans-serif" font-size="9" fill="#1f77b4" stroke="white" stroke-width="3" paint-order="stroke">8.2K ns/op</text>
  <text x="299.5" y="403.4" text-anchor="middle" font-family="sans-serif" font-size="9" fill="#1f77b4" stroke="white" stroke-width="3" paint-order="stroke">32 a/op</text>
  <circle cx="469.5" cy="422.0" r="5" fill="#1f77b4" stroke="white" stroke-width="1.5"><title>BigCache P1000 — 5.6K ns/op, 32 allocs/op</title></circle>
  <text x="469.5" y="408.0" text-anchor="middle" font-family="sans-serif" font-size="9" fill="#1f77b4" stroke="white" stroke-width="3" paint-order="stroke">5.6K ns/op</text>
  <text x="469.5" y="442.0" text-anchor="middle" font-family="sans-serif" font-size="9" fill="#1f77b4" stroke="white" stroke-width="3" paint-order="stroke">32 a/op</text>
  <circle cx="639.5" cy="424.2" r="5" fill="#1f77b4" stroke="white" stroke-width="1.5"><title>BigCache P10000 — 5.5K ns/op, 32 allocs/op</title></circle>
  <text x="639.5" y="410.2" text-anchor="middle" font-family="sans-serif" font-size="9" fill="#1f77b4" stroke="white" stroke-width="3" paint-order="stroke">5.5K ns/op</text>
  <text x="639.5" y="444.2" text-anchor="middle" font-family="sans-serif" font-size="9" fill="#1f77b4" stroke="white" stroke-width="3" paint-order="stroke">32 a/op</text>
  <circle cx="299.5" cy="496.5" r="5" fill="#2ca02c" stroke="white" stroke-width="1.5"><title>Gache P100 — 805 ns/op, 32 allocs/op</title></circle>
  <text x="299.5" y="482.5" text-anchor="middle" font-family="sans-serif" font-size="9" fill="#2ca02c" stroke="white" stroke-width="3" paint-order="stroke">805 ns/op</text>
  <text x="299.5" y="516.5" text-anchor="middle" font-family="sans-serif" font-size="9" fill="#2ca02c" stroke="white" stroke-width="3" paint-order="stroke">32 a/op</text>
  <circle cx="469.5" cy="496.3" r="5" fill="#2ca02c" stroke="white" stroke-width="1.5"><title>Gache P1000 — 814 ns/op, 32 allocs/op</title></circle>
  <text x="469.5" y="482.3" text-anchor="middle" font-family="sans-serif" font-size="9" fill="#2ca02c" stroke="white" stroke-width="3" paint-order="stroke">814 ns/op</text>
  <text x="469.5" y="516.3" text-anchor="middle" font-family="sans-serif" font-size="9" fill="#2ca02c" stroke="white" stroke-width="3" paint-order="stroke">32 a/op</text>
  <circle cx="639.5" cy="496.1" r="5" fill="#2ca02c" stroke="white" stroke-width="1.5"><title>Gache P10000 — 829 ns/op, 32 allocs/op</title></circle>
  <text x="639.5" y="482.1" text-anchor="middle" font-family="sans-serif" font-size="9" fill="#2ca02c" stroke="white" stroke-width="3" paint-order="stroke">829 ns/op</text>
  <text x="639.5" y="516.1" text-anchor="middle" font-family="sans-serif" font-size="9" fill="#2ca02c" stroke="white" stroke-width="3" paint-order="stroke">32 a/op</text>
  <circle cx="254.8" cy="413.6" r="5" fill="#7f7f7f" stroke="white" stroke-width="1.5"><title>GoCache P100 — 7.9K ns/op, 16 allocs/op</title></circle>
  <text x="254.8" y="399.6" text-anchor="middle" font-family="sans-serif" font-size="9" fill="#7f7f7f" stroke="white" stroke-width="3" paint-order="stroke">7.9K ns/op</text>
  <text x="254.8" y="433.6" text-anchor="middle" font-family="sans-serif" font-size="9" fill="#7f7f7f" stroke="white" stroke-width="3" paint-order="stroke">16 a/op</text>
  <circle cx="424.8" cy="354.3" r="5" fill="#7f7f7f" stroke="white" stroke-width="1.5"><title>GoCache P1000 — 11.7K ns/op, 16 allocs/op</title></circle>
  <text x="424.8" y="340.3" text-anchor="middle" font-family="sans-serif" font-size="9" fill="#7f7f7f" stroke="white" stroke-width="3" paint-order="stroke">11.7K ns/op</text>
  <text x="424.8" y="374.3" text-anchor="middle" font-family="sans-serif" font-size="9" fill="#7f7f7f" stroke="white" stroke-width="3" paint-order="stroke">16 a/op</text>
  <circle cx="594.8" cy="419.1" r="5" fill="#7f7f7f" stroke="white" stroke-width="1.5"><title>GoCache P10000 — 7.5K ns/op, 16 allocs/op</title></circle>
  <text x="594.8" y="405.1" text-anchor="middle" font-family="sans-serif" font-size="9" fill="#7f7f7f" stroke="white" stroke-width="3" paint-order="stroke">7.5K ns/op</text>
  <text x="594.8" y="439.1" text-anchor="middle" font-family="sans-serif" font-size="9" fill="#7f7f7f" stroke="white" stroke-width="3" paint-order="stroke">16 a/op</text>
  <circle cx="210.0" cy="554.7" r="5" fill="#d62728" stroke="white" stroke-width="1.5"><title>GacheV2 P100 — 379 ns/op, 0.0 allocs/op</title></circle>
  <text x="210.0" y="540.7" text-anchor="middle" font-family="sans-serif" font-size="9" fill="#d62728" stroke="white" stroke-width="3" paint-order="stroke">379 ns/op</text>
  <text x="210.0" y="574.7" text-anchor="middle" font-family="sans-serif" font-size="9" fill="#d62728" stroke="white" stroke-width="3" paint-order="stroke">0.0 a/op</text>
  <circle cx="380.0" cy="555.0" r="5" fill="#d62728" stroke="white" stroke-width="1.5"><title>GacheV2 P1000 — 359 ns/op, 0.0 allocs/op</title></circle>
  <text x="380.0" y="541.0" text-anchor="middle" font-family="sans-serif" font-size="9" fill="#d62728" stroke="white" stroke-width="3" paint-order="stroke">359 ns/op</text>
  <text x="380.0" y="575.0" text-anchor="middle" font-family="sans-serif" font-size="9" fill="#d62728" stroke="white" stroke-width="3" paint-order="stroke">0.0 a/op</text>
  <circle cx="550.0" cy="554.9" r="5" fill="#d62728" stroke="white" stroke-width="1.5"><title>GacheV2 P10000 — 364 ns/op, 0.0 allocs/op</title></circle>
  <text x="550.0" y="540.9" text-anchor="middle" font-family="sans-serif" font-size="9" fill="#d62728" stroke="white" stroke-width="3" paint-order="stroke">364 ns/op</text>
  <text x="550.0" y="574.9" text-anchor="middle" font-family="sans-serif" font-size="9" fill="#d62728" stroke="white" stroke-width="3" paint-order="stroke">0.0 a/op</text>
  <circle cx="210.0" cy="284.7" r="5" fill="#17becf" stroke="white" stroke-width="1.5"><title>TTLCache P100 — 17.9K ns/op, 0.0 allocs/op</title></circle>
  <text x="210.0" y="270.7" text-anchor="middle" font-family="sans-serif" font-size="9" fill="#17becf" stroke="white" stroke-width="3" paint-order="stroke">17.9K ns/op</text>
  <text x="210.0" y="304.7" text-anchor="middle" font-family="sans-serif" font-size="9" fill="#17becf" stroke="white" stroke-width="3" paint-order="stroke">0.0 a/op</text>
  <circle cx="380.0" cy="291.9" r="5" fill="#17becf" stroke="white" stroke-width="1.5"><title>TTLCache P1000 — 17.5K ns/op, 0.0 allocs/op</title></circle>
  <text x="380.0" y="277.9" text-anchor="middle" font-family="sans-serif" font-size="9" fill="#17becf" stroke="white" stroke-width="3" paint-order="stroke">17.5K ns/op</text>
  <text x="380.0" y="311.9" text-anchor="middle" font-family="sans-serif" font-size="9" fill="#17becf" stroke="white" stroke-width="3" paint-order="stroke">0.0 a/op</text>
  <circle cx="550.0" cy="290.6" r="5" fill="#17becf" stroke="white" stroke-width="1.5"><title>TTLCache P10000 — 17.6K ns/op, 0.0 allocs/op</title></circle>
  <text x="550.0" y="276.6" text-anchor="middle" font-family="sans-serif" font-size="9" fill="#17becf" stroke="white" stroke-width="3" paint-order="stroke">17.6K ns/op</text>
  <text x="550.0" y="310.6" text-anchor="middle" font-family="sans-serif" font-size="9" fill="#17becf" stroke="white" stroke-width="3" paint-order="stroke">0.0 a/op</text>
  <text x="751" y="60" font-family="sans-serif" font-size="12" font-weight="bold">Dash style</text>
  <line x1="751" y1="76" x2="773" y2="76" stroke="#555" stroke-width="2" stroke-dasharray="8,4"/>
  <text x="779" y="76" font-family="sans-serif" font-size="11" dominant-baseline="middle">3D path</text>
  <line x1="751" y1="94" x2="773" y2="94" stroke="#555" stroke-width="1.8" stroke-dasharray="10,5"/>
  <text x="779" y="94" font-family="sans-serif" font-size="11" dominant-baseline="middle">Latency/Op (back wall)</text>
  <line x1="751" y1="112" x2="773" y2="112" stroke="#555" stroke-width="1.8" stroke-dasharray="5,4"/>
  <text x="779" y="112" font-family="sans-serif" font-size="11" dominant-baseline="middle">Alloc/Op (floor)</text>
  <text x="751" y="136" font-family="sans-serif" font-size="13" font-weight="bold">Library</text>
  <line x1="751" y1="156" x2="769" y2="156" stroke="#1f77b4" stroke-width="2.5" stroke-dasharray="8,4"/>
  <circle cx="760" cy="156" r="4" fill="#1f77b4"/>
  <text x="775" y="156" font-family="sans-serif" font-size="12" dominant-baseline="middle">BigCache</text>
  <line x1="751" y1="178" x2="769" y2="178" stroke="#9467bd" stroke-width="2.5" stroke-dasharray="8,4"/>
  <circle cx="760" cy="178" r="4" fill="#9467bd"/>
  <text x="775" y="178" font-family="sans-serif" font-size="12" dominant-baseline="middle">GCacheARC</text>
  <line x1="751" y1="200" x2="769" y2="200" stroke="#8c564b" stroke-width="2.5" stroke-dasharray="8,4"/>
  <circle cx="760" cy="200" r="4" fill="#8c564b"/>
  <text x="775" y="200" font-family="sans-serif" font-size="12" dominant-baseline="middle">GCacheLFU</text>
  <line x1="751" y1="222" x2="769" y2="222" stroke="#e377c2" stroke-width="2.5" stroke-dasharray="8,4"/>
  <circle cx="760" cy="222" r="4" fill="#e377c2"/>
  <text x="775" y="222" font-family="sans-serif" font-size="12" dominant-baseline="middle">GCacheLRU</text>
  <line x1="751" y1="244" x2="769" y2="244" stroke="#2ca02c" stroke-width="2.5" stroke-dasharray="8,4"/>
  <circle cx="760" cy="244" r="4" fill="#2ca02c"/>
  <text x="775" y="244" font-family="sans-serif" font-size="12" dominant-baseline="middle">Gache</text>
  <line x1="751" y1="266" x2="769" y2="266" stroke="#d62728" stroke-width="2.5" stroke-dasharray="8,4"/>
  <circle cx="760" cy="266" r="4" fill="#d62728"/>
  <text x="775" y="266" font-family="sans-serif" font-size="12" dominant-baseline="middle">GacheV2</text>
  <line x1="751" y1="288" x2="769" y2="288" stroke="#7f7f7f" stroke-width="2.5" stroke-dasharray="8,4"/>
  <circle cx="760" cy="288" r="4" fill="#7f7f7f"/>
  <text x="775" y="288" font-family="sans-serif" font-size="12" dominant-baseline="middle">GoCache</text>
  <line x1="751" y1="310" x2="769" y2="310" stroke="#17becf" stroke-width="2.5" stroke-dasharray="8,4"/>
  <circle cx="760" cy="310" r="4" fill="#17becf"/>
  <text x="775" y="310" font-family="sans-serif" font-size="12" dominant-baseline="middle">TTLCache</text>
</svg>
