<svg xmlns="http://www.w3.org/2000/svg" xmlns:xlink="http://www.w3.org/1999/xlink" width="1000" height="600">\n<path  d="M 0 0
L 1000 0
L 1000 600
L 0 600
L 0 0" style="stroke-width:0;stroke:rgba(255,255,255,1.0);fill:rgba(255,255,255,1.0)"/><path  d="M 20 46
L 930 46
L 930 565
L 20 565
L 20 46" style="stroke-width:0;stroke:rgba(255,255,255,1.0);fill:rgba(255,255,255,1.0)"/><path  d="M 40 565
L 90 565
L 90 565
L 40 565
L 40 565" style="stroke-width:3;stroke:rgba(106,195,203,1.0);fill:rgba(106,195,203,1.0)"/><path  d="M 131 563
L 181 563
L 181 565
L 131 565
L 131 563" style="stroke-width:3;stroke:rgba(42,190,137,1.0);fill:rgba(42,190,137,1.0)"/><path  d="M 222 527
L 272 527
L 272 565
L 222 565
L 222 527" style="stroke-width:3;stroke:rgba(110,128,139,1.0);fill:rgba(110,128,139,1.0)"/><path  d="M 313 490
L 363 490
L 363 565
L 313 565
L 313 490" style="stroke-width:3;stroke:rgba(240,174,90,1.0);fill:rgba(240,174,90,1.0)"/><path  d="M 404 473
L 454 473
L 454 565
L 404 565
L 404 473" style="stroke-width:3;stroke:rgba(0,116,217,1.0);fill:rgba(0,116,217,1.0)"/><path  d="M 495 379
L 545 379
L 545 565
L 495 565
L 495 379" style="stroke-width:3;stroke:rgba(0,217,101,1.0);fill:rgba(0,217,101,1.0)"/><path  d="M 586 343
L 636 343
L 636 565
L 586 565
L 586 343" style="stroke-width:3;stroke:rgba(217,0,116,1.0);fill:rgba(217,0,116,1.0)"/><path  d="M 677 261
L 727 261
L 727 565
L 677 565
L 677 261" style="stroke-width:3;stroke:rgba(0,217,210,1.0);fill:rgba(0,217,210,1.0)"/><path  d="M 768 153
L 818 153
L 818 565
L 768 565
L 768 153" style="stroke-width:3;stroke:rgba(217,101,0,1.0);fill:rgba(217,101,0,1.0)"/><path  d="M 859 46
L 909 46
L 909 565
L 859 565
L 859 46" style="stroke-width:3;stroke:rgba(106,195,203,1.0);fill:rgba(106,195,203,1.0)"/><path  d="M 20 565
L 930 565" style="stroke-width:0;stroke:rgba(51,51,51,1.0);fill:none"/><path  d="M 20 565
L 20 570" style="stroke-width:0;stroke:rgba(51,51,51,1.0);fill:none"/><text x="39" y="587" style="stroke-width:0;stroke:none;fill:rgba(51,51,51,1.0);font-size:12.8px;font-family:'Roboto Medium',sans-serif">GacheV2</text><path  d="M 111 565
L 111 570" style="stroke-width:0;stroke:rgba(51,51,51,1.0);fill:none"/><text x="127" y="587" style="stroke-width:0;stroke:none;fill:rgba(51,51,51,1.0);font-size:12.8px;font-family:'Roboto Medium',sans-serif">TTLCache</text><path  d="M 202 565
L 202 570" style="stroke-width:0;stroke:rgba(51,51,51,1.0);fill:none"/><text x="221" y="587" style="stroke-width:0;stroke:none;fill:rgba(51,51,51,1.0);font-size:12.8px;font-family:'Roboto Medium',sans-serif">GoCache</text><path  d="M 293 565
L 293 570" style="stroke-width:0;stroke:rgba(51,51,51,1.0);fill:none"/><text x="305" y="587" style="stroke-width:0;stroke:none;fill:rgba(51,51,51,1.0);font-size:12.8px;font-family:'Roboto Medium',sans-serif">DefaultMap</text><path  d="M 384 565
L 384 570" style="stroke-width:0;stroke:rgba(51,51,51,1.0);fill:none"/><text x="411" y="587" style="stroke-width:0;stroke:none;fill:rgba(51,51,51,1.0);font-size:12.8px;font-family:'Roboto Medium',sans-serif">Gache</text><path  d="M 475 565
L 475 570" style="stroke-width:0;stroke:rgba(51,51,51,1.0);fill:none"/><text x="493" y="587" style="stroke-width:0;stroke:none;fill:rgba(51,51,51,1.0);font-size:12.8px;font-family:'Roboto Medium',sans-serif">SyncMap</text><path  d="M 566 565
L 566 570" style="stroke-width:0;stroke:rgba(51,51,51,1.0);fill:none"/><text x="584" y="587" style="stroke-width:0;stroke:none;fill:rgba(51,51,51,1.0);font-size:12.8px;font-family:'Roboto Medium',sans-serif">BigCache</text><path  d="M 657 565
L 657 570" style="stroke-width:0;stroke:rgba(51,51,51,1.0);fill:none"/><text x="669" y="587" style="stroke-width:0;stroke:none;fill:rgba(51,51,51,1.0);font-size:12.8px;font-family:'Roboto Medium',sans-serif">GCacheLFU</text><path  d="M 748 565
L 748 570" style="stroke-width:0;stroke:rgba(51,51,51,1.0);fill:none"/><text x="759" y="587" style="stroke-width:0;stroke:none;fill:rgba(51,51,51,1.0);font-size:12.8px;font-family:'Roboto Medium',sans-serif">GCacheLRU</text><path  d="M 839 565
L 839 570" style="stroke-width:0;stroke:rgba(51,51,51,1.0);fill:none"/><text x="849" y="587" style="stroke-width:0;stroke:none;fill:rgba(51,51,51,1.0);font-size:12.8px;font-family:'Roboto Medium',sans-serif">GCacheARC</text><path  d="M 930 565
L 930 46" style="stroke-width:0;stroke:rgba(51,51,51,1.0);fill:none"/><path  d="M 930 565
L 935 565" style="stroke-width:0;stroke:rgba(51,51,51,1.0);fill:none"/><text x="940" y="571" style="stroke-width:0;stroke:none;fill:rgba(51,51,51,1.0);font-size:12.8px;font-family:'Roboto Medium',sans-serif">0.00</text><path  d="M 930 527
L 935 527" style="stroke-width:0;stroke:rgba(51,51,51,1.0);fill:none"/><text x="940" y="533" style="stroke-width:0;stroke:none;fill:rgba(51,51,51,1.0);font-size:12.8px;font-family:'Roboto Medium',sans-serif">65.00</text><path  d="M 930 490
L 935 490" style="stroke-width:0;stroke:rgba(51,51,51,1.0);fill:none"/><text x="940" y="496" style="stroke-width:0;stroke:none;fill:rgba(51,51,51,1.0);font-size:12.8px;font-family:'Roboto Medium',sans-serif">130.00</text><path  d="M 930 453
L 935 453" style="stroke-width:0;stroke:rgba(51,51,51,1.0);fill:none"/><text x="940" y="459" style="stroke-width:0;stroke:none;fill:rgba(51,51,51,1.0);font-size:12.8px;font-family:'Roboto Medium',sans-serif">194.00</text><path  d="M 930 416
L 935 416" style="stroke-width:0;stroke:rgba(51,51,51,1.0);fill:none"/><text x="940" y="422" style="stroke-width:0;stroke:none;fill:rgba(51,51,51,1.0);font-size:12.8px;font-family:'Roboto Medium',sans-serif">259.00</text><path  d="M 930 379
L 935 379" style="stroke-width:0;stroke:rgba(51,51,51,1.0);fill:none"/><text x="940" y="385" style="stroke-width:0;stroke:none;fill:rgba(51,51,51,1.0);font-size:12.8px;font-family:'Roboto Medium',sans-serif">324.00</text><path  d="M 930 342
L 935 342" style="stroke-width:0;stroke:rgba(51,51,51,1.0);fill:none"/><text x="940" y="348" style="stroke-width:0;stroke:none;fill:rgba(51,51,51,1.0);font-size:12.8px;font-family:'Roboto Medium',sans-serif">388.00</text><path  d="M 930 305
L 935 305" style="stroke-width:0;stroke:rgba(51,51,51,1.0);fill:none"/><text x="940" y="311" style="stroke-width:0;stroke:none;fill:rgba(51,51,51,1.0);font-size:12.8px;font-family:'Roboto Medium',sans-serif">453.00</text><path  d="M 930 267
L 935 267" style="stroke-width:0;stroke:rgba(51,51,51,1.0);fill:none"/><text x="940" y="273" style="stroke-width:0;stroke:none;fill:rgba(51,51,51,1.0);font-size:12.8px;font-family:'Roboto Medium',sans-serif">518.00</text><path  d="M 930 231
L 935 231" style="stroke-width:0;stroke:rgba(51,51,51,1.0);fill:none"/><text x="940" y="237" style="stroke-width:0;stroke:none;fill:rgba(51,51,51,1.0);font-size:12.8px;font-family:'Roboto Medium',sans-serif">582.00</text><path  d="M 930 193
L 935 193" style="stroke-width:0;stroke:rgba(51,51,51,1.0);fill:none"/><text x="940" y="199" style="stroke-width:0;stroke:none;fill:rgba(51,51,51,1.0);font-size:12.8px;font-family:'Roboto Medium',sans-serif">647.00</text><path  d="M 930 156
L 935 156" style="stroke-width:0;stroke:rgba(51,51,51,1.0);fill:none"/><text x="940" y="162" style="stroke-width:0;stroke:none;fill:rgba(51,51,51,1.0);font-size:12.8px;font-family:'Roboto Medium',sans-serif">712.00</text><path  d="M 930 119
L 935 119" style="stroke-width:0;stroke:rgba(51,51,51,1.0);fill:none"/><text x="940" y="125" style="stroke-width:0;stroke:none;fill:rgba(51,51,51,1.0);font-size:12.8px;font-family:'Roboto Medium',sans-serif">776.00</text><path  d="M 930 82
L 935 82" style="stroke-width:0;stroke:rgba(51,51,51,1.0);fill:none"/><text x="940" y="88" style="stroke-width:0;stroke:none;fill:rgba(51,51,51,1.0);font-size:12.8px;font-family:'Roboto Medium',sans-serif">841.00</text><path  d="M 930 46
L 935 46" style="stroke-width:0;stroke:rgba(51,51,51,1.0);fill:none"/><text x="940" y="52" style="stroke-width:0;stroke:none;fill:rgba(51,51,51,1.0);font-size:12.8px;font-family:'Roboto Medium',sans-serif">905.00</text><path  d="M 20 565
L 930 565" style="stroke-width:0;stroke:none;fill:none"/><path  d="M 20 527
L 930 527" style="stroke-width:0;stroke:none;fill:none"/><path  d="M 20 490
L 930 490" style="stroke-width:0;stroke:none;fill:none"/><path  d="M 20 453
L 930 453" style="stroke-width:0;stroke:none;fill:none"/><path  d="M 20 416
L 930 416" style="stroke-width:0;stroke:none;fill:none"/><path  d="M 20 379
L 930 379" style="stroke-width:0;stroke:none;fill:none"/><path  d="M 20 342
L 930 342" style="stroke-width:0;stroke:none;fill:none"/><path  d="M 20 305
L 930 305" style="stroke-width:0;stroke:none;fill:none"/><path  d="M 20 267
L 930 267" style="stroke-width:0;stroke:none;fill:none"/><path  d="M 20 231
L 930 231" style="stroke-width:0;stroke:none;fill:none"/><path  d="M 20 193
L 930 193" style="stroke-width:0;stroke:none;fill:none"/><path  d="M 20 156
L 930 156" style="stroke-width:0;stroke:none;fill:none"/><path  d="M 20 119
L 930 119" style="stroke-width:0;stroke:none;fill:none"/><path  d="M 20 82
L 930 82" style="stroke-width:0;stroke:none;fill:none"/><text x="309" y="33" style="stroke-width:0;stroke:none;fill:rgba(51,51,51,1.0);font-size:23.0px;font-family:'Roboto Medium',sans-serif">SmallData NoTTL P100 - BytesPerOp</text></svg>