<svg xmlns="http://www.w3.org/2000/svg" xmlns:xlink="http://www.w3.org/1999/xlink" width="840" height="600">\n<path  d="M 0 0
L 840 0
L 840 600
L 0 600
L 0 0" style="stroke-width:0;stroke:rgba(255,255,255,1.0);fill:rgba(255,255,255,1.0)"/><path  d="M 20 46
L 777 46
L 777 565
L 20 565
L 20 46" style="stroke-width:0;stroke:rgba(255,255,255,1.0);fill:rgba(255,255,255,1.0)"/><path  d="M 42 565
L 92 565
L 92 565
L 42 565
L 42 565" style="stroke-width:3;stroke:rgba(106,195,203,1.0);fill:rgba(106,195,203,1.0)"/><path  d="M 137 528
L 187 528
L 187 565
L 137 565
L 137 528" style="stroke-width:3;stroke:rgba(42,190,137,1.0);fill:rgba(42,190,137,1.0)"/><path  d="M 232 516
L 282 516
L 282 565
L 232 565
L 232 516" style="stroke-width:3;stroke:rgba(110,128,139,1.0);fill:rgba(110,128,139,1.0)"/><path  d="M 327 436
L 377 436
L 377 565
L 327 565
L 327 436" style="stroke-width:3;stroke:rgba(240,174,90,1.0);fill:rgba(240,174,90,1.0)"/><path  d="M 422 436
L 472 436
L 472 565
L 422 565
L 422 436" style="stroke-width:3;stroke:rgba(0,116,217,1.0);fill:rgba(0,116,217,1.0)"/><path  d="M 517 424
L 567 424
L 567 565
L 517 565
L 517 424" style="stroke-width:3;stroke:rgba(0,217,101,1.0);fill:rgba(0,217,101,1.0)"/><path  d="M 612 412
L 662 412
L 662 565
L 612 565
L 612 412" style="stroke-width:3;stroke:rgba(217,0,116,1.0);fill:rgba(217,0,116,1.0)"/><path  d="M 707 46
L 757 46
L 757 565
L 707 565
L 707 46" style="stroke-width:3;stroke:rgba(0,217,210,1.0);fill:rgba(0,217,210,1.0)"/><path  d="M 20 565
L 777 565" style="stroke-width:0;stroke:rgba(51,51,51,1.0);fill:none"/><path  d="M 20 565
L 20 570" style="stroke-width:0;stroke:rgba(51,51,51,1.0);fill:none"/><text x="41" y="587" style="stroke-width:0;stroke:none;fill:rgba(51,51,51,1.0);font-size:12.8px;font-family:'Roboto Medium',sans-serif">GacheV2</text><path  d="M 115 565
L 115 570" style="stroke-width:0;stroke:rgba(51,51,51,1.0);fill:none"/><text x="136" y="587" style="stroke-width:0;stroke:none;fill:rgba(51,51,51,1.0);font-size:12.8px;font-family:'Roboto Medium',sans-serif">GoCache</text><path  d="M 210 565
L 210 570" style="stroke-width:0;stroke:rgba(51,51,51,1.0);fill:none"/><text x="239" y="587" style="stroke-width:0;stroke:none;fill:rgba(51,51,51,1.0);font-size:12.8px;font-family:'Roboto Medium',sans-serif">Gache</text><path  d="M 305 565
L 305 570" style="stroke-width:0;stroke:rgba(51,51,51,1.0);fill:none"/><text x="325" y="587" style="stroke-width:0;stroke:none;fill:rgba(51,51,51,1.0);font-size:12.8px;font-family:'Roboto Medium',sans-serif">BigCache</text><path  d="M 400 565
L 400 570" style="stroke-width:0;stroke:rgba(51,51,51,1.0);fill:none"/><text x="414" y="587" style="stroke-width:0;stroke:none;fill:rgba(51,51,51,1.0);font-size:12.8px;font-family:'Roboto Medium',sans-serif">GCacheLFU</text><path  d="M 495 565
L 495 570" style="stroke-width:0;stroke:rgba(51,51,51,1.0);fill:none"/><text x="508" y="587" style="stroke-width:0;stroke:none;fill:rgba(51,51,51,1.0);font-size:12.8px;font-family:'Roboto Medium',sans-serif">GCacheLRU</text><path  d="M 590 565
L 590 570" style="stroke-width:0;stroke:rgba(51,51,51,1.0);fill:none"/><text x="602" y="587" style="stroke-width:0;stroke:none;fill:rgba(51,51,51,1.0);font-size:12.8px;font-family:'Roboto Medium',sans-serif">GCacheARC</text><path  d="M 685 565
L 685 570" style="stroke-width:0;stroke:rgba(51,51,51,1.0);fill:none"/><text x="703" y="587" style="stroke-width:0;stroke:none;fill:rgba(51,51,51,1.0);font-size:12.8px;font-family:'Roboto Medium',sans-serif">TTLCache</text><path  d="M 777 565
L 777 46" style="stroke-width:0;stroke:rgba(51,51,51,1.0);fill:none"/><path  d="M 777 565
L 782 565" style="stroke-width:0;stroke:rgba(51,51,51,1.0);fill:none"/><text x="787" y="571" style="stroke-width:0;stroke:none;fill:rgba(51,51,51,1.0);font-size:12.8px;font-family:'Roboto Medium',sans-serif">1.00</text><path  d="M 777 527
L 782 527" style="stroke-width:0;stroke:rgba(51,51,51,1.0);fill:none"/><text x="787" y="533" style="stroke-width:0;stroke:none;fill:rgba(51,51,51,1.0);font-size:12.8px;font-family:'Roboto Medium',sans-serif">7.10</text><path  d="M 777 490
L 782 490" style="stroke-width:0;stroke:rgba(51,51,51,1.0);fill:none"/><text x="787" y="496" style="stroke-width:0;stroke:none;fill:rgba(51,51,51,1.0);font-size:12.8px;font-family:'Roboto Medium',sans-serif">13.20</text><path  d="M 777 453
L 782 453" style="stroke-width:0;stroke:rgba(51,51,51,1.0);fill:none"/><text x="787" y="459" style="stroke-width:0;stroke:none;fill:rgba(51,51,51,1.0);font-size:12.8px;font-family:'Roboto Medium',sans-serif">19.30</text><path  d="M 777 416
L 782 416" style="stroke-width:0;stroke:rgba(51,51,51,1.0);fill:none"/><text x="787" y="422" style="stroke-width:0;stroke:none;fill:rgba(51,51,51,1.0);font-size:12.8px;font-family:'Roboto Medium',sans-serif">25.30</text><path  d="M 777 379
L 782 379" style="stroke-width:0;stroke:rgba(51,51,51,1.0);fill:none"/><text x="787" y="385" style="stroke-width:0;stroke:none;fill:rgba(51,51,51,1.0);font-size:12.8px;font-family:'Roboto Medium',sans-serif">31.40</text><path  d="M 777 342
L 782 342" style="stroke-width:0;stroke:rgba(51,51,51,1.0);fill:none"/><text x="787" y="348" style="stroke-width:0;stroke:none;fill:rgba(51,51,51,1.0);font-size:12.8px;font-family:'Roboto Medium',sans-serif">37.50</text><path  d="M 777 305
L 782 305" style="stroke-width:0;stroke:rgba(51,51,51,1.0);fill:none"/><text x="787" y="311" style="stroke-width:0;stroke:none;fill:rgba(51,51,51,1.0);font-size:12.8px;font-family:'Roboto Medium',sans-serif">43.50</text><path  d="M 777 268
L 782 268" style="stroke-width:0;stroke:rgba(51,51,51,1.0);fill:none"/><text x="787" y="274" style="stroke-width:0;stroke:none;fill:rgba(51,51,51,1.0);font-size:12.8px;font-family:'Roboto Medium',sans-serif">49.60</text><path  d="M 777 231
L 782 231" style="stroke-width:0;stroke:rgba(51,51,51,1.0);fill:none"/><text x="787" y="237" style="stroke-width:0;stroke:none;fill:rgba(51,51,51,1.0);font-size:12.8px;font-family:'Roboto Medium',sans-serif">55.70</text><path  d="M 777 193
L 782 193" style="stroke-width:0;stroke:rgba(51,51,51,1.0);fill:none"/><text x="787" y="199" style="stroke-width:0;stroke:none;fill:rgba(51,51,51,1.0);font-size:12.8px;font-family:'Roboto Medium',sans-serif">61.80</text><path  d="M 777 157
L 782 157" style="stroke-width:0;stroke:rgba(51,51,51,1.0);fill:none"/><text x="787" y="163" style="stroke-width:0;stroke:none;fill:rgba(51,51,51,1.0);font-size:12.8px;font-family:'Roboto Medium',sans-serif">67.80</text><path  d="M 777 119
L 782 119" style="stroke-width:0;stroke:rgba(51,51,51,1.0);fill:none"/><text x="787" y="125" style="stroke-width:0;stroke:none;fill:rgba(51,51,51,1.0);font-size:12.8px;font-family:'Roboto Medium',sans-serif">73.90</text><path  d="M 777 82
L 782 82" style="stroke-width:0;stroke:rgba(51,51,51,1.0);fill:none"/><text x="787" y="88" style="stroke-width:0;stroke:none;fill:rgba(51,51,51,1.0);font-size:12.8px;font-family:'Roboto Medium',sans-serif">80.00</text><path  d="M 777 46
L 782 46" style="stroke-width:0;stroke:rgba(51,51,51,1.0);fill:none"/><text x="787" y="52" style="stroke-width:0;stroke:none;fill:rgba(51,51,51,1.0);font-size:12.8px;font-family:'Roboto Medium',sans-serif">86.00</text><path  d="M 20 571
L 777 571" style="stroke-width:0;stroke:none;fill:none"/><path  d="M 20 527
L 777 527" style="stroke-width:0;stroke:none;fill:none"/><path  d="M 20 490
L 777 490" style="stroke-width:0;stroke:none;fill:none"/><path  d="M 20 453
L 777 453" style="stroke-width:0;stroke:none;fill:none"/><path  d="M 20 416
L 777 416" style="stroke-width:0;stroke:none;fill:none"/><path  d="M 20 379
L 777 379" style="stroke-width:0;stroke:none;fill:none"/><path  d="M 20 342
L 777 342" style="stroke-width:0;stroke:none;fill:none"/><path  d="M 20 305
L 777 305" style="stroke-width:0;stroke:none;fill:none"/><path  d="M 20 268
L 777 268" style="stroke-width:0;stroke:none;fill:none"/><path  d="M 20 231
L 777 231" style="stroke-width:0;stroke:none;fill:none"/><path  d="M 20 193
L 777 193" style="stroke-width:0;stroke:none;fill:none"/><path  d="M 20 157
L 777 157" style="stroke-width:0;stroke:none;fill:none"/><path  d="M 20 119
L 777 119" style="stroke-width:0;stroke:none;fill:none"/><path  d="M 20 82
L 777 82" style="stroke-width:0;stroke:none;fill:none"/><text x="204" y="33" style="stroke-width:0;stroke:none;fill:rgba(51,51,51,1.0);font-size:23.0px;font-family:'Roboto Medium',sans-serif">SmallData WithTTL P10000 - AllocsPerOp</text></svg>